<?xml version="1.0" encoding="UTF-8" standalone="no"?>
<svg
   xmlns:dc="http://purl.org/dc/elements/1.1/"
   xmlns:cc="http://creativecommons.org/ns#"
   xmlns:rdf="http://www.w3.org/1999/02/22-rdf-syntax-ns#"
   xmlns:svg="http://www.w3.org/2000/svg"
   xmlns="http://www.w3.org/2000/svg"
   xmlns:sodipodi="http://sodipodi.sourceforge.net/DTD/sodipodi-0.dtd"
   xmlns:inkscape="http://www.inkscape.org/namespaces/inkscape"
   width="400mm"
   height="400mm"
   viewBox="0 0 400 400"
   version="1.1"
   id="svg8"
   inkscape:version="1.0.2 (e86c870879, 2021-01-15, custom)"
   sodipodi:docname="clickme.svg">
  <defs
     id="defs2" />
  <sodipodi:namedview
     id="base"
     pagecolor="#ffffff"
     bordercolor="#666666"
     borderopacity="1.0"
     inkscape:pageopacity="0.0"
     inkscape:pageshadow="2"
     inkscape:zoom="0.35"
     inkscape:cx="584.28568"
     inkscape:cy="888.95388"
     inkscape:document-units="mm"
     inkscape:current-layer="layer1"
     showgrid="false"
     inkscape:window-width="1920"
     inkscape:window-height="1017"
     inkscape:window-x="-8"
     inkscape:window-y="-8"
     inkscape:window-maximized="1"
     inkscape:document-rotation="0" />
  <metadata
     id="metadata5">
    <rdf:RDF>
      <cc:Work
         rdf:about="">
        <dc:format>image/svg+xml</dc:format>
        <dc:type
           rdf:resource="http://purl.org/dc/dcmitype/StillImage" />
        <dc:title></dc:title>
      </cc:Work>
    </rdf:RDF>
  </metadata>
  <g
     inkscape:label="Layer 1"
     inkscape:groupmode="layer"
     id="layer1"
     transform="translate(171.60118,15.964286)">
    <rect
       style="fill:none;fill-opacity:0.87437188;stroke:none;stroke-width:0.96499997;stroke-miterlimit:4;stroke-dasharray:none;stroke-opacity:1"
       id="rect815"
       width="400"
       height="400"
       x="-171.60118"
       y="-15.964286"
       ry="1.8463206" />
    <path
       id="rect1000"
       style="fill:#0dbfed;stroke:#ec1b83;stroke-width:4.39492;stroke-miterlimit:4;stroke-dasharray:none;stroke-opacity:1"
       d="m -36.253327,35.152194 c -9.911057,0.149953 -17.877636,9.850549 -17.957678,22.006666 l -0.803652,122.02276 -1.403159,-2.86615 c -5.155629,-10.53021 -16.259768,-13.94662 -24.897068,-7.66014 l -19.020856,13.84385 c -8.6373,6.28648 -11.44013,19.82505 -6.2845,30.35526 l 41.350116,84.4563 c 4.13721,8.45014 12.10481,12.31818 19.554472,10.26857 5.182611,5.45038 11.942528,8.73939 19.355582,8.73939 h 156.68279 c 16.40048,0 29.60378,-16.0955 29.60378,-36.08855 v -44.02812 c 0,-3.44281 -0.3919,-6.76978 -1.12383,-9.91916 l -1.75729,-80.22213 c -0.2389,-10.90422 -7.63416,-19.55258 -16.5812,-19.39086 l -19.70282,0.3563 c -8.94706,0.16173 -15.95743,9.07012 -15.71854,19.97434 -0.23889,-10.90422 -7.634154,-19.55259 -16.581204,-19.39086 l -19.70283,0.3563 C 59.811747,128.12769 52.80096,137.03657 53.039855,147.94079 52.80096,137.03657 45.406097,128.3882 36.459058,128.54993 l -19.702833,0.35629 c -5.211207,0.0942 -9.7623468,3.1589 -12.6098298,7.85383 L 4.6646462,58.073997 C 4.7459572,45.724926 -3.3433628,35.656613 -13.472924,35.499128 l -22.307023,-0.346934 c -0.158276,-0.0025 -0.316061,-0.0024 -0.47338,0 z" />
  </g>
</svg>
