<?xml version="1.0" encoding="UTF-8" standalone="no"?>
<svg
   xmlns:dc="http://purl.org/dc/elements/1.1/"
   xmlns:cc="http://creativecommons.org/ns#"
   xmlns:rdf="http://www.w3.org/1999/02/22-rdf-syntax-ns#"
   xmlns:svg="http://www.w3.org/2000/svg"
   xmlns="http://www.w3.org/2000/svg"
   xmlns:sodipodi="http://sodipodi.sourceforge.net/DTD/sodipodi-0.dtd"
   xmlns:inkscape="http://www.inkscape.org/namespaces/inkscape"
   width="182.5746mm"
   height="177.39977mm"
   viewBox="0 0 182.5746 177.39977"
   version="1.1"
   id="svg8"
   inkscape:version="1.0.2 (e86c870879, 2021-01-15, custom)"
   sodipodi:docname="is.svg">
  <defs
     id="defs2">
    <rect
       x="96.761902"
       y="61.988094"
       width="217.71429"
       height="55.184525"
       id="rect837" />
  </defs>
  <sodipodi:namedview
     id="base"
     pagecolor="#ffffff"
     bordercolor="#666666"
     borderopacity="1.0"
     inkscape:pageopacity="0.0"
     inkscape:pageshadow="2"
     inkscape:zoom="0.35"
     inkscape:cx="458.66523"
     inkscape:cy="426.46009"
     inkscape:document-units="mm"
     inkscape:current-layer="layer1"
     inkscape:document-rotation="0"
     showgrid="false"
     inkscape:window-width="1920"
     inkscape:window-height="1017"
     inkscape:window-x="-8"
     inkscape:window-y="-8"
     inkscape:window-maximized="1" />
  <metadata
     id="metadata5">
    <rdf:RDF>
      <cc:Work
         rdf:about="">
        <dc:format>image/svg+xml</dc:format>
        <dc:type
           rdf:resource="http://purl.org/dc/dcmitype/StillImage" />
        <dc:title></dc:title>
      </cc:Work>
    </rdf:RDF>
  </metadata>
  <g
     inkscape:label="Layer 1"
     inkscape:groupmode="layer"
     id="layer1"
     transform="translate(15.521842,55.381849)">
    <g
       id="g850"
       transform="translate(1.5119048)">
      <circle
         style="fill:#032176;fill-opacity:1;stroke:#ff0099;stroke-width:2.765;stroke-miterlimit:4;stroke-dasharray:none;stroke-opacity:1"
         id="path844"
         sodipodi:type="arc"
         sodipodi:cx="75.068062"
         sodipodi:cy="33.317169"
         sodipodi:rx="89.202377"
         sodipodi:ry="87.3125"
         sodipodi:start="0.10640695"
         sodipodi:end="0.068427788"
         sodipodi:open="true"
         sodipodi:arc-type="arc"
         d="M 163.76592,42.590304 A 89.202377,87.3125 0 0 1 66.436792,120.21997 89.202377,87.3125 0 0 1 -13.793699,25.694258 89.202377,87.3125 0 0 1 82.011909,-53.730387 89.202377,87.3125 0 0 1 164.06168,39.287109" />
      <path
         sodipodi:type="spiral"
         style="fill:none;fill-rule:evenodd;stroke:#ff0099;stroke-width:5.865;stroke-miterlimit:4;stroke-dasharray:none;stroke-opacity:1"
         id="path842"
         sodipodi:cx="72.044243"
         sodipodi:cy="35.207047"
         sodipodi:expansion="4.02"
         sodipodi:revolution="18.809999"
         sodipodi:radius="93.092705"
         sodipodi:argument="-4.770432"
         sodipodi:t0="0.45439401"
         d="m 72.966073,31.410804 c 2.251438,0.371426 3.710573,2.61963 3.340892,4.831347 -0.421553,2.522049 -2.942441,4.155318 -5.42125,3.735897 -2.816396,-0.476542 -4.638976,-3.29426 -4.164988,-6.063695 0.536697,-3.13583 3.676784,-5.163758 6.761724,-4.630073 3.481743,0.60233 5.731941,4.091753 5.13312,7.518463 -0.673763,3.855564 -4.540959,6.345864 -8.337128,5.676147 -4.258762,-0.751326 -7.007927,-5.026242 -6.261226,-9.221022 0.83536,-4.692841 5.549492,-7.720591 10.173533,-6.890477 5.159344,0.926213 8.486381,6.112643 7.566078,11.198134 -1.024243,5.659852 -6.717683,9.307884 -12.298386,8.290259 -6.195987,-1.129819 -10.187747,-7.366646 -9.065303,-13.47794 1.243317,-6.769404 8.061617,-11.128681 14.74053,-9.893543 7.381798,1.365123 12.133459,8.804726 10.777368,16.089978 C 84.415404,46.609183 76.312882,51.779194 68.380845,50.293497 59.650351,48.658247 54.034898,39.849364 55.659257,31.228329 57.443646,21.757952 67.004196,15.668816 76.358245,17.441304 86.614647,19.384777 93.206882,29.744205 91.276374,39.877128 89.163439,50.96758 77.955979,58.093527 66.996444,55.994679 55.021989,53.701465 47.330495,41.594834 49.608444,29.759028 52.093207,16.848657 65.152171,8.5585344 77.915861,11.026795 91.816064,13.714836 100.73917,27.781358 98.068924,41.526542 95.165407,56.472529 80.034,66.064256 65.251679,63.179898 49.201878,60.048226 38.904561,43.792465 42.015651,27.915293 45.388642,10.701533 62.830409,-0.33968193 79.862255,3.0112399 98.302274,6.6392122 110.12706,25.33086 106.52271,43.57935 102.62559,63.310118 82.617924,75.959542 63.088633,72.087662 42.000394,67.906706 28.483852,46.514591 32.637877,25.638116 37.117877,3.1234173 59.965222,-11.304164 82.257523,-6.8528544 106.26998,-2.0580662 121.65398,22.317666 116.88972,46.096739 111.76385,71.68059 85.784155,88.067892 60.445026,82.974455 33.213754,77.500677 15.77477,49.838972 21.214144,22.864125 27.05324,-6.0930131 56.47749,-24.633601 85.166132,-18.830963 115.93004,-12.608577 135.62372,18.661299 129.43992,49.144267 122.81569,81.798355 89.614526,102.69818 57.254207,96.11475 22.624002,89.069528 0.46333939,53.848803 7.4654745,19.525577 14.951432,-17.169261 52.28266,-40.647069 88.656917,-33.206569 127.50752,-25.259524 152.36044,14.275846 144.46131,52.791866 136.0322,93.89201 94.196312,120.1797 53.445151,111.80104 9.9989909,102.86828 -17.784824,58.632717 -8.9051352,15.55035 0.55351736,-30.341025 47.290738,-59.684056 92.803095,-50.281185 141.24165,-40.273759 172.20875,9.0699506 162.2599,57.113846 c -0.50757,2.451089 -1.11428,4.881629 -1.81791,7.283787" />
      <text
         xml:space="preserve"
         id="text835"
         style="font-style:normal;font-variant:normal;font-weight:normal;font-stretch:normal;font-size:10.5833px;line-height:1.25;font-family:'Lucida Handwriting';-inkscape-font-specification:'Lucida Handwriting';letter-spacing:0px;word-spacing:0px;white-space:pre;shape-inside:url(#rect837);fill:#f2f3f6;fill-opacity:1;stroke:none;"
         transform="matrix(9.1235372,-1.5515551,0,13.757117,-868.76246,-735.26561)"><tspan
           x="96.761719"
           y="70.97949"><tspan
             style="font-style:normal;font-variant:normal;font-weight:normal;font-stretch:normal;font-family:'Lucida Handwriting';-inkscape-font-specification:'Lucida Handwriting';fill:#f2f3f6;fill-opacity:1">IS</tspan></tspan></text>
    </g>
  </g>
</svg>
