<?xml version="1.0" encoding="UTF-8" standalone="no"?>
<!-- Created with Inkscape (http://www.inkscape.org/) -->

<svg
   xmlns:dc="http://purl.org/dc/elements/1.1/"
   xmlns:cc="http://creativecommons.org/ns#"
   xmlns:rdf="http://www.w3.org/1999/02/22-rdf-syntax-ns#"
   xmlns:svg="http://www.w3.org/2000/svg"
   xmlns="http://www.w3.org/2000/svg"
   xmlns:sodipodi="http://sodipodi.sourceforge.net/DTD/sodipodi-0.dtd"
   xmlns:inkscape="http://www.inkscape.org/namespaces/inkscape"
   width="135.53937mm"
   height="122.75536mm"
   viewBox="0 0 135.53937 122.75536"
   version="1.1"
   id="svg14355"
   inkscape:version="0.92.4 (5da689c313, 2019-01-14)"
   sodipodi:docname="jandmlaughingblue.svg">
  <defs
     id="defs14349" />
  <sodipodi:namedview
     id="base"
     pagecolor="#ffffff"
     bordercolor="#666666"
     borderopacity="1.0"
     inkscape:pageopacity="0.0"
     inkscape:pageshadow="2"
     inkscape:zoom="0.35"
     inkscape:cx="1224.0609"
     inkscape:cy="-290.24917"
     inkscape:document-units="mm"
     inkscape:current-layer="layer1"
     showgrid="false"
     inkscape:window-width="1920"
     inkscape:window-height="1017"
     inkscape:window-x="-8"
     inkscape:window-y="-8"
     inkscape:window-maximized="1" />
  <metadata
     id="metadata14352">
    <rdf:RDF>
      <cc:Work
         rdf:about="">
        <dc:format>image/svg+xml</dc:format>
        <dc:type
           rdf:resource="http://purl.org/dc/dcmitype/StillImage" />
        <dc:title></dc:title>
      </cc:Work>
    </rdf:RDF>
  </metadata>
  <g
     inkscape:label="Layer 1"
     inkscape:groupmode="layer"
     id="layer1"
     transform="translate(218.03278,50.717115)">
    <path
       style="fill:#000080;stroke-width:0.66781515"
       d="m -218.03266,63.370499 c 0,-8.539931 0.0289,-8.708408 1.96276,-11.431933 1.07951,-1.520344 2.58624,-3.104677 3.34827,-3.520745 1.11938,-0.611196 1.30835,-1.168578 0.98375,-2.901819 -0.34914,-1.864192 -0.30061,-1.968536 0.37034,-0.79626 0.42467,0.741977 1.11871,1.652599 1.54231,2.023587 1.51407,1.32601 5.01598,7.805136 5.0184,9.284913 0.003,2.08245 2.39238,5.892 3.69487,5.892 0.58965,0 2.57768,1.222984 4.41782,2.717739 3.20665,2.60476 3.49915,2.702984 7.03692,2.362901 3.50526,-0.336934 6.61445,-1.886105 7.16454,-3.569756 0.17788,-0.544404 -0.33084,-0.597658 -1.74803,-0.183009 -1.09941,0.321687 -2.53242,0.481274 -3.18445,0.354636 -0.65205,-0.126637 -1.65661,-0.253454 -2.23239,-0.281846 -0.77859,-0.03831 -1.05337,-0.786174 -1.07232,-2.918362 -0.0193,-2.175312 -0.63814,-3.802211 -2.56563,-6.745279 -2.29453,-3.503533 -4.24096,-4.974051 -4.24096,-3.204028 0,1.139839 -1.34181,0.746445 -1.72553,-0.505892 -0.19893,-0.649238 -0.80971,-2.029407 -1.35729,-3.067047 -0.90292,-1.71096 -0.88712,-2.05636 0.16958,-3.709908 1.29958,-2.033585 7.58787,-8.201088 8.38048,-8.219517 0.27966,-0.0078 0.32177,0.747037 0.0936,1.674514 -0.35428,1.440092 -0.18718,1.687839 1.14445,1.696651 0.85761,0.0055 2.00559,0.301471 2.55105,0.657314 0.66475,0.43366 -0.14686,0.511186 -2.46153,0.235126 -3.33177,-0.397338 -3.47824,-0.344898 -4.16231,1.490711 -1.16032,3.113568 -0.60025,4.571464 1.99566,5.194756 3.75801,0.902302 7.88668,1.129966 8.29415,0.45735 0.2085,-0.344171 0.93532,-0.625761 1.61515,-0.625761 0.67986,0 1.66771,-0.440316 2.1952,-0.978498 0.52752,-0.53816 1.75376,-1.181958 2.72499,-1.430643 1.17238,-0.300209 1.68601,-0.821459 1.52823,-1.550993 -0.13067,-0.60436 -0.66626,-0.987568 -1.19013,-0.851581 -2.83791,0.736682 -6.04559,0.517686 -6.40479,-0.437279 -0.60834,-1.617338 1.74305,-2.920417 4.36447,-2.418703 2.09331,0.400633 2.25162,0.317298 1.91224,-1.006722 -0.5796,-2.261149 1.28975,-1.770962 2.52272,0.661501 0.58684,1.157778 1.20733,2.903116 1.37886,3.878543 0.4606,2.619247 1.28081,3.163047 3.19467,2.118092 1.18516,-0.647106 1.66629,-1.467302 1.66629,-2.840568 0,-1.223228 0.42399,-2.090381 1.15704,-2.366295 1.58018,-0.594811 2.12673,-1.550056 2.13867,-3.737956 0.01,-1.816855 -0.0707,-1.854953 -3.92283,-1.854953 -3.27875,0 -4.2296,-0.280495 -5.71646,-1.686332 -0.98095,-0.927477 -2.35878,-1.686308 -3.06187,-1.686308 -1.10596,0 -1.2096,-0.295585 -0.7687,-2.192234 0.28029,-1.205715 0.4838,-2.88119 0.45226,-3.723289 -0.0316,-0.842077 0.28341,-1.466609 0.69996,-1.387865 0.93602,0.176989 7.69959,-2.818374 7.69959,-3.4099 0,-0.236075 -0.54045,-0.773531 -1.20097,-1.194379 -0.87329,-0.556399 -1.24444,-1.736783 -1.36024,-4.32603 -0.20021,-4.4764128 -0.68389,-5.365323 -3.82838,-7.0359497 -1.39491,-0.7410837 -2.964,-1.7629636 -3.48692,-2.270832 -0.73157,-0.7105356 -2.75678,-0.8577136 -8.78471,-0.6384489 -7.6425,0.2779929 -7.88196,0.3339064 -9.79749,2.2881448 -1.28156,1.3074457 -2.40725,3.5862414 -3.24117,6.5612538 -0.70272,2.506929 -1.96529,5.669262 -2.80573,7.027383 -0.84042,1.358132 -2.18212,4.155821 -2.98154,6.217094 -0.9092,2.344271 -1.46629,3.17941 -1.48764,2.230098 -0.0361,-1.605678 -0.97238,-2.022863 -1.73066,-0.771163 -0.31527,0.520423 -0.62441,0.469357 -1.02065,-0.168634 -0.88261,-1.421104 -0.68884,-3.950551 0.30268,-3.950551 0.90741,0 3.07568,-5.806588 3.07568,-8.236628 0,-6.1362289 5.32641,-14.30043516 11.97058,-18.348215 5.47811,-3.3373895 8.26956,-4.1378492 15.22427,-4.3655802 7.25664,-0.2376271 9.59735,0.888418 16.53327,7.95367598 4.49981,4.58371722 5.2059,5.65697622 6.48318,9.85453682 1.23941,4.0730774 1.34244,5.2583204 0.76132,8.7577654 -1.2356,7.440736 -1.36131,11.752648 -0.33085,11.349223 1.78254,-0.697847 1.71362,1.808289 -0.13754,4.999796 -1.02477,1.766795 -2.3709,4.722161 -2.99141,6.567476 -0.62052,1.84536 -1.45629,3.46673 -1.85727,3.603096 -0.40098,0.1364 -1.1577,1.294534 -1.68158,2.573732 -0.5239,1.279177 -2.00413,3.635042 -3.28941,5.235268 -1.28527,1.600204 -2.33687,3.204721 -2.33687,3.565589 0,1.155253 3.20506,3.773172 4.16117,3.398866 0.50744,-0.198658 1.31829,-1.830639 1.80189,-3.626608 0.93982,-3.490274 7.05608,-16.8849 7.97434,-17.463896 0.30279,-0.190916 0.39186,-0.768995 0.19792,-1.284615 -0.83483,-2.219475 3.52934,-6.26721 7.96233,-7.385013 1.06263,-0.26794 2.84778,-1.48277 3.96701,-2.699644 1.55987,-1.695915 3.32503,-2.586522 7.56065,-3.814654 4.36174,-1.264712 5.64656,-1.926505 6.09944,-3.14177 0.31557,-0.846768 0.84539,-1.539578 1.1774,-1.539578 0.33199,0 2.94271,2.468953 5.80158,5.486544 8.77447,9.26168 10.90508,10.351212 16.91313,8.648897 4.62163,-1.3095 8.419048,-6.012661 9.394184,-11.634867 0.287111,-1.655381 0.231277,-1.846555 -0.237809,-0.814243 -0.528769,1.163652 -0.619402,1.053255 -0.659483,-0.803363 -0.05798,-2.686398 -1.364881,-3.720776 -1.37893,-1.09141 -0.0053,1.04212 -0.331162,2.350068 -0.723542,2.906567 -0.58137,0.824518 -0.63498,0.767946 -0.28966,-0.305682 0.23306,-0.724596 0.20547,-3.001126 -0.0613,-5.058959 l -0.48507,-3.741506 -0.73659,3.709908 c -0.40512,2.040454 -0.48097,3.890482 -0.16856,4.111155 1.11627,0.788542 -0.37422,4.129873 -2.40609,5.393905 -2.21502,1.377968 -7.31645,1.725233 -9.0036,0.612882 -0.88155,-0.581228 -0.88155,-0.655304 0,-0.666729 0.54548,-0.0078 0.0248,-0.614335 -1.15703,-1.349477 -2.57749,-1.603276 -2.69243,-1.949926 -0.50511,-1.523326 2.96677,0.578582 6.31705,-0.535792 8.97443,-2.985098 1.43288,-1.320681 2.60524,-2.842902 2.60524,-3.382726 0,-2.1368 -3.24456,-3.56263 -4.97466,-2.186135 -0.37238,0.296288 -1.81,0.446985 -3.1947,0.33489 -2.17889,-0.176375 -2.47423,-0.0344 -2.19497,1.055019 0.45883,1.790016 -0.67036,2.237112 -1.52678,0.604527 -0.54088,-1.031061 -0.51649,-1.367949 0.099,-1.367949 0.56171,0 0.60348,-0.217467 0.13381,-0.696642 -0.37555,-0.383162 -1.18831,-0.498753 -1.8061,-0.256905 -0.86377,0.338173 -1.05634,1.034011 -0.83359,3.012117 0.35397,3.143289 -0.60739,2.988348 -4.0134,-0.646815 -5.23485,-5.587045 -5.10591,-9.3347047 0.37044,-10.7666102 1.84694,-0.4829276 5.77615,-2.0872421 8.73159,-3.5651543 2.95546,-1.47791171 5.79031,-2.52395099 6.29966,-2.32453415 1.89764,0.74289301 0.83611,-1.46670895 -1.70583,-3.55074565 -1.69272,-1.3877978 -2.47842,-1.7496722 -2.20173,-1.0140392 0.2924,0.7773728 0.18052,0.9863617 -0.34922,0.6523546 -1.22035,-0.7694648 -3.70479,0.2415252 -2.81766,1.1465966 1.06284,1.0843165 0.88888,2.963307 -0.3181,3.43583576 -2.62965,1.02946404 -6.35002,0.17225311 -5.78396,-1.33272196 0.27432,-0.7293112 -0.28425,-0.9559699 -2.35583,-0.9559699 -1.58012,0 -2.7154,-0.3191406 -2.7154,-0.7633441 0,-0.4990335 0.90039,-0.6401354 2.60035,-0.4075122 1.73876,0.2379286 2.70486,0.077961 2.91578,-0.4827376 0.17347,-0.4612253 2.05295,-1.5430399 4.17661,-2.4040708 2.12366,-0.8610085 3.98632,-1.6673768 4.13928,-1.791948 0.15295,-0.1246049 -0.32345,-0.9082436 -1.05867,-1.7415075 -2.33449,-2.6457634 -2.47757,-3.2776894 -0.57505,-2.5397334 0.93235,0.36164 2.58263,1.12571 3.66727,1.697947 1.08465,0.572237 2.12828,1.008332 2.31915,0.9691166 0.19088,-0.039205 1.60724,0.1628485 3.14748,0.449062 1.54023,0.2862024 3.13637,0.4590251 3.546977,0.3840454 0.410611,-0.074946 0.922646,0.3997497 1.137849,1.0549636 0.215203,0.6552029 0.662967,1.6465796 0.995025,2.203068 1.977129,3.3134314 2.498493,5.71415133 2.673411,12.310165 0.03689,1.391215 0.29196,2.5294905 0.56682,2.5294905 0.274861,0 1.167436,-1.4848479 1.983503,-3.2996596 1.124151,-2.4999367 1.483759,-4.5434403 1.483759,-8.4316107 0,-2.9716282 0.278325,-5.1319736 0.661167,-5.1319736 0.363642,0 0.661169,0.4182907 0.661169,0.9295211 0,0.5112416 0.571797,1.3459687 1.270657,1.8549541 1.067225,0.7772722 1.213045,1.4870148 0.910793,4.43317686 -0.252209,2.45835374 -0.681791,3.59524464 -1.435952,3.80027964 -0.591844,0.1609162 0.634689,0.3277968 2.725632,0.3708321 l 3.801714,0.078297 v 33.654311 c 0,30.06607 -0.111508,33.69795 -1.045828,34.063734 -0.575203,0.225172 -31.071566,0.409422 -67.769696,0.409422 h -66.72385 z m 35.41249,-7.35365 c 1.12097,-1.564005 0.63299,-1.962135 -0.71693,-0.584936 -0.58875,0.600663 -1.79302,1.092101 -2.67615,1.092101 -0.88314,0 -1.6057,0.341468 -1.6057,0.758842 0,1.144118 3.99689,0.131877 4.99878,-1.266007 z m 4.60132,-1.502685 c -0.15041,-2.082987 -1.0049,-2.477051 -1.0049,-0.463426 0,0.9893 0.24779,1.798739 0.55067,1.798739 0.30286,0 0.50728,-0.600898 0.45423,-1.335313 z m 5.05094,-2.460443 c 1.43674,-3.313654 1.0001,-4.46722 -1.44412,-3.815123 -1.45657,0.388592 -4.48996,3.563702 -3.40465,3.563702 0.42704,0 0.77643,0.758855 0.77643,1.686331 0,1.252001 0.35014,1.68631 1.3595,1.68631 0.98105,0 1.73625,-0.868861 2.71284,-3.12122 z m 79.234776,-11.196115 c 0,-1.707932 -0.831271,-1.05149 -1.120977,0.885201 -0.117724,0.78699 0.07762,1.194324 0.457812,0.954597 0.36474,-0.229976 0.663165,-1.05789 0.663165,-1.839798 z m -3.184262,-2.211478 c 0.955671,-2.139872 0.521364,-2.574 -1.709402,-1.708714 -1.517472,0.5886 -1.669352,0.881203 -1.060191,2.042464 0.953034,1.816744 1.857869,1.707709 2.769593,-0.33375 z m -8.055594,-1.548558 c 0,-1.06955 -1.61939,-2.158491 -3.20995,-2.158491 -1.58128,0 -1.59229,0.03485 -0.42647,1.349051 1.17412,1.323597 3.63642,1.871686 3.63642,0.80944 z m -64.46385,-6.205679 c -0.22474,-0.371 -1.15243,-0.674537 -2.06153,-0.674537 -0.93358,0 -1.4751,0.293563 -1.2443,0.674537 0.22474,0.371 1.15244,0.674538 2.06153,0.674538 0.9336,0 1.4751,-0.293564 1.2443,-0.674538 z m 1.65292,-6.745291 c 0,-1.747728 -2.63186,-2.063161 -4.4556,-0.534015 -1.27025,1.065093 -0.32306,1.883067 2.18054,1.883067 1.83428,0 2.27506,-0.261362 2.27506,-1.349052 z m 75.195222,-12.60777 c -0.664744,-1.488444 -0.85247,-1.5940835 -1.042629,-0.586713 -0.127549,0.67571 0.169267,1.487931 0.659601,1.804949 1.270876,0.821681 1.280456,0.791212 0.383028,-1.218236 z m -2.676287,-0.334767 c -0.211059,-0.538092 -0.36773,-0.378248 -0.399451,0.407535 -0.0287,0.711072 0.127549,1.109459 0.347257,0.885313 0.2197,-0.224146 0.243185,-0.805921 0.05217,-1.292848 z M -115.33666,9.8714202 c 1.75626,-0.3842584 3.98836,-1.1219017 4.96023,-1.6392085 0.97187,-0.5172949 2.1071,-0.9424102 2.52274,-0.9446995 1.33503,-0.00783 1.66478,-2.211959 0.49777,-3.3279182 -0.61004,-0.583373 -0.91365,-0.7022256 -0.67467,-0.2641206 0.50336,0.9227854 -0.6383,1.8829999 -1.17851,0.9912309 -0.38627,-0.6376219 -3.59619,-0.2441941 -4.68965,0.5747843 -0.36364,0.2723526 -1.64768,0.5154306 -2.85343,0.5401593 -4.23201,0.086897 -5.91342,0.7818286 -6.25112,2.5840308 -0.2401,1.2814431 0.028,1.8440423 1.08708,2.2807613 0.77318,0.318862 1.85143,0.427617 2.39608,0.241693 0.54465,-0.185925 2.42721,-0.652445 4.18348,-1.0367128 z m -97.25327,31.1384128 c 0,-1.298477 0.136,-1.829667 0.30237,-1.180428 0.16631,0.649227 0.16631,1.711629 0,2.360845 -0.1663,0.649239 -0.30237,0.118038 -0.30237,-1.180417 z m 19.02048,-12.784447 c 1.45785,-0.448447 1.16533,-0.659435 -2.47846,-1.787725 -2.27227,-0.7036 -4.1318,-1.483374 -4.1323,-1.732863 -0.001,-0.767219 4.50396,-2.018775 6.43687,-1.78805 1.00475,0.119936 2.19872,0.5758 2.65327,1.013034 1.88922,1.817269 0.19553,4.993631 -2.59744,4.871282 -1.51822,-0.06646 -1.51694,-0.07271 0.11802,-0.575678 z m 66.15842,-14.445233 c -1.84112,-3.923488 -3.34749,-8.0613819 -3.34749,-9.1953012 0,-1.1339194 0.95,-3.95012696 2.11111,-6.2582422 2.57177,-5.1123379 3.06631,-4.0445408 1.84315,3.979714 -0.92036,6.0377493 -0.85466,6.5987056 1.56831,13.3893664 0.92284,2.586343 1.56414,4.818451 1.42515,4.960278 -0.139,0.141794 -1.7591,-2.952305 -3.60023,-6.875815 z m -52.49428,-0.875707 c -0.24243,-0.247334 -0.44079,-0.851861 -0.44079,-1.343389 0,-0.776412 1.6142,-0.86522 4.62817,-0.254593 0.18182,0.03686 -0.24694,0.512637 -0.95283,1.057319 -1.38215,1.066536 -2.53089,1.258547 -3.23455,0.540663 z m 35.3282,-17.0590872 c -1.60012,-1.0493901 -3.18129,-2.403814 -3.51371,-3.0098272 -0.33242,-0.6059908 -1.72489,-2.3398362 -3.09439,-3.8529536 l -2.48997,-2.751124 -12.17843,-0.892517 c -6.69812,-0.490891 -20.9554,-1.403535 -31.68285,-2.028078 -10.72743,-0.624566 -19.80197,-1.435725 -20.16562,-1.802593 -0.69912,-0.705319 2.04004,-0.58841 27.10789,1.157051 26.25678,1.828249 35.60014,2.35114 35.93355,2.01099 0.62216,-0.634741 -2.2006,-2.267995 -4.52809,-2.61994 -1.27276,-0.19247 -8.41336,-0.522445 -15.86803,-0.733299 -18.56254,-0.525013 -27.92436,-0.941405 -33.38896,-1.485048 -2.5455,-0.253231 -4.82278,-0.413868 -5.06065,-0.35696 -0.23785,0.05696 -0.79495,-0.342127 -1.23798,-0.886765 -0.67627,-0.831298 -0.50073,-0.991891 1.09362,-1.000558 1.12418,-0.0055 1.57615,-0.219823 1.10761,-0.523696 -0.52205,-0.338586 -0.58177,-0.851815 -0.17542,-1.507354 0.94499,-1.524531 0.75112,-3.354857 -0.35535,-3.354857 -0.54547,0 -0.99177,-0.341469 -0.99177,-0.758839 0,-0.481211 0.71635,-0.612688 1.95788,-0.359368 1.07682,0.219731 2.13572,0.105941 2.3531,-0.252942 0.22629,-0.373546 -0.61061,-0.652442 -1.95786,-0.652442 -1.65088,0 -2.35312,-0.301936 -2.35312,-1.011781 0,-0.556495 -0.29753,-1.011796 -0.66115,-1.011796 -0.36365,0 -0.66118,-0.321463 -0.66118,-0.714348 0,-0.392885 0.29753,-0.526737 0.66118,-0.297448 0.36362,0.229276 0.66115,0.10318 0.66115,-0.280133 0,-0.383357 -0.90386,-1.173876 -2.0086,-1.756704 -2.00789,-1.059304 -2.00856,-1.061606 -1.88356,-6.593984 0.0688,-3.043869 0.25362,-5.154884 0.41079,-4.69113 0.17044,0.502924 1.46181,0.843157 3.20029,0.843157 2.19851,0 3.11744,-0.331444 3.74037,-1.349056 0.4542,-0.741992 1.20053,-1.34907 1.65852,-1.34907 0.45799,0 0.83271,-0.338922 0.83271,-0.753155 0,-0.43914 0.68741,-0.619101 1.64872,-0.43162 0.938,0.182933 1.97044,-0.07389 2.39504,-0.595901 0.56553,-0.695199 3.00899,-0.915206 10.08701,-0.908225 10.19177,0.01022 12.31594,0.319743 12.31594,1.795597 0,0.535103 0.25368,0.812964 0.56376,0.617454 0.31007,-0.195495 1.12827,0.06967 1.8182,0.589313 1.00538,0.757192 1.09036,1.114519 0.428,1.79962 -0.45455,0.470166 -0.82646,1.097689 -0.82646,1.394481 0,0.923439 2.49941,0.591441 3.54008,-0.470238 0.54441,-0.555418 1.41984,-0.841513 1.9454,-0.635758 0.52555,0.20574 1.13337,-0.09866 1.35071,-0.676473 0.49168,-1.307218 2.42016,-1.391129 2.42016,-0.105365 0,0.732289 1.75027,1.043449 7.76872,1.381103 4.2728,0.239724 8.42426,0.575439 9.22548,0.74603 1.2311,0.262108 1.52523,-0.06222 1.89884,-2.093993 0.82191,-4.469724 0.42769,-4.413997 29.72824,-4.203127 22.720963,0.163508 26.348606,0.327422 26.582103,1.20114 0.240354,0.899382 0.192465,0.899382 -0.430981,0 -0.575455,-0.830143 -0.717249,-0.709028 -0.789799,0.674536 -0.04865,0.927476 -0.02353,1.989855 0.0558,2.360852 0.291276,1.36236 0.08261,5.794166 -0.336184,7.140351 -0.320024,1.028672 -0.0952,1.475563 0.87214,1.733649 1.154868,0.308099 1.293402,0.898113 1.216323,5.180269 -0.06381,3.542974 0.13357,4.787551 0.739476,4.663917 0.563216,-0.114976 0.82646,0.798193 0.82646,2.866748 0,1.669454 -0.269671,3.035394 -0.59927,3.035394 -0.329597,0 -0.442493,0.682959 -0.250873,1.517675 0.25736,1.121141 -0.499313,0.592386 -2.895869,-2.023577 -3.070667,-3.35181 -5.212406,-4.617348 -4.468906,-2.640659 0.70975,1.886965 -2.11484,3.941995 -8.49293,6.179006 -3.58167,1.256223 -6.43302,1.939349 -6.43302,1.541242 0,-0.393283 -0.43904,-1.052059 -0.97564,-1.46395 -0.53661,-0.411891 -1.34145,-2.952327 -1.78854,-5.645404 -0.96648,-5.821653 -1.08768,-5.631127 6.05419,-9.517424 2.71862,-1.479353 5.04862,-3.013192 5.1778,-3.408527 0.12916,-0.395333 -0.53315,-1.016692 -1.47182,-1.380781 -0.93865,-0.364089 -1.70665,-1.091407 -1.70665,-1.616249 0,-1.65892 -7.01154,-8.356794 -9.28033,-8.86517 -1.81458,-0.406612 -2.36654,-0.177921 -4.01516,1.663567 -1.05125,1.174241 -1.91137,2.365109 -1.91137,2.64638 0,0.281286 -0.85065,1.483462 -1.89033,2.671516 -2.07767,2.374156 -2.83536,2.069467 -3.66657,-1.474426 -0.42356,-1.805858 -0.53536,-1.86058 -1.90939,-0.934502 -0.80272,0.541019 -1.55512,1.636346 -1.67203,2.434066 -0.12268,0.837139 -0.51533,1.259491 -0.92863,0.998899 -0.40511,-0.25542 -0.5272,-0.139754 -0.28116,0.266393 0.66191,1.092631 -0.16943,2.689557 -1.59864,3.070857 -0.82608,0.220387 -1.27661,0.92774 -1.27661,2.004312 0,0.915046 -0.58563,3.014416 -1.30141,4.665248 -1.07267,2.473951 -1.1815,3.44455 -0.6192,5.522187 1.08703,4.016449 0.41657,4.214381 -2.95423,0.872133 -1.89415,-1.878108 -2.96182,-3.443096 -2.67357,-3.918911 0.31371,-0.517878 0.19296,-0.611261 -0.34873,-0.269716 -0.45573,0.287364 -1.21019,1.448326 -1.67658,2.579933 -0.70478,1.710066 -0.68326,2.550623 0.12744,4.978004 0.53648,1.606282 1.17059,2.915871 1.40913,2.910186 1.19867,-0.02859 2.00361,-1.245378 2.2281,-3.368216 0.24548,-2.321475 0.25565,-2.328589 0.71496,-0.499994 0.25625,1.020215 0.62974,2.65195 0.82996,3.626059 l 0.36404,1.771118 1.64615,-2.276339 c 0.90538,-1.251967 2.67008,-2.812242 3.92156,-3.467266 1.25147,-0.655024 2.73473,-2.097127 3.29613,-3.204698 0.5614,-1.10756 1.28276,-2.013748 1.60301,-2.013748 0.32026,0 0.42668,-0.607074 0.23649,-1.349055 -0.24048,-0.938217 -0.0203,-1.349057 0.72307,-1.349057 0.58788,0 1.06887,0.259209 1.06887,0.576039 0,0.316814 0.7381,1.388547 1.64021,2.381614 1.34362,1.479096 1.69421,2.679182 1.93868,6.636335 0.34835,5.638657 0.0497,6.390106 -3.55136,8.936094 -3.69283,2.6108592 -4.0331,1.745874 -0.59885,-1.522299 2.69141,-2.561245 2.74166,-2.678087 1.07151,-2.491046 -0.96378,0.108008 -2.42939,0.680054 -3.2569,1.271369 -0.82749,0.591325 -2.01651,1.075124 -2.64226,1.075124 -0.62576,0 -1.5532,0.605142 -2.06099,1.344763 -0.50778,0.739631 -1.11971,1.144351 -1.35982,0.899375 -1.00496,-1.025276 -0.31468,-3.986438 1.34004,-5.748509 1.69435,-1.804245 1.71187,-1.891868 0.37857,-1.891868 -0.76892,0 -1.97519,0.748556 -2.68059,1.663456 -0.70541,0.9149 -1.47081,1.471378 -1.70091,1.236644 -0.76317,-0.778613 -0.4126,4.794046 0.56017,8.9041614 1.43165,6.0489625 1.51704,5.958614 -2.89609,3.0643892 z M -189.84335,-22.05386 c 0.2617,-0.695781 0.88853,-0.876478 2.0282,-0.584646 1.36505,0.34952 1.60869,0.203325 1.41305,-0.847974 -0.27608,-1.483575 -2.70906,-1.93706 -6.92886,-1.291474 -3.04662,0.466095 -3.32343,1.629926 -0.6958,2.925376 2.09701,1.033843 3.74873,0.954372 4.18341,-0.201282 z m 84.33192,-0.52154 c 0.71057,-1.141302 0.67558,-1.394946 -0.39924,-2.894571 -0.51574,-0.719549 -1.12496,-1.117243 -1.35383,-0.883738 -0.22886,0.233483 0.0301,0.87984 0.57563,1.436317 1.31962,1.346304 0.69014,1.846923 -2.32229,1.846923 -2.40971,0 -3.64553,0.705052 -2.7813,1.586746 0.67689,0.690576 5.71676,-0.185366 6.28103,-1.091677 z m -73.84292,-3.193183 c 0.22474,-0.370988 -0.20398,-0.674537 -0.95273,-0.674537 -0.74874,0 -1.36135,0.303549 -1.36135,0.674537 0,0.371 0.42872,0.674538 0.95273,0.674538 0.52399,0 1.13661,-0.303538 1.36135,-0.674538 z m 12.07259,-0.168634 c -0.14807,-0.463738 -1.0749,-1.243769 -2.05962,-1.733398 -1.52045,-0.756017 -2.2857,-0.722419 -5.07523,0.222828 -1.80664,0.612212 -3.28482,1.188046 -3.28482,1.279667 0,0.0917 2.08269,0.07271 4.62817,-0.04178 2.72589,-0.122705 4.62818,0.06367 4.62818,0.453755 0,0.364208 0.32232,0.662194 0.71627,0.662194 0.39395,0 0.59512,-0.379433 0.44705,-0.843171 z m 61.64761,-4.14364 c 0,-0.145801 -0.44629,-0.439809 -0.99176,-0.65336 -0.54546,-0.213537 -0.99174,-0.09429 -0.99174,0.265109 0,0.35934 0.44628,0.653347 0.99174,0.653347 0.54547,0 0.99176,-0.119352 0.99176,-0.265096 z m -107.6571,-8.945582 c 1.47541,-1.362215 1.57535,-3.504329 0.18883,-4.047138 -1.55903,-0.610356 -2.10765,0.436618 -0.75683,1.444333 1.14006,0.850487 1.12643,0.958489 -0.291,2.305708 -0.81789,0.777391 -1.23127,1.413424 -0.91859,1.413424 0.31267,0 1.11259,-0.502342 1.77759,-1.116327 z m 122.968347,21.352209 c 0,-0.927477 0.150072,-1.306898 0.333486,-0.843159 0.183414,0.463738 0.183414,1.222581 0,1.686319 -0.183414,0.463739 -0.333486,0.08433 -0.333486,-0.84316 z m -127.172547,-5.18248 c 0.47727,-0.19486 1.04753,-0.170879 1.26724,0.05317 0.21968,0.224147 -0.17081,0.383577 -0.8678,0.35428 -0.77022,-0.03239 -0.92687,-0.192201 -0.39944,-0.407523 z m 123.205541,-6.959051 c 0,-0.927478 0.150071,-1.306897 0.333487,-0.843158 0.183414,0.463739 0.183414,1.222592 0,1.686332 -0.183416,0.463738 -0.333487,0.08437 -0.333487,-0.843174 z m -37.129781,-2.674373 c 0,-0.797035 1.5263,-1.657447 5.34969,-3.015743 3.45289,-1.226658 3.90666,-1.271062 3.90666,-0.382232 0,0.828702 -6.40847,4.048771 -8.05775,4.048771 -0.65923,0 -1.1986,-0.292856 -1.1986,-0.650796 z m -5.89832,-2.440798 c 0.0317,-0.785785 0.1884,-0.945621 0.39946,-0.407531 0.19099,0.486923 0.1675,1.068703 -0.0521,1.292848 -0.2197,0.224145 -0.37596,-0.174249 -0.34725,-0.885317 z m 7.27285,-2.023591 c 0.0317,-0.785786 0.1884,-0.945621 0.39946,-0.407532 0.19099,0.486925 0.1675,1.068704 -0.0521,1.292849 -0.2197,0.224145 -0.37596,-0.174248 -0.34726,-0.885317 z"
       id="path14368"
       inkscape:connector-curvature="0" />
  </g>
</svg>
