<?xml version="1.0" encoding="UTF-8" standalone="no"?>
<svg
   xmlns:dc="http://purl.org/dc/elements/1.1/"
   xmlns:cc="http://creativecommons.org/ns#"
   xmlns:rdf="http://www.w3.org/1999/02/22-rdf-syntax-ns#"
   xmlns:svg="http://www.w3.org/2000/svg"
   xmlns="http://www.w3.org/2000/svg"
   xmlns:sodipodi="http://sodipodi.sourceforge.net/DTD/sodipodi-0.dtd"
   xmlns:inkscape="http://www.inkscape.org/namespaces/inkscape"
   width="997.27545mm"
   height="400.98666mm"
   viewBox="0 0 997.27545 400.98666"
   version="1.1"
   id="svg8"
   inkscape:version="1.0.2 (e86c870879, 2021-01-15, custom)"
   sodipodi:docname="someactivities.svg">
  <defs
     id="defs2">
    <rect
       x="65.767868"
       y="371.08334"
       width="210.15475"
       height="92.98214"
       id="rect865" />
    <rect
       x="-66.523796"
       y="79.285713"
       width="179.91667"
       height="192.76785"
       id="rect9495" />
    <rect
       x="-66.523796"
       y="79.285713"
       width="179.91667"
       height="192.76785"
       id="rect923" />
    <rect
       x="-66.523796"
       y="79.285713"
       width="179.91667"
       height="192.76785"
       id="rect9495-6" />
    <rect
       x="-66.523796"
       y="79.285713"
       width="179.91667"
       height="192.76785"
       id="rect1038" />
  </defs>
  <sodipodi:namedview
     id="base"
     pagecolor="#ffffff"
     bordercolor="#666666"
     borderopacity="1.0"
     inkscape:pageopacity="0.0"
     inkscape:pageshadow="2"
     inkscape:zoom="0.24748737"
     inkscape:cx="1920.6123"
     inkscape:cy="670.94182"
     inkscape:document-units="mm"
     inkscape:current-layer="layer1"
     showgrid="false"
     inkscape:window-width="1920"
     inkscape:window-height="1017"
     inkscape:window-x="-8"
     inkscape:window-y="-8"
     inkscape:window-maximized="1"
     inkscape:document-rotation="0" />
  <metadata
     id="metadata5">
    <rdf:RDF>
      <cc:Work
         rdf:about="">
        <dc:format>image/svg+xml</dc:format>
        <dc:type
           rdf:resource="http://purl.org/dc/dcmitype/StillImage" />
        <dc:title></dc:title>
      </cc:Work>
    </rdf:RDF>
  </metadata>
  <g
     inkscape:label="Layer 1"
     inkscape:groupmode="layer"
     id="layer1"
     transform="translate(174.76955,-83.175992)">
    <path
       style="fill:#41e0fd;fill-opacity:1;stroke:none;stroke-width:1.66235;stroke-miterlimit:4;stroke-dasharray:none;stroke-opacity:1"
       id="path827"
       d="m -54.166013,203.73635 c -1.991832,0.93382 -4.044096,1.59416 -6.044276,2.49188 -3.381613,2.42558 -8.247601,5.63916 7.81642,-5.4902 0.173274,-0.12013 -0.31646,0.29802 -0.488111,0.4215 -10.102359,7.26811 -6.391578,5.86118 -10.716952,7.42854 -3.386387,2.30384 -7.668932,5.2404 8.196933,-5.79073 0.158769,-0.11044 -0.303269,0.24909 -0.456494,0.37068 -0.834139,0.66189 -0.19577,0.1236 -1.001785,0.82244 -0.89023,1.22595 -2.041947,2.08716 -2.963053,3.26468 -0.8609,0.98419 -1.551198,2.09397 -2.131748,3.3419 -0.535868,1.36408 -1.450135,2.35957 -2.026784,3.69422 -0.539701,1.20869 -1.090863,2.43104 -1.489039,3.72217 -0.312555,1.48745 -0.69773,2.94494 -1.019666,4.42966 -0.482824,1.67352 -0.718257,3.41232 -0.851196,5.17248 -0.108254,1.83592 -0.106197,3.67797 -0.109124,5.51761 5.29e-4,1.8555 0.0044,3.71099 0.0064,5.56647 -0.08039,1.70336 0.02759,3.35198 0.301349,5.01756 0.254174,1.41539 0.584709,2.83929 0.988882,4.20407 0.493715,1.39014 0.668776,2.89066 1.045442,4.32625 0.486776,1.12662 1.064018,2.20218 1.670413,3.23957 0.88796,1.11761 2.027888,1.99119 3.096597,2.85923 1.102696,0.65564 2.26224,1.14665 3.377641,1.77016 1.288031,0.4569 2.537347,1.04612 3.82774,1.49585 1.378449,0.23794 2.707054,0.53406 4.014734,1.13728 1.528952,0.54471 3.049769,1.13808 4.598179,1.60051 1.450399,0.7413 2.975404,1.1103 4.530832,1.30024 1.452425,0.23236 2.863382,0.68399 4.33217,0.86891 1.776969,0.17841 3.561798,0.18282 5.343534,0.19426 1.967738,0.008 3.935455,-6.4e-4 5.903179,-0.0101 1.608343,-0.007 3.216698,-0.0101 4.825051,-0.0112 1.917535,0.0101 3.869775,-0.18584 5.730973,-0.76436 4.580365,-1.16458 11.4976035,-6.82711 -4.957172,4.61088 6.308715,-4.71822 20.7818839,-14.50424 1.78623,-1.30477 -0.194349,0.13506 0.372664,-0.30279 0.550703,-0.46817 0.317192,-0.29469 0.847541,-0.86713 1.145518,-1.18281 1.166269,-1.16252 2.125051,-2.58309 3.210081,-3.8538 1.0197,-0.91709 1.585779,-2.2656 2.1988341,-3.57658 0.7572002,-1.27116 1.2711147,-2.72525 1.8319649,-4.13308 0.7212178,-1.84931 1.4820454,-3.67497 2.1956622,-5.52864 0.8544505,-1.82045 1.705738,-3.61936 2.4257415,-5.52894 0.6852727,-1.88511 1.4275941,-3.73774 2.1334563,-5.61109 0.67420464,-1.92578 0.90782662,-3.99337 1.03693213,-6.06415 0.0865096,-1.8747 0.0745079,-3.75342 0.0708199,-5.63029 -0.005945,-1.85347 -0.009816,-3.70691 -0.0120222,-5.56038 -0.0324432,-1.82957 0.065643,-3.66532 -0.0613348,-5.48992 -0.29269226,-1.82767 -0.40589264,-3.68869 -0.6534988,-5.52315 -0.48057643,-1.78649 -0.93750283,-3.60441 -1.64748253,-5.27763 -0.7733582,-1.5541 -1.3299271,-3.24265 -2.0397248,-4.83657 -0.872893,-1.69121 -1.3821315,-3.62279 -2.2396746,-5.31581 -0.7183922,-1.30819 -1.4903672,-2.56598 -2.1891465,-3.89465 -0.7593491,-1.25792 -1.8956808,-1.96463 -2.9606468,-2.75955 -2.393816,-1.8541 -5.080507,-2.90473 -7.808357,-3.73332 -3.990435,-0.84949 -7.996119,-1.57358 -11.964402,-2.58136 -3.344944,-0.7317 -6.706757,-1.33454 -10.064248,-1.97866 -2.027477,-0.37026 -4.075869,-0.47816 -6.122583,-0.5187 -1.450057,-0.13212 -2.643712,0.95188 -4.011292,1.40199 -0.220276,0.11392 -0.437381,0.23752 -0.660833,0.34177 -1.412571,0.659 -0.04104,-0.11442 -1.296203,0.73655 -0.197302,0.13379 -0.800679,0.50807 -0.605386,0.36992 9.806249,-6.93594 11.98252,-8.7434 8.602463,-5.96893 -1.251026,1.05775 -2.505757,2.11855 -3.669776,3.31799 -1.407528,1.53117 -2.92565,2.89679 -4.346696,4.40686 -1.285462,1.3586 -2.50518,2.80163 -3.70978,4.2659 -0.989848,1.43333 -1.940753,2.90972 -2.881338,4.39218 -0.777118,1.28688 -1.385214,2.7284 -1.919339,4.1869 -0.534153,1.44279 -1.441274,2.58533 -2.11541,3.91947 -0.712705,1.61366 -1.284172,3.30732 -1.998244,4.92471 -0.81155,1.38237 -1.238117,2.90852 -1.45332,4.57173 -0.251859,1.5663 -0.586332,3.09789 -0.746786,4.68575 -0.07958,1.13361 -0.04609,0.56234 -0.09996,1.71386 0,0 -10.03393,6.19168 -10.03393,6.19168 v 0 c 0.03477,-1.19232 0.01251,-0.59888 0.06649,-1.78042 0.109722,-1.60336 0.290995,-3.19512 0.738481,-4.71749 0.145916,-1.80228 0.395446,-3.58697 1.25712,-5.11003 0.872049,-1.49962 1.42246,-3.2105 1.985592,-4.90572 0.656788,-1.34242 1.336832,-2.59119 2.169862,-3.78209 0.594977,-1.50327 1.11365,-3.03522 1.821437,-4.46856 0.954425,-1.51757 1.966421,-2.96445 2.870577,-4.52847 1.129881,-1.58251 2.430254,-2.94303 3.64847,-4.41787 1.470694,-1.43785 2.905181,-2.92944 4.351963,-4.40786 1.175566,-1.19053 2.334559,-2.36223 3.581481,-3.44466 4.258295,-3.34932 8.492863,-6.9997 13.331183,-8.92122 1.38816,-0.61395 2.691463,-1.29759 4.212833,-1.01796 2.060284,0.0968 4.117939,0.29398 6.151799,0.72519 3.329989,0.72312 6.677797,1.30216 9.997184,2.09573 3.985281,0.98065 8.01082,1.65941 11.995521,2.63383 2.8405438,0.90835 5.63426,2.03783 8.1521876,3.93328 1.2159286,0.88996 2.43459764,1.81772 3.25618189,3.27327 0.70321601,1.33659 1.47139061,2.61175 2.17539081,3.94477 0.8462112,1.72859 1.3867823,3.65155 2.2593882,5.36863 0.729726,1.59711 1.2932773,3.29535 2.0643779,4.86659 0.7494903,1.79989 1.2422678,3.73079 1.8013414,5.62782 0.3149281,1.84872 0.3398068,3.75731 0.6898533,5.60393 0.2267843,1.8635 0.0836,3.75335 0.1229832,5.63331 0.00168,1.85291 0.00474,3.70583 0.010858,5.55874 0.00495,1.90641 0.018125,3.81391 -0.043663,5.71928 -0.100345,2.19525 -0.2898082,4.39374 -0.892476,6.48083 -0.5923218,1.93031 -1.430195,3.73449 -2.1099526,5.62085 -0.6507678,1.94574 -1.3708563,3.87083 -2.4468097,5.52813 -0.597249,1.91391 -1.4393672,3.70006 -2.1568356,5.54937 -0.5198531,1.47776 -1.0988735,2.934 -1.72173815,4.34581 -0.84489304,1.19959 -1.13227713,2.83498 -2.11466475,3.90957 -1.2197306,1.13925 -2.1532645,2.5367 -3.1987102,3.89791 -0.5652007,0.51004 -1.0547708,1.31427 -1.6469624,1.7502 -7.7208619,5.68362 -18.3378809,12.99675 -1.162607,0.88697 0.2133949,-0.15046 -0.413624,0.32733 -0.6204365,0.491 -5.3630244,3.75564 -8.8559084,7.37496 -14.4331754,8.61466 -1.951174,0.36853 -3.921035,0.64906 -5.898739,0.57509 -1.602116,-3.2e-4 -3.204232,-9.9e-4 -4.806347,-0.003 -1.964732,-0.003 -3.929493,-10e-4 -5.894194,-0.013 -1.816786,-0.0206 -3.639527,-0.0212 -5.445651,-0.29512 -1.455811,-0.24616 -2.875712,-0.7101 -4.340487,-0.87179 -1.578229,-0.29549 -3.099102,-0.82301 -4.610166,-1.45072 -1.552635,-0.53219 -3.109668,-1.05163 -4.641276,-1.6689 -1.329279,-0.45766 -2.691292,-0.6566 -4.021158,-1.10355 -1.297616,-0.53618 -2.616535,-0.99035 -3.888871,-1.61114 -1.197633,-0.57532 -2.395699,-1.19447 -3.500752,-2.00343 -1.151185,-1.0071 -2.42195,-1.91307 -3.323044,-3.26591 -0.653509,-1.16528 -1.31853,-2.33022 -1.827892,-3.60194 -0.377684,-1.41751 -0.562692,-2.88367 -1.021844,-4.26834 -0.448816,-1.41823 -0.768725,-2.93339 -1.067516,-4.40383 -0.290457,-1.75255 -0.510201,-3.47008 -0.387827,-5.27031 -0.0015,-1.85634 -0.0046,-3.71267 -0.0073,-5.56903 -5.28e-4,-1.87089 -0.0061,-3.74304 0.0691,-5.61222 0.09752,-1.83691 0.251814,-3.67908 0.733788,-5.43443 0.408317,-1.44017 0.65502,-2.9706 1.008994,-4.42338 0.28594,-1.45114 0.869033,-2.68358 1.369148,-4.02846 0.353441,-0.63297 0.510438,-1.34297 0.874326,-1.96655 0.634386,-1.08709 0.130337,-0.0687 0.843193,-1.01737 0.139617,-0.18582 0.238923,-0.41166 0.358385,-0.61749 0.500907,-1.41062 1.103689,-2.65606 1.976381,-3.75601 1.559082,-1.77557 -0.737202,0.89496 0.856112,-1.15996 0.63446,-0.81828 1.611432,-1.12658 2.091046,-2.1576 0.427186,-0.59454 0.824779,-0.98454 1.382946,-1.38203 3.24821,-2.31321 7.253272,-5.70991 11.132332,-7.77225 3.437501,-2.34251 3.217225,-2.19794 -8.594877,6.15843 -0.173454,0.12273 0.323492,-0.29085 0.495935,-0.41569 3.42976,-2.48303 7.429254,-6.03006 11.484576,-8.0107 2.025516,-0.8652 4.10255,-1.54528 6.130653,-2.40271 0,0 -8.921581,8.35739 -8.921581,8.35739 z"
       inkscape:connector-curvature="0" />
    <path
       style="fill:#41e0fd;fill-opacity:1;stroke:none;stroke-width:1.66235;stroke-miterlimit:4;stroke-dasharray:none;stroke-opacity:1"
       id="path829"
       d="m 46.503095,185.191 c -2.07124,0.80284 -3.981384,2.07007 -5.988752,3.07073 -1.887636,1.10798 -3.806113,2.16632 -5.666836,3.35265 0.63064,-0.33673 -2.218946,1.56737 -1.664921,1.17404 2.922762,-2.07516 11.730387,-8.2165 8.784121,-6.19185 -3.477475,2.38973 -6.920017,4.85495 -10.377869,7.28705 -0.257,0.18077 -1.023675,0.73217 -0.766634,0.55148 2.93893,-2.06588 5.874902,-4.13806 8.812344,-6.20711 -1.293126,0.87565 -2.446397,1.99718 -3.626507,3.07249 -1.028461,0.61033 -1.600934,1.70193 -2.139944,2.88222 -0.449383,1.35543 -0.791295,2.76717 -1.343825,4.06664 -0.674504,1.28472 -1.433743,2.45287 -1.951091,3.84905 -0.518655,1.26096 -1.151846,2.40988 -1.575508,3.72703 -0.584612,1.38987 -1.070127,2.83756 -1.638635,4.2358 -0.494719,1.35924 -0.811294,2.78851 -1.432817,4.07679 -0.521832,1.22788 -0.995875,2.51159 -1.355882,3.8267 -0.257258,1.48554 -0.689692,2.90462 -0.927979,4.39509 -0.21381,1.76805 -0.199279,3.55057 -0.431924,5.31585 -0.298059,1.80975 -0.442919,3.64444 -0.523549,5.48537 -0.06313,1.84537 -0.06123,3.69283 -0.06249,5.53947 7.95e-4,1.85443 0.0031,3.70885 0.0042,5.56328 0.0011,1.85466 0.0011,3.7093 0.0012,5.56397 -0.111873,1.85126 0.18822,3.65612 0.416952,5.47341 0.02294,1.89633 0.553259,3.46707 1.318445,5.07099 0.743716,1.55291 1.815539,2.78351 2.92214,3.94209 1.263106,1.02742 2.830789,1.25043 4.267738,1.77355 1.676827,0.97886 3.484808,1.4774 5.238849,2.18239 1.51159,0.60958 2.88321,1.52807 4.457675,1.90154 1.589513,0.262 3.200192,0.24684 4.801148,0.2537 1.579153,-0.002 3.158282,-0.0129 4.737435,-0.0182 1.516606,-0.004 3.033243,-0.004 4.549878,-0.006 1.450959,-0.12211 3.06691,-0.27341 4.43219,-0.94067 0.790968,-0.51368 1.710452,-0.46184 2.547776,-0.73075 0.387022,-0.12429 0.74363,-0.3631 1.122089,-0.52211 1.405953,-0.18963 2.626144,-0.77821 3.918068,-1.43107 1.529302,-0.56594 2.854047,-1.62297 4.371826,-2.21349 4.050043,-2.11183 10.739585,-7.14537 -6.063886,4.63174 1.099991,-0.77841 2.028831,-1.82015 2.965394,-2.85801 1.104212,-1.17383 1.987127,-2.50603 2.795265,-3.98775 0.802912,-1.4261 1.512045,-2.92094 2.259142,-4.38907 0.579092,-1.34047 1.023143,-2.77774 1.420208,-4.21475 0.543185,-1.76085 1.313756,-3.38413 1.838428,-5.15529 0.494498,-2.06538 0.926579,-4.15224 1.451147,-6.20654 0.547666,-1.9893 0.693578,-4.08138 0.78887,-6.16289 0.142928,-1.70718 0.481463,-3.37212 0.645398,-5.07725 0.141253,-1.77413 0.149757,-3.55849 0.160248,-5.33933 0.006,-1.85249 0.0027,-3.705 -1.13e-4,-5.55748 -0.277741,-2.39649 -0.454961,-4.79929 -0.5715,-7.2171 -0.03534,-2.4877 -0.171486,-4.94434 -0.486528,-7.40086 -0.264301,-1.84605 -0.559101,-3.71489 -1.000253,-5.512 -0.343418,-1.48922 -1.132924,-2.69379 -2.008667,-3.77432 -0.801113,-0.93217 -1.226118,-2.24998 -2.040026,-3.16768 -0.410075,-0.46235 -0.896965,-0.81071 -1.340042,-1.22483 -1.541057,-1.45997 -3.0925,-2.89277 -4.621132,-4.36964 -1.256883,-1.11282 -2.634622,-1.96277 -4.139917,-2.41895 -1.498853,-0.59435 -2.930842,-1.3727 -4.470524,-1.80472 -1.443597,-0.70389 -2.960208,-1.03087 -4.498933,-1.20217 -1.680116,-0.1351 -3.365315,-0.12374 -5.048211,-0.12212 -1.584214,0.006 -3.168428,0.0127 -4.752641,0.0161 -2.178665,0.0354 -4.365886,-0.17157 -6.533398,0.13489 -2.087675,0.16778 -4.104758,0.71941 -5.918421,2.0214 -8.13644,6.14923 32.027249,-23.08893 -2.050844,1.44386 -2.985169,2.14902 5.994632,-4.24718 9.006343,-6.33991 0.02976,-0.0207 -1.058692,0.88721 -1.06751,0.89457 -0.563744,0.59462 -0.309822,0.26994 -0.764434,0.97089 0,0 -10.276865,5.62151 -10.276865,5.62151 v 0 c 0.334627,-1.01168 0.131328,-0.53209 0.607443,-1.44038 0.55231,-0.66306 0.366856,-0.51929 1.044744,-1.00967 3.391448,-2.45325 6.889077,-4.6962 10.184947,-7.33776 2.878208,-2.30682 -11.928895,8.39639 -8.930391,6.33228 12.809039,-8.81757 6.589575,-5.02691 11.007487,-7.70309 1.973882,-0.96111 4.011662,-1.46688 6.138456,-1.58161 2.209979,-0.12223 4.423189,-0.0446 6.634893,-0.0935 1.581479,-0.002 3.162967,-0.008 4.744456,-9.9e-4 1.711931,0.014 3.429976,0.0101 5.133695,0.23788 1.566362,0.2704 3.083943,0.75342 4.585849,1.36091 1.518545,0.54018 2.974113,1.30183 4.494316,1.83881 1.571177,0.65432 3.040693,1.61343 4.347776,2.87401 1.532363,1.46846 3.067753,2.92497 4.625233,4.35322 1.45205,1.39074 2.378887,2.7792 3.490227,4.55103 0.961998,1.27147 1.88548,2.61885 2.27234,4.32316 0.480482,1.85006 0.755626,3.80559 1.054452,5.70747 0.309066,2.51147 0.508866,5.00668 0.479905,7.55299 0.109306,2.43141 0.295309,4.84646 0.67234,7.23982 0.0027,1.85482 0.0051,3.70963 0.0043,5.56443 -0.0043,1.81772 -0.0051,3.63739 -0.10402,5.45193 -0.11776,1.7009 -0.342566,3.37517 -0.693483,5.02891 -0.07817,2.17212 -0.176491,4.37258 -0.662218,6.47489 -0.527828,2.06115 -1.04304,4.12748 -1.457372,6.22811 -0.437988,1.83414 -1.092863,3.51043 -1.776277,5.2059 -0.524275,1.42905 -0.823633,2.96908 -1.33742,4.40989 -0.698084,1.54009 -1.494846,2.99314 -2.255906,4.48559 -0.836405,1.48164 -1.461956,3.12391 -2.707215,4.18397 -0.804949,1.20198 -1.811926,2.26237 -2.854408,3.13505 -4.446689,3.16591 -8.510937,6.6581 -13.259345,8.86387 -1.449292,0.75637 -2.857256,1.63316 -4.356135,2.24783 -1.300032,0.62556 -2.662913,0.85389 -3.989043,1.37537 -1.216134,0.45071 -2.487981,0.6621 -3.685599,1.20635 -1.522276,0.33863 -3.051043,0.70847 -4.606885,0.62568 -1.515678,9.8e-4 -3.031357,0.002 -4.547037,0.007 -1.578703,0.004 -3.157459,0.0148 -4.73611,-0.003 -1.659157,-0.0331 -3.34002,-0.037 -4.965814,-0.49029 -1.534059,-0.53044 -2.928514,-1.46412 -4.456175,-2.01744 -1.775949,-0.64946 -3.540825,-1.31599 -5.271715,-2.13432 -1.566962,-0.58147 -3.249119,-0.89755 -4.525948,-2.26006 -1.185943,-1.27156 -2.295431,-2.67225 -3.115169,-4.33346 -0.815807,-1.73831 -1.510547,-3.47471 -1.518166,-5.52817 -0.222097,-1.88043 -0.608555,-3.73977 -0.494905,-5.65378 -5.2e-5,-1.85438 -9.9e-5,-3.70877 -7.95e-4,-5.56315 -0.0012,-1.8548 -0.0028,-3.70961 -0.0047,-5.56441 -5.3e-4,-1.86537 -0.0048,-3.7312 0.03946,-5.59597 0.05991,-1.89071 0.160199,-3.78321 0.460022,-5.6435 0.274491,-1.75799 0.330435,-3.50571 0.42286,-5.29161 0.170223,-1.56141 0.570363,-3.0106 0.869667,-4.52271 0.265321,-1.4665 0.814882,-2.74785 1.223988,-4.15097 0.609578,-1.28289 1.236537,-2.48962 1.479941,-3.98539 0.546909,-1.40953 1.079396,-2.81186 1.632872,-4.21938 0.306033,-0.65317 0.402051,-1.33958 0.677249,-2.00929 0.605294,-1.47305 -0.03597,0.23054 0.633118,-1.09363 0.106197,-0.21016 0.168033,-0.44946 0.252049,-0.67419 0.336481,-0.68378 0.477958,-1.42439 0.808553,-2.11109 0.584588,-1.21427 0.113451,-0.087 0.775684,-1.17033 0.128803,-0.21067 0.219064,-0.45289 0.328595,-0.67932 0.727238,-1.11778 1.078088,-2.51635 1.408927,-3.86977 0.356249,-1.25448 1.034125,-2.82846 1.882133,-3.65883 1.345654,-0.79967 2.311593,-2.28413 3.67708,-3.069 3.448437,-2.46626 6.893341,-4.93996 10.345297,-7.39878 8.481929,-6.04166 -32.3051725,22.8408 2.364956,-1.6241 0.749774,-0.52906 0.910842,-0.6229 1.685916,-1.12665 1.893506,-1.10934 3.764495,-2.28269 5.700919,-3.2765 2.011182,-1.08459 4.002284,-2.25132 6.13639,-2.94096 0,0 -8.921589,8.35738 -8.921589,8.35738 z"
       inkscape:connector-curvature="0" />
    <path
       style="fill:#41e0fd;fill-opacity:1;stroke:none;stroke-width:1.66235;stroke-miterlimit:4;stroke-dasharray:none;stroke-opacity:1"
       id="path831"
       d="m -42.346538,285.04122 c 0.510114,2.83672 0.91508,5.69618 1.179153,8.58253 0.317861,1.77221 0.503075,3.60014 1.048726,5.29393 0.514355,1.90183 1.632114,3.31999 2.674249,4.80078 0.977227,1.36555 1.660925,2.94815 2.42631,4.48756 0.768887,1.48976 1.08413,3.2339 1.822516,4.74027 0.582766,1.29521 1.218771,2.5384 1.616722,3.94112 0.338299,1.50111 0.759532,2.95224 0.983993,4.49014 0.037,1.70053 0.797932,3.01265 1.525722,4.38713 0.63048,1.39861 1.504531,2.68155 2.663524,3.44615 0.890818,0.86277 1.90384,1.49166 2.824644,2.28912 1.068354,0.7435 2.196477,1.30467 3.397689,1.62994 1.352222,0.56555 2.731819,1.15064 3.975256,2.02244 1.519439,0.54542 2.903218,1.47893 4.371946,2.18298 1.23223,0.97708 2.3956725,1.8935 3.8360432,2.31953 1.2875098,0.67465 2.448681,1.51669 3.8351355,1.87976 1.3247471,0.0906 2.5590027,0.66883 3.86069732,0.93685 1.55046078,0.4406 3.15530368,0.67576 4.69928698,1.16779 1.5596502,0.54674 3.1668482,0.77156 4.7804865,0.88697 1.5109505,0.0795 3.0237795,0.0698 4.5357585,0.0677 1.801624,-0.006 3.603248,0.003 5.404869,0.0113 2.217522,0.002 4.435024,-0.004 6.652542,0.002 2.322125,-0.0113 4.644231,0.006 6.966349,0.003 2.14647,0.091 4.26106,-0.0282 6.35167,-0.64649 2.609369,-0.57719 5.196433,-1.25829 7.775177,-2.01381 2.356506,-0.78381 4.655045,-1.79226 6.804096,-3.21722 1.505525,-0.74349 2.936698,-1.62343 4.369169,-2.54131 -22.476723,15.79663 -0.868244,0.64062 1.113482,-0.88537 2.943879,-2.26691 -6.015405,4.27518 -9.03948,6.37765 -0.207246,0.14404 0.396982,-0.32371 0.586398,-0.50078 0.499848,-0.46727 0.582901,-0.60776 1.025872,-1.15492 0.933153,-1.11371 2.028749,-1.98957 2.986293,-3.06749 1.242179,-1.23533 2.39905,-2.59193 3.427895,-4.09285 0.86514,-1.4305 1.458266,-3.02488 2.003817,-4.66023 0.707731,-1.83 1.48489,-3.60933 2.300182,-5.3702 0.847239,-1.81528 1.785202,-3.56876 2.725134,-5.31475 0.686433,-1.56502 1.290952,-3.1838 1.943979,-4.77462 0.815817,-1.85485 1.362287,-3.84854 1.889263,-5.84508 0.444058,-1.61647 1.13264,-3.09035 1.61394,-4.68911 0.510733,-1.7544 0.983321,-3.52045 1.558356,-5.24637 0.618743,-2.21426 1.617973,-4.20975 2.403051,-6.33077 0.736898,-1.75881 1.140559,-3.63896 1.505062,-5.54877 0.314509,-1.42264 0.838406,-2.7765 1.439538,-4.05006 0,0 10.281228,-5.63159 10.281228,-5.63159 v 0 c -0.544303,1.24498 -1.193932,2.43815 -1.566854,3.77993 -0.542608,1.87639 -0.60206,3.96208 -1.480057,5.70975 -0.693475,2.17832 -1.789655,4.08117 -2.396788,6.30112 -0.553633,1.72819 -1.152805,3.42835 -1.544032,5.22729 -0.260131,0.76501 -0.412896,1.56816 -0.699916,2.31882 -0.208682,0.54582 -0.414151,0.91926 -0.672553,1.43106 -0.11537,0.29586 -0.185605,0.61514 -0.278394,0.9227 -0.656955,1.97679 -0.989772,4.10864 -1.823844,6.00816 -0.702314,1.58818 -1.351738,3.20078 -1.892944,4.87593 -0.893913,1.78211 -1.921966,3.46266 -2.759479,5.27867 -0.847074,1.71127 -1.634068,3.45665 -2.311808,5.27693 -0.396078,0.78651 -0.498737,1.55755 -0.807923,2.39148 -0.437885,1.18105 -0.221049,0.41298 -0.749108,1.55103 -0.142397,0.30685 -0.255651,0.63267 -0.383499,0.94901 -0.900533,1.65777 -2.064987,3.07162 -3.300943,4.35657 -1.010683,0.99122 -1.910485,2.15127 -3.019882,2.99342 -1.802219,2.06242 0.840187,-1.01353 -0.983675,1.29452 -2.899371,3.66915 -7.164452,5.22368 -10.717466,7.89446 -1.344171,1.01039 27.486911,-19.70975 -1.135918,0.84855 -1.413343,0.92218 -2.930374,1.57295 -4.350231,2.48154 -2.222244,1.24359 -4.5335,2.22314 -6.911401,2.92039 -2.598597,0.74271 -5.216017,1.3663 -7.832024,2.00885 -2.146707,0.42721 -4.295299,0.50806 -6.468471,0.41508 -2.324934,-0.002 -4.649863,0.0145 -6.974797,0.003 -2.220386,0.007 -4.440753,1.1e-4 -6.661138,0.006 -1.8166929,0.0101 -3.6333544,0.0272 -5.4500661,0.0269 -1.5282467,-0.006 -3.0585546,-0.008 -4.58314334,-0.15469 -1.64406526,-0.19202 -3.26567146,-0.54077 -4.86227556,-1.06543 -1.5685174,-0.377 -3.1383877,-0.74424 -4.7094017,-1.10436 -1.2991313,-0.3505 -2.5856223,-0.74866 -3.8985613,-1.01598 -1.336952,-0.51027 -2.51763,-1.40714 -3.850933,-1.91775 -1.400148,-0.59923 -2.589773,-1.59581 -3.887364,-2.4486 -1.476503,-0.78984 -2.960425,-1.52711 -4.45256,-2.2646 -1.237096,-0.70716 -2.492735,-1.37511 -3.822961,-1.77581 -1.26917,-0.47119 -2.503666,-1.10635 -3.623095,-1.98595 -0.95917,-0.71447 -1.872377,-1.5035 -2.802863,-2.27288 -1.195006,-1.03968 -2.192686,-2.37993 -2.891225,-3.9664 -0.807827,-1.50045 -1.718381,-3.00801 -1.771187,-4.87345 -0.183228,-1.48117 -0.590797,-2.85837 -0.908743,-4.2953 -0.338871,-1.3257 -0.975473,-2.4664 -1.49815,-3.69012 -0.714144,-1.51747 -1.061505,-3.22159 -1.791218,-4.72779 -0.74635,-1.46546 -1.393372,-2.99404 -2.322837,-4.31022 -1.115792,-1.59143 -2.290155,-3.15022 -2.865647,-5.172 -0.632122,-1.8094 -0.841405,-3.75219 -1.163594,-5.67247 -0.204158,-2.82416 -0.524396,-5.64197 -1.145702,-8.37907 0,0 9.878932,-6.54472 9.878932,-6.54472 z"
       inkscape:connector-curvature="0" />
    <path
       style="fill:#41e0fd;fill-opacity:1;stroke:none;stroke-width:2.57779;stroke-miterlimit:4;stroke-dasharray:none;stroke-opacity:1"
       id="path833"
       d="m -82.392285,297.28459 c -2.618626,-0.48894 -5.250478,-1.20508 -7.910747,-1.14973 -1.623714,-0.55088 -3.308323,0.17004 -4.968134,0.27294 -1.288773,-0.19077 -2.605012,0.16321 -3.911879,0.28341 0.410868,-0.44208 -1.692485,0.0195 -1.263925,-0.0959 3.631383,-0.96961 7.262152,-1.91517 10.891435,-2.81101 0.221628,-0.0546 -0.445238,0.22518 -0.667088,0.28743 -4.074132,1.14346 -8.15022,2.34913 -12.219777,3.3295 -0.23102,0.0556 -0.44439,-0.15003 -0.6666,-0.22517 -0.90869,0.73375 -1.67678,-0.18175 -2.50949,-0.38917 -0.39299,-0.0978 -0.80556,0.0632 -1.20234,0.01 -1.21781,-0.22785 -2.47399,-0.0576 -3.70718,-0.28109 -1.43364,-0.91135 -2.8972,-1.55782 -4.32978,-2.48664 -1.47526,-1.06244 -2.83518,-2.78137 -4.1813,-4.52699 -1.32303,-1.74428 -2.88702,-2.16296 -4.35959,-2.99005 -1.589,-0.84622 -3.21822,-1.06878 -4.7587,-2.34183 -0.96713,-0.60773 -1.75302,-2.26159 -2.67647,-3.07944 -0.39513,-0.35042 -0.83376,-0.40185 -1.24943,-0.61268 -1.33938,-0.76251 -2.56046,-2.25164 -3.76722,-3.75701 -0.89343,-0.94353 -1.64717,-2.66717 -2.64239,-3.03723 -0.51272,-0.19053 -1.04797,-0.14296 -1.56856,-0.25391 -1.71708,-0.37021 -3.23009,-2.12908 -4.72806,-3.89282 -1.46317,-1.78395 -2.88628,-3.75503 -4.31085,-5.71612 -1.32441,-1.50212 -2.46584,-4.09555 -3.91736,-4.86799 -1.3346,-0.54996 -2.55347,-1.86263 -3.7483,-3.26034 -1.44926,-1.77601 -2.85544,-3.75347 -4.2704,-5.68715 -1.39227,-1.9071 -2.78376,-3.81773 -4.17533,-5.72788 -1.45966,-1.82849 -2.78943,-4.30321 -4.36302,-5.53642 -1.56614,-1.0576 -3.05892,-2.54758 -4.5127,-4.24358 -0.2273,-0.28084 -0.45476,-0.56106 -0.68208,-0.84192 0,0 11.69215,-6.65819 11.69215,-6.65819 v 0 c 0.2266,0.26008 0.4533,0.51973 0.68003,0.77915 1.467,1.56317 2.98718,2.80109 4.49372,4.1392 1.49827,1.78077 2.92545,3.89384 4.38496,5.85573 1.3866,1.90763 2.7713,3.82383 4.15887,5.72722 1.40957,1.9168 2.81909,3.84471 4.29514,5.44615 1.21786,1.23867 2.48729,2.11168 3.7512,3.06748 1.32809,1.64521 2.59975,3.54943 3.90479,5.30083 1.40959,1.93081 2.81978,3.86747 4.28997,5.51366 1.49775,1.58038 3.0443,2.81657 4.72804,3.08461 1.56473,0.58574 2.88062,2.34675 4.24007,4.14424 1.20977,1.36446 2.45185,2.54375 3.77285,3.23882 1.34486,1.02499 2.53066,2.94177 3.91081,3.77252 1.55576,0.90926 3.18908,1.12889 4.72788,2.18038 1.5346,0.75685 3.05606,1.71771 4.39428,3.64947 1.33247,1.6172 2.69225,3.13357 4.1695,3.91551 1.43169,0.75468 2.83653,1.81195 4.333704,1.96311 1.246925,0.0305 2.493927,0.0371 3.72268,0.29721 1.232873,0.14394 2.436319,0.61092 3.700417,0.34545 4.221185,-0.68855 1.753346,-0.31191 -10.231551,2.9487 -0.22148,0.0602 0.44449,-0.21152 0.66604,-0.27455 5.011808,-1.42375 8.995199,-3.32916 13.495515,-3.42352 1.303406,-0.24467 2.591224,-0.0971 3.891868,-0.26123 1.654506,-0.33618 3.274513,-0.21005 4.897452,-0.007 2.663125,0.37384 5.331501,0.68589 7.978934,1.24772 0,0 -11.671893,7.63578 -11.671893,7.63578 z"
       inkscape:connector-curvature="0" />
    <path
       style="fill:#41e0fd;fill-opacity:1;stroke:none;stroke-width:1.66235;stroke-miterlimit:4;stroke-dasharray:none;stroke-opacity:1"
       id="path835"
       d="m 110.69871,280.83952 c 1.42429,1.94469 2.81049,3.92878 4.36913,5.71597 1.2935,1.49553 2.52081,3.08373 3.72004,4.69531 1.24101,1.74399 2.38828,3.48156 3.11565,5.6323 0.41484,1.39312 0.98835,2.51175 1.94478,3.41903 0.90738,1.15394 1.81135,2.30587 2.8198,3.3281 1.19144,0.75119 2.14969,1.89713 3.19011,2.90282 0.92902,1.28243 2.01982,2.30918 3.09273,3.38861 1.15092,0.88567 2.14499,2.02282 3.04791,3.25874 0.98792,1.12784 1.85486,2.39591 2.87778,3.48026 1.21888,0.9919 2.51828,1.83726 3.65866,2.96295 1.21139,0.98228 2.44081,1.90196 3.50954,3.12117 1.07962,0.96081 2.06403,2.05876 3.12416,3.04755 1.10074,0.80385 1.63994,2.40055 2.70508,3.19578 1.11971,1.06832 2.43745,1.72993 3.56075,2.78947 1.20078,1.01512 2.35004,2.10961 3.59629,3.04121 1.3692,1.21121 2.88349,2.17026 4.35547,3.18475 1.72463,1.01529 3.40811,2.04054 4.9454,3.44953 1.33665,1.73151 2.81314,3.18054 4.44926,4.45115 1.60484,1.09103 3.39399,1.58216 5.13744,2.21582 1.84844,0.66786 3.70552,1.33632 5.47319,2.28539 1.56756,1.01967 3.00665,2.30788 4.50849,3.46404 1.01792,0.95871 2.06603,1.76126 3.00942,2.84386 0.18077,0.17027 0.36157,0.34052 0.54235,0.51079 0,0 -9.51153,7.3268 -9.51153,7.3268 v 0 c -0.19453,-0.19403 -0.38909,-0.38805 -0.58365,-0.58209 -0.92267,-0.97672 -1.96127,-1.73411 -2.91423,-2.66392 -1.41124,-1.16684 -2.80689,-2.40878 -4.3572,-3.2801 -1.76387,-0.8372 -3.57593,-1.52706 -5.39425,-2.16251 -1.84383,-0.61879 -3.69643,-1.29738 -5.33558,-2.53978 -1.63014,-1.30908 -3.06319,-2.87636 -4.47213,-4.52289 -1.54188,-1.3261 -3.25286,-2.22818 -4.91117,-3.30805 -1.46238,-1.06521 -2.98731,-2.00718 -4.37428,-3.22047 -1.25465,-0.96906 -2.42972,-2.08377 -3.64621,-3.12274 -1.16909,-0.97558 -2.48065,-1.68283 -3.58174,-2.78783 -0.96935,-0.99833 -1.65459,-2.33881 -2.713,-3.23635 -1.05318,-1.04746 -2.12378,-2.06185 -3.16972,-3.11941 -1.07948,-1.14289 -2.30231,-2.01084 -3.44629,-3.04635 -1.20379,-1.08006 -2.54969,-1.90425 -3.72309,-3.04016 -1.00863,-1.16036 -1.94211,-2.40803 -2.93052,-3.59298 -0.89249,-1.16361 -1.87994,-2.18809 -2.96014,-3.08375 -1.08882,-1.06051 -2.10506,-2.20048 -3.10302,-3.38813 -1.02296,-1.0552 -2.07338,-2.05046 -3.19761,-2.94017 -0.97455,-1.06613 -1.90262,-2.18849 -2.83531,-3.30834 -1.01074,-1.13772 -1.74031,-2.41399 -2.18473,-4.02142 -0.62959,-2.02557 -1.74558,-3.59077 -2.89289,-5.21391 -1.19464,-1.58269 -2.42312,-3.13013 -3.68852,-4.62634 -1.53339,-1.88699 -2.94023,-3.9163 -4.46093,-5.81739 0,0 9.63431,-7.08632 9.63431,-7.08632 z"
       inkscape:connector-curvature="0" />
    <path
       style="fill:#41e0fd;fill-opacity:1;stroke:none;stroke-width:1.66235;stroke-miterlimit:4;stroke-dasharray:none;stroke-opacity:1"
       id="path837"
       d="m -14.526009,363.26312 c -0.226363,3.39524 -0.711739,6.71847 -1.466174,9.99484 -0.633704,2.71582 -1.225994,5.44113 -1.984379,8.10997 -0.461338,1.76178 -0.79895,3.56254 -1.517854,5.20173 -0.600157,1.39491 -1.038768,2.89835 -1.369607,4.4203 -0.348338,1.92853 -0.670034,3.8606 -0.990896,5.79601 -0.362359,1.80827 -0.992716,3.49866 -1.345299,5.31103 -0.298603,1.89041 -0.259217,3.8103 -0.590568,5.69329 -0.475007,2.20722 -1.335602,4.2405 -2.233702,6.22591 -1.109139,2.21896 -1.559282,4.75766 -2.085414,7.24316 -0.474655,2.40019 -1.219136,4.69338 -1.925752,6.99949 -0.71638,2.22817 -1.553861,4.39135 -2.509251,6.47958 -0.990183,1.86938 -2.125178,3.6161 -2.962996,5.59956 -0.810372,2.1337 -1.476017,4.34282 -2.210944,6.51577 -0.760921,2.2954 -1.590969,4.54699 -2.089975,6.95362 -0.464906,2.48388 -1.198601,4.86839 -2.045066,7.18989 -0.874978,2.18663 -1.687885,4.41171 -2.57651,6.59012 -0.676207,1.5211 -0.896866,3.19388 -1.011558,4.89482 -0.169942,1.5952 -0.497001,3.14941 -0.652434,4.74928 -0.0394,0.30784 -0.0788,0.61568 -0.118215,0.92354 0,0 -10.108936,6.00764 -10.108936,6.00764 v 0 c 0.05372,-0.26746 0.107451,-0.53495 0.161182,-0.80241 0.10736,-1.59515 0.290915,-3.17461 0.67537,-4.70987 0.07343,-1.83986 0.195872,-3.69595 0.831612,-5.39512 0.885803,-2.18157 1.762971,-4.36387 2.628907,-6.55989 0.834951,-2.25347 1.661957,-4.50756 2.114454,-6.93271 0.429794,-2.50947 1.23921,-4.827 2.04875,-7.18195 0.736044,-2.16816 1.3626,-4.39488 2.169503,-6.52097 0.650921,-2.16129 1.824266,-3.94242 2.904404,-5.80768 1.136456,-1.87456 1.750959,-4.12955 2.610904,-6.20231 0.665062,-2.28868 1.46295,-4.51729 1.983528,-6.86628 0.487127,-2.5768 0.959857,-5.21927 1.964733,-7.57806 0.868476,-1.90429 1.776515,-3.82819 2.303866,-5.91793 0.544486,-1.80856 0.372598,-3.71008 0.614739,-5.59649 0.273968,-1.86722 0.812882,-3.59187 1.337532,-5.36451 0.455287,-1.8755 0.586538,-3.8721 0.98442,-5.76781 0.266177,-1.64248 0.721453,-3.20254 1.220173,-4.7559 0.194493,-0.42131 0.449915,-0.79923 0.629916,-1.23011 0.499773,-1.1964 0.673359,-2.53862 1.023488,-3.79944 0.778952,-2.66072 1.47507,-5.34137 2.061468,-8.07667 0.806355,-3.17167 1.419714,-6.38985 1.474734,-9.72974 0,0 10.051847,-6.1037 10.051847,-6.1037 z"
       inkscape:connector-curvature="0" />
    <path
       style="fill:#41e0fd;fill-opacity:1;stroke:none;stroke-width:1.66235;stroke-miterlimit:4;stroke-dasharray:none;stroke-opacity:1"
       id="path839"
       d="m 37.236252,367.2916 c 1.16979,2.81311 2.2998,5.73913 3.87392,8.25737 1.28067,1.91461 2.672048,3.69538 3.89147,5.67494 0.992543,1.7136 1.594546,3.6798 2.209236,5.62202 0.571616,1.81872 0.874895,3.73361 1.415037,5.56583 0.746806,1.92484 1.487915,3.85336 2.204469,5.79568 0.784583,1.92215 1.660718,3.77728 2.608709,5.5856 0.887979,1.77681 1.806817,3.5303 2.422121,5.47813 0.955084,1.93394 1.596639,4.02566 2.000721,6.22207 0.332128,2.14812 1.036204,4.15078 1.389288,6.30354 0.602268,2.22935 1.113741,4.51888 2.011419,6.60424 0.908409,1.95739 0.92589,4.23483 1.837954,6.17273 1.278604,2.2636 2.61035,4.4892 4.029123,6.62552 1.407964,1.77657 2.540543,3.82279 3.790238,5.75434 1.059552,1.91422 2.036785,3.80799 3.460022,5.35499 1.734322,1.41932 3.743333,2.21074 5.429803,3.69867 1.496867,1.70557 3.340841,2.61276 5.145468,3.69389 1.548614,0.97961 2.837407,2.27411 3.918935,3.93695 0.944337,1.16056 1.497995,2.71805 1.980223,4.22768 0.522179,1.94718 0.966391,3.88603 2.163668,5.37692 0.631942,0.79146 1.134619,1.67167 1.868051,2.32869 0,0 -9.533631,7.32025 -9.533631,7.32025 v 0 c -0.708549,-0.77088 -1.28483,-1.66399 -1.925251,-2.51665 -1.206597,-1.69798 -1.843483,-3.68748 -2.39783,-5.8132 -0.422252,-1.39717 -0.951076,-2.77454 -1.808358,-3.85023 -0.991173,-1.48793 -2.174322,-2.6233 -3.592433,-3.46622 -1.863914,-1.07525 -3.673915,-2.18518 -5.238841,-3.86357 -1.790669,-1.39138 -3.848265,-2.23439 -5.528887,-3.86138 -1.413098,-1.65061 -2.489914,-3.54642 -3.553454,-5.53853 -1.241304,-1.93207 -2.375449,-3.96736 -3.767307,-5.75314 -1.443383,-2.20188 -2.785376,-4.50114 -4.12444,-6.79816 -0.191537,-0.3989 -0.413163,-0.77829 -0.574631,-1.19669 -0.615621,-1.59544 -0.501574,-3.50472 -1.320913,-5.01726 -0.917147,-2.22092 -1.449396,-4.62866 -2.139059,-6.96269 -0.331864,-2.15694 -1.061821,-4.13816 -1.404017,-6.2721 -0.338141,-2.15328 -0.957574,-4.16789 -1.911335,-6.03491 -0.571984,-1.86951 -1.486512,-3.52381 -2.311414,-5.23708 -0.961391,-1.87458 -1.887361,-3.76778 -2.67356,-5.76314 -0.727493,-1.96933 -1.506036,-3.91029 -2.264785,-5.86161 -0.567373,-1.81621 -0.874417,-3.71574 -1.405557,-5.54487 -0.589731,-1.81984 -1.105912,-3.69467 -2.041318,-5.30872 -1.217899,-1.97805 -2.618515,-3.7541 -3.850978,-5.71423 -1.551228,-2.61759 -2.682441,-5.56401 -4.013017,-8.34996 0,0 9.731141,-6.87571 9.731141,-6.87571 z"
       inkscape:connector-curvature="0" />
    <path
       style="fill:#41e0fd;fill-opacity:1;stroke:none;stroke-width:1.66235;stroke-miterlimit:4;stroke-dasharray:none;stroke-opacity:1"
       id="path841"
       d="m -100.1575,260.91777 c -0.0743,-3.31033 -0.83704,-6.52401 -1.40721,-9.74267 -0.54246,-3.09543 -0.69522,-6.25403 -0.80052,-9.40792 -0.23304,-2.7963 -0.48943,-5.58677 -0.64903,-8.39198 -0.13572,-2.34441 -0.14587,-4.69466 -0.1594,-7.0436 -0.0239,-2.44155 -0.0347,-4.86633 0.19776,-7.29308 0.26408,-2.36689 0.33924,-4.75412 0.67742,-7.10765 0.42961,-2.27857 0.46048,-4.61929 0.65939,-6.9334 0.31159,-2.67276 0.80975,-5.29883 1.10921,-7.97461 0.25289,-3.30711 0.48593,-6.61756 0.909187,-9.90046 0.493167,-2.73236 1.212434,-5.39106 1.809008,-8.08962 0.449507,-2.46825 0.707668,-4.9858 1.013621,-7.48699 0.16875,-3.12716 0.879849,-6.12534 1.515487,-9.14073 0.727453,-3.74353 1.271418,-7.53191 1.880613,-11.30522 0.365973,-2.61432 0.662423,-5.2345 1.082514,-7.8372 0.234781,-2.04747 0.629118,-4.05763 0.903322,-6.09647 0.133442,-1.81219 0.587116,-3.54816 0.845373,-5.33314 0.964324,-5.95683 2.226645,-4.02898 10.679777,-7.51588 0.08313,-0.0344 0.154484,1.17027 0.242754,2.42919 0.27772,3.14505 0.546232,6.28749 0.681662,9.44731 0.09233,3.10717 0.201742,6.22276 0.07071,9.32974 -0.174356,2.63569 -0.535382,5.25788 -0.507515,7.90656 0.150159,2.16914 0.391571,4.32436 0.493175,6.49865 0.09381,2.48304 0.08507,4.96979 0.09698,7.45487 -0.190356,3.05655 -0.466976,6.10172 -0.622303,9.16224 -0.02895,2.712 -0.171617,5.39965 -0.454377,8.08857 -0.238076,2.22343 -0.340872,4.46225 -0.395072,6.70214 0.277949,4.75345 0.21765,1.8997 -9.948124,5.42941 -0.432963,0.15035 0.14275,-1.08866 0.217645,-1.63228 0.300271,-2.17951 0.566574,-4.36315 0.84224,-6.54772 0.7316,-5.17995 0.978183,-10.42489 1.121973,-15.67004 0.163781,-4.71389 0.01201,-9.43487 0.161331,-14.14774 0.06957,-3.3122 0.606616,-6.55762 0.979623,-9.82735 0.452182,-3.45427 1.492038,-6.74767 2.288018,-10.10032 0.815218,-3.17011 1.828949,-6.25129 2.911244,-9.29598 0.790047,-2.0377 1.690635,-4.00238 2.483046,-6.04033 0.90714,-2.36532 2.029318,-4.58479 2.972902,-6.92816 0.964466,-2.4665 1.84507,-4.99006 2.924347,-7.38557 0.96344,-1.76596 1.714613,-3.65614 2.212129,-5.68822 1.411659,-5.871859 1.898,-4.127453 10.952201,-7.279442 0.404462,-0.140798 0.209961,0.998341 0.288446,1.504396 0.09009,0.580835 0.144561,1.169104 0.216843,1.75365 0.593581,5.169416 1.26085,10.328376 1.988843,15.472256 0.658058,5.37288 1.182593,10.77108 1.712691,16.16555 0.295207,4.57324 0.600752,9.13527 1.178796,13.66974 0.62937,3.67819 1.096187,7.39113 1.655281,11.085 0.452311,2.68716 0.665181,5.41149 0.75338,8.14866 0.0252,3.43281 0.02167,6.86565 0.03974,10.29853 0.0025,0.46575 -0.0119,0.93209 0.0075,1.39724 0.01186,0.28452 0.04279,0.56821 0.08606,0.84813 0.01874,0.12111 0.06184,0.46341 0.09909,0.34901 1.123449,-3.44946 -12.862269,9.58451 -9.191555,5.1266 1.171646,-3.15174 1.444485,-6.69805 1.840197,-10.09177 0.513222,-5.8696 1.045269,-11.73977 1.430645,-17.6248 0.452462,-5.09224 0.802476,-10.1937 0.987191,-15.31101 0.03659,-4.86071 0.600093,-9.67558 1.034536,-14.49733 0.379599,-4.50057 0.435646,-9.02408 0.77283,-13.52822 0.213074,-3.45268 0.459753,-6.89225 0.825013,-10.32585 0.185942,-2.435165 0.499915,-4.845645 0.935577,-7.231769 1.307213,-6.308797 0.794812,-3.851601 10.682974,-8.581199 0.202863,-0.09711 0.349239,1.254506 0.539383,2.665566 0.309928,4.80008 0.886031,9.570563 1.52375,14.319922 0.487756,4.00415 1.158566,7.96955 1.604324,11.98143 0.338253,3.47725 0.392512,6.98311 0.43118,10.48084 0.02337,2.77846 0.02819,5.55717 0.03653,8.33576 0.0048,1.95903 -0.06185,3.90956 0.180063,5.85043 0.326597,2.20553 0.431537,4.44047 0.687759,6.65859 0.513352,2.70401 0.875067,5.44296 1.364753,8.15248 0.09242,0.35016 0.161631,0.71081 0.277233,1.05048 0.06599,0.19391 0.120032,0.42714 0.264301,0.5407 0.06579,0.0518 0.148756,-0.31325 0.07868,-0.27073 -3.200275,1.94104 -6.27996,4.18172 -9.527324,6.00161 -0.307373,0.17228 0.445687,-0.63249 0.601988,-0.99962 0.235726,-0.55374 0.376515,-1.16074 0.564772,-1.74109 1.49945,-6.13326 2.316565,-12.50161 3.028826,-18.835 0.620686,-6.40591 1.518525,-12.73845 2.794467,-18.99359 0.893772,-4.453 2.325121,-8.71095 3.787827,-12.92114 1.146952,-2.71006 1.749806,-5.65941 2.480606,-8.554768 0.438699,-1.835308 0.732372,-3.715202 1.090704,-5.576176 1.092777,-7.273953 3.550015,-5.320477 11.33941,-9.819194 1.865438,5.51518 3.12353,11.321567 4.461261,17.055918 1.692829,7.81692 3.380033,15.6354 5.018258,23.4699 1.4410143,6.48923 2.7125746,13.03193 3.9745666,19.57617 0.9042416,4.42084 1.1851216,8.96704 1.6832159,13.4686 0.2656143,3.17973 0.5371502,6.34579 0.9237354,9.50741 0.8933668,5.37511 2.5766551,0.98177 -9.5994609,6.6988 -0.270716,0.12711 0.161327,-0.68245 0.231773,-1.02696 0.223354,-1.09237 0.42322,-2.19179 0.642127,-3.2855 1.040195,-4.86997 1.28537,-9.90241 1.474124,-14.90797 0.180653,-6.08493 0.162811,-12.17525 0.158864,-18.26318 -0.0104,-5.17959 -0.10459,-10.35398 0.14656,-15.52651 0.412869,-4.31834 1.3996188,-8.46894 2.8300076,-12.43357 1.2578953,-3.63788 3.2000832,-6.81399 4.9397161,-10.11194 2.64596049,-4.447514 9.3070172,-12.070335 11.8195381,-6.088697 1.0838902,2.580463 1.3541082,5.775092 1.8065852,8.572224 1.262301,8.099023 2.722459,16.141863 4.519325,24.087823 1.160389,5.34154 2.338076,10.67673 3.4255,16.04142 0.856779,4.1436 1.219619,8.40196 1.812046,12.60583 0.632931,3.32713 0.811661,6.73944 1.210992,10.10919 0.0032,0.0224 0.170742,1.68899 0.394529,1.90553 0.08128,0.0787 0.213534,-0.40683 0.120642,-0.35075 -3.190005,1.92588 -6.277317,4.1019 -9.478324,6.00018 -0.241903,0.14345 0.42482,-0.42625 0.559552,-0.71113 0.214398,-0.45332 0.312488,-0.97538 0.468732,-1.46306 1.035352,-5.29473 1.839199,-10.6461 2.616657,-16.0043 1.037114,-6.88891 1.320016,-13.89047 1.492679,-20.87724 0.149017,-5.90693 0.417879,-11.77794 1.184363,-17.61362 0.456436,-3.60177 0.743374,-7.20928 1.490371,-10.74272 0.545445,-2.40172 1.517966,-4.598127 2.100466,-6.984586 0.325099,-1.489652 0.823951,-2.905366 1.259688,-4.345599 3.465656,-1.750573 6.794547,-3.981401 10.396972,-5.251729 0.39863,-0.140565 0.221173,0.980554 0.30157,1.479086 0.115711,0.717523 0.164385,1.449989 0.28625,2.16599 0.511543,3.005479 1.283693,5.968295 1.962049,8.920291 1.592754,6.721647 3.028567,13.469507 3.882691,20.393487 0.684496,4.53741 1.102433,9.10153 1.269888,13.70793 0.08954,4.79934 0.04557,9.59324 0.334195,14.38297 0.09426,2.64304 0.463288,5.17446 1.539841,7.4722 0.815339,1.35289 1.338632,2.9241 2.171086,4.25974 3.75403,0.45319 1.278206,0.10185 -9.288848,5.90536 -0.33835,0.18585 0.538785,-0.64278 0.719105,-1.03969 0.964952,-2.12403 1.328059,-4.87018 1.83522,-7.18384 1.146435,-5.84129 1.852312,-11.79662 2.584837,-17.73233 0.725984,-5.35232 1.439515,-10.71189 2.477096,-15.98851 0.661847,-3.55425 1.759007,-6.93102 2.730808,-10.36271 1.015063,-3.23773 2.471771,-6.24277 3.891416,-9.23497 3.456745,-7.906353 2.39378,-7.447163 12.650931,-12.909482 0.445829,-0.23739 0.63127,0.905827 0.946897,1.358742 0.213894,0.608376 0.46509,1.199032 0.641685,1.825132 0.337193,1.195468 0.772531,3.631176 0.994775,4.813824 0.564991,3.006674 1.087883,6.017244 1.574359,9.044464 0.949279,7.69209 2.225313,15.31299 3.015567,23.0337 0.426043,5.45816 0.717928,10.92526 1.158014,16.38209 0.367367,3.5167 0.343893,7.02918 0.122947,10.55358 -0.597264,8.64402 1.466934,3.60979 -10.080102,10.25444 0.181864,-0.20686 0.39004,-0.38374 0.545654,-0.62056 1.91456,-2.91408 3.319962,-7.50781 4.607302,-10.8767 3.131264,-8.25971 6.511127,-16.37843 9.896441,-24.48597 3.477828,-7.94891 6.983783,-15.8757 10.246942,-23.96203 1.635937,-4.05537 3.386889,-8.038366 5.04433,-12.079971 1.853579,-4.64723 8.328062,-12.166093 10.939942,-7.109814 0.6139,1.188435 0.60394,2.793187 0.70318,4.129865 0.22252,4.921069 0.10068,9.85101 0.24595,14.77441 0.32201,5.86732 0.71533,11.73581 1.18252,17.58973 0.39383,5.38897 1.01818,10.7587 1.86267,16.06923 0.81161,3.881 1.82961,7.67744 2.48449,11.60806 0.66202,3.59831 1.61401,7.10887 2.4414,10.65622 0.64174,2.94088 0.92174,5.97363 1.05218,9.00621 0.17845,2.63391 0.002,5.24554 -0.24941,7.85984 -0.0917,2.07881 -0.51855,4.21541 -0.33433,6.30298 -1.40078,-5.17457 0.16539,-0.47579 -9.59886,5.30785 -0.30181,0.17879 0.3444,-0.70518 0.50085,-1.06841 0.83004,-1.92717 1.59398,-3.90599 2.36446,-5.86919 2.23759,-5.9972 4.22957,-12.1111 6.1534,-18.26671 1.7803,-5.49315 3.7255,-10.90362 5.69915,-16.29621 1.56291,-4.2901 3.10519,-8.5915 4.67258,-12.87898 1.84651,-4.94695 0.0433,-1.69355 10.50244,-6.28895 0.28685,-0.12601 -0.23606,0.68841 -0.35621,1.03151 -0.56815,1.62264 -0.40814,1.16601 -1.05513,2.86968 -1.11698,3.67293 -2.59016,7.12322 -4.09681,10.57079 -1.41169,3.50105 -2.81899,7.0052 -4.21369,10.51669 -1.48337,3.19842 -2.25374,6.72227 -3.11424,10.21182 -0.71291,3.35224 -1.6193,6.61519 -2.7633,9.78158 -1.11689,2.97688 -2.32197,5.90369 -3.54839,8.81482 -1.21628,2.6969 -2.09087,5.57765 -3.01451,8.43211 -0.91211,2.90184 -2.22607,5.57148 -3.42921,8.29787 -1.05714,2.23627 -1.80853,4.66011 -2.46144,7.11004 -0.48399,2.4459 -1.39581,4.71193 -2.05892,7.08483 -0.45989,2.57519 -1.03015,5.10545 -1.61966,7.64034 -0.50971,2.92737 -1.13426,5.82231 -1.631565,8.75261 -0.507611,2.84806 -0.498754,5.76925 -0.718884,8.65641 -0.378966,2.08859 -0.308945,4.16847 -0.186928,6.27876 0.0077,1.76673 0.20931,3.42597 0.802489,5.03296 0.492908,1.43216 1.307888,2.5975 1.810248,4.03484 0.52125,1.74627 0.59922,3.60967 0.65533,5.44871 0,0 -9.990862,6.28368 -9.990862,6.28368 v 0 c -0.03251,-1.67723 -0.05444,-3.38459 -0.473293,-4.99806 -0.475479,-1.43707 -1.355906,-2.54485 -1.802192,-3.99487 -0.646139,-1.75186 -0.974766,-3.53547 -0.958369,-5.47301 -0.150642,-2.19233 -0.304716,-4.36612 0.114468,-6.53815 0.35764,-2.90655 0.236276,-5.88569 0.720921,-8.77912 0.47737,-2.95068 1.117136,-5.85474 1.571531,-8.80973 0.525788,-2.5721 1.290839,-5.05922 1.605881,-7.6972 0.56476,-2.41102 1.530359,-4.63839 2.032563,-7.06325 0.605552,-2.533 1.368041,-5.05692 2.414546,-7.3646 1.154044,-2.73468 2.548602,-5.32549 3.486806,-8.1904 1.00555,-2.8369 1.72847,-5.82454 2.96127,-8.5446 1.27968,-2.87153 2.44797,-5.82029 3.60884,-8.76581 1.21279,-3.07805 2.12132,-6.29917 2.82676,-9.6065 0.8669,-3.5463 1.56346,-7.16686 3.06619,-10.42104 1.38456,-3.5376 2.82279,-7.0413 4.21332,-10.57557 1.48121,-3.42033 3.0625,-6.77693 4.06373,-10.47012 0.19404,-0.51356 0.82285,-2.15471 1.0155,-2.74623 0.10536,-0.32349 0.0285,-0.82089 0.27808,-0.98773 12.30156,-8.22394 12.38092,-9.89534 9.88814,-5.17172 -1.81095,4.18357 -3.18324,8.6443 -4.83286,12.92458 -2.00587,5.37086 -3.94627,10.77788 -5.7601,16.24979 -1.97382,6.13305 -3.93626,12.26692 -6.07681,18.3154 -1.69372,4.68312 -7.25572,21.8057 -13.24119,13.67661 -0.31446,-2.18518 0.26132,-4.49559 0.28696,-6.69347 0.26577,-2.54734 0.50382,-5.08062 0.33727,-7.65497 -0.0985,-2.94539 -0.27837,-5.89992 -0.89063,-8.76319 -0.79815,-3.59673 -1.72473,-7.14729 -2.49376,-10.75215 -0.567855,-3.96662 -1.57484,-7.77453 -2.389334,-11.66837 -0.821622,-5.36573 -1.450245,-10.77852 -1.849839,-16.21661 -0.469389,-5.87269 -0.848484,-11.76139 -1.233761,-17.64176 -0.187754,-4.8731 -0.06458,-9.7571 -0.348733,-14.626261 -0.585843,-7.027375 -2.159858,-1.918523 8.852047,-9.651734 0.21101,-0.148176 -0.29118,0.477312 -0.43675,0.715967 -1.84823,4.018319 -3.539237,8.146518 -5.334456,12.201048 -3.336172,8.09981 -6.903755,16.04838 -10.387783,24.05234 -3.345622,8.054 -6.742253,16.08882 -9.746855,24.34419 -0.984809,2.66626 -1.87444,5.41093 -2.900498,8.0522 -1.662076,4.27849 0.120091,-0.61478 -1.33693,2.83949 -0.137236,0.32536 -0.219535,0.6813 -0.329325,1.02197 -10.879977,6.47038 -11.119805,10.29924 -10.387068,0.96272 0.26571,-3.46493 0.382963,-6.91088 0.02812,-10.3801 -0.367813,-5.48558 -0.587401,-10.97816 -0.960992,-16.4625 -0.731334,-7.69285 -1.892686,-15.30028 -3.016941,-22.91907 -0.488859,-3.00077 -1.039706,-5.97198 -1.63291,-8.94434 -0.210317,-1.0539 -0.66982,-3.42847 -0.996728,-4.52489 -0.136909,-0.459113 -0.341723,-0.883418 -0.512564,-1.325144 -3.621175,-0.911528 -0.98192,-0.17915 8.648774,-6.738792 0.324973,-0.221346 -0.477516,0.70228 -0.673981,1.089055 -0.722194,1.421803 -1.144393,3.047931 -1.844843,4.484822 -1.452549,2.891199 -2.815979,5.868999 -3.962731,8.958639 -0.941498,3.44957 -2.178982,6.76592 -2.868167,10.32098 -1.130334,5.23529 -1.872478,10.57519 -2.599729,15.91475 -0.732527,5.97215 -1.466909,11.95493 -2.528993,17.85456 -0.929071,4.55102 -3.964828,25.06831 -12.842927,15.13564 -0.821292,-1.41404 -1.396223,-3.00427 -2.215734,-4.42118 -1.132199,-2.51424 -1.58796,-5.2143 -1.635878,-8.0934 -0.274534,-4.80514 -0.205443,-9.61199 -0.332171,-14.42519 -0.169598,-4.5745 -0.532382,-9.1253 -1.138208,-13.64681 -0.740154,-6.89225 -2.070709,-13.62576 -3.747883,-20.26695 -0.722923,-2.96855 -1.55315,-5.931369 -2.174882,-8.935092 -0.138509,-0.669194 -0.215736,-1.355341 -0.338523,-2.029102 -0.07504,-0.411818 -0.536085,-0.98321 -0.254828,-1.226754 3.075041,-2.662677 6.498859,-4.662437 9.748289,-6.993669 -0.905083,0.723568 -0.979841,2.809698 -1.507227,3.919407 -0.494028,2.453397 -1.428694,4.661172 -2.160458,7.009578 -0.214868,0.973988 -0.476654,1.933121 -0.661022,2.916442 -0.479236,2.55599 -0.504644,5.21603 -0.979122,7.77575 -0.830018,5.80635 -1.287279,11.64484 -1.405136,17.54401 -0.172923,7.02605 -0.362051,14.07537 -1.361926,21.01434 -0.77338,5.35056 -1.550875,10.70017 -2.378521,16.03591 -0.08433,0.47464 -0.459747,2.80031 -0.620899,2.92137 -3.416589,2.56692 -8.775939,10.26118 -10.935133,6.1246 -0.282854,-0.54188 -0.369201,-1.6363 -0.446149,-2.20163 -0.410124,-3.36923 -0.473847,-6.80201 -1.108235,-10.13544 C 10.223294,154.80187 9.8496228,150.57662 9.0669601,146.44228 7.9877691,141.06639 6.9400871,135.68146 5.8162523,130.31896 4.0879498,122.33047 2.6989802,114.24707 1.2349629,106.18138 0.94309622,104.53652 0.50126857,101.80122 0.05343629,100.13569 -0.11292688,99.516998 -0.31356646,98.907366 -0.57105619,98.337439 -0.65762635,98.145813 -1.1107191,98.009603 -0.9621374,97.887793 1.97603,95.479314 5.0795028,93.387306 8.1322483,91.203119 8.3993179,91.012047 7.6451399,91.670186 7.4015862,91.90372 c -1.6976968,3.315985 -3.7603877,6.374335 -5.0622432,9.97405 -1.47837369,3.82139 -2.50677238,7.80546 -3.01822959,11.99998 -0.31458301,5.16041 -0.27887748,10.32337 -0.26080458,15.49664 -0.007485,6.10456 -0.015968,12.20987 -0.13938103,18.31292 -0.1514925,5.04342 -0.2954248,10.1274 -1.2483348,15.06023 -0.2511967,1.34357 -0.3709996,1.90306 -0.5625469,3.2056 -0.054941,0.37366 0.1160478,0.92031 -0.1449295,1.12507 -8.8992076,6.98228 -9.7313346,11.62639 -10.4559376,5.56129 -0.357455,-3.18246 -0.655297,-6.36108 -0.872655,-9.5632 -0.446214,-4.48881 -0.693824,-9.0146 -1.500845,-13.43846 -1.19036,-6.56587 -2.462664,-13.11051 -3.8656,-19.61323 -1.6048,-7.83241 -3.23506,-15.65511 -4.991401,-23.43894 -1.283375,-5.40659 -2.506383,-10.882377 -4.478191,-15.988062 3.233684,-2.175089 6.494993,-4.289651 9.701052,-6.525279 0.106547,-0.07429 -0.258107,-0.05078 -0.367548,0.01692 -0.800494,0.495198 -0.885071,2.025791 -1.031485,2.931496 -0.329952,1.910968 -0.718285,3.802051 -1.078731,5.703298 -0.783078,2.934163 -1.366093,5.952586 -2.498423,8.730837 -1.56575,4.14071 -3.025191,8.38769 -4.009206,12.79307 -0.394708,1.89576 -0.845421,3.77507 -1.189264,5.68561 -0.784545,4.35928 -1.183791,8.8223 -1.752554,13.22601 -0.674508,6.35086 -1.484335,12.71261 -2.726376,18.93475 -0.0912,0.41427 -0.648985,3.11333 -0.805552,3.23482 -7.006692,5.43728 -9.573107,11.32856 -11.342045,4.44044 -0.480669,-2.74267 -0.841725,-5.51138 -1.399393,-8.23415 -0.279509,-2.20148 -0.438423,-4.41138 -0.727281,-6.61039 -0.285676,-2.01661 -0.300207,-4.02076 -0.239107,-6.06685 0.01789,-2.78575 0.03812,-5.5715 0.02977,-8.35738 -0.02264,-3.45245 -0.04986,-6.91157 -0.355878,-10.34773 -0.401882,-4.01679 -1.057862,-7.98297 -1.510225,-11.99115 -0.626939,-4.72742 -1.176286,-9.475624 -1.64256,-14.230498 -0.06222,-0.42525 -0.118603,-0.851866 -0.186652,-1.275772 -0.0275,-0.171295 -0.221506,-0.418261 -0.09988,-0.509208 14.521884,-10.860439 10.251981,-10.231472 9.029677,-4.639897 -0.542903,2.319854 -0.808814,4.724455 -1.029871,7.116936 -0.403472,3.429007 -0.728364,6.856369 -0.908864,10.315809 -0.374998,4.52034 -0.504132,9.05676 -0.837577,13.58249 -0.402644,4.79601 -0.994572,9.57626 -1.038619,14.40722 -0.191055,5.14213 -0.537961,10.26912 -1.01999,15.38323 -0.379669,5.90212 -1.00245,11.77402 -1.403116,17.67386 -0.300041,3.51751 -0.606305,7.04145 -1.427542,10.44692 -1.744811,6.65716 -12.265298,12.71316 -11.196496,4.08467 0.02364,-3.41096 0.04072,-6.82331 -0.05009,-10.2331 -0.07691,-2.68221 -0.227536,-5.36137 -0.635281,-8.00367 -0.544656,-3.71914 -0.971013,-7.46128 -1.615187,-11.15866 -0.539992,-4.55792 -0.938427,-9.1299 -1.176404,-13.72723 -0.468182,-5.38715 -0.947751,-10.77914 -1.620761,-16.13337 -0.737633,-5.13058 -1.396652,-10.278 -2.132882,-15.40884 -0.07017,-0.5446 -0.12486,-1.09253 -0.210526,-1.6338 -0.06621,-0.41839 -0.529943,-0.99882 -0.24476,-1.24289 3.088269,-2.64305 6.53292,-4.598518 9.787062,-6.923771 0.08628,-0.06155 -0.209316,0.04421 -0.280034,0.130522 -0.243905,0.297939 -0.45029,1.0784 -0.556676,1.406026 -0.419992,2.15399 -1.063829,4.227063 -2.096418,6.062003 -1.260131,2.24198 -2.016682,4.8558 -3.001836,7.28578 -0.931833,2.32126 -1.912214,4.58981 -2.929505,6.85686 -0.737119,2.08398 -1.622939,4.06545 -2.527189,6.04444 -1.083791,3.01689 -2.211461,6.01175 -3.025751,9.16185 -0.767952,3.30384 -1.760427,6.5457 -2.334103,9.90082 -0.327524,3.26475 -0.951689,6.47469 -1.074642,9.77041 -0.275355,4.71208 -0.06113,9.44773 -0.239002,14.16696 -0.165405,5.27967 -0.331232,10.57637 -1.046916,15.79625 -0.26121,2.16556 -0.460167,4.33979 -0.73407,6.50278 -0.0637,0.50295 0.136222,1.21488 -0.20444,1.50619 -3.217516,2.75142 -6.7091,4.99159 -10.134914,7.33545 -0.105021,0.0718 0.03501,-0.29158 0.05253,-0.43738 0.04971,-2.28617 0.148177,-4.57136 0.381727,-6.84199 0.265597,-2.67197 0.538612,-5.32238 0.514949,-8.02326 0.13218,-3.031 0.381067,-6.04836 0.620619,-9.06889 0.0015,-2.45896 -0.0051,-4.91886 -0.08997,-7.37604 -0.09959,-2.18529 -0.289948,-4.3585 -0.484685,-6.53376 -0.130398,-2.70269 0.26243,-5.37342 0.480285,-8.05831 0.237513,-3.05248 0.04713,-6.12909 0.0089,-9.19014 -0.125887,-3.1386 -0.332296,-6.27114 -0.71451,-9.3804 -0.02394,-0.38876 -0.04013,-0.77834 -0.07182,-1.16623 -0.02557,-0.31289 -0.31489,-0.76365 -0.09988,-0.93538 13.814635,-11.0343 10.813878,-10.54496 9.270285,-5.19572 -0.198649,1.81757 -0.676033,3.54067 -0.874777,5.34927 -0.241746,2.06648 -0.649994,4.08225 -0.880403,6.14842 -0.425477,2.62544 -0.851587,5.23868 -1.169337,7.88918 -0.61597,3.79159 -1.211012,7.58556 -1.86755,11.36735 -0.572212,2.97333 -1.344802,5.9108 -1.519537,8.97558 -0.240018,2.55256 -0.582025,5.09742 -0.92889,7.62854 -0.563808,2.69107 -1.28777,5.32669 -1.879515,8.00902 -0.532449,3.24106 -0.733817,6.55236 -0.935247,9.84492 -0.273124,2.66925 -0.665699,5.30517 -1.065158,7.94903 -0.303717,2.31714 -0.189858,4.69332 -0.615409,6.99375 -0.388926,2.32821 -0.520021,4.67917 -0.742818,7.03966 -0.230637,2.37396 -0.311752,4.73684 -0.237134,7.13057 0.002,2.33034 0.0169,4.66153 0.10249,6.98988 0.126376,2.82273 0.370879,5.6282 0.657667,8.43282 0.05876,3.08756 0.184111,6.18132 0.672484,9.21949 0.552092,3.30667 1.308675,6.56902 1.614827,9.93077 0,0 -10.010099,6.24832 -10.010099,6.24832 z"
       inkscape:connector-curvature="0" />
    <text
       xml:space="preserve"
       id="text863"
       style="font-style:normal;font-weight:normal;font-size:10.5833px;line-height:1.25;font-family:sans-serif;letter-spacing:0px;word-spacing:0px;white-space:pre;shape-inside:url(#rect865);fill:#000000;fill-opacity:1;stroke:none;" />
    <text
       xml:space="preserve"
       style="font-style:normal;font-weight:normal;font-size:96.8768px;line-height:1.25;font-family:sans-serif;letter-spacing:0px;word-spacing:0px;fill:#000000;fill-opacity:1;stroke:none;stroke-width:2.42191"
       x="203.58167"
       y="176.27686"
       id="text871"
       transform="scale(0.66019962,1.5146934)"><tspan
         sodipodi:role="line"
         id="tspan869"
         x="203.58167"
         y="176.27686"
         style="font-style:normal;font-variant:normal;font-weight:normal;font-stretch:normal;font-size:96.8768px;font-family:'Comic Sans MS';-inkscape-font-specification:'Comic Sans MS, Normal';font-variant-ligatures:normal;font-variant-caps:normal;font-variant-numeric:normal;font-variant-east-asian:normal;fill:#0d23ef;fill-opacity:1;stroke-width:2.42191">Some Activities Have: </tspan></text>
    <path
       sodipodi:type="star"
       style="fill:#eb0090;fill-opacity:1;stroke:#00fbff;stroke-width:5.41784;stroke-miterlimit:4;stroke-dasharray:none;stroke-opacity:1"
       id="path9490"
       sodipodi:sides="6"
       sodipodi:cx="30.2381"
       sodipodi:cy="128.42262"
       sodipodi:r1="129.82367"
       sodipodi:r2="90.431145"
       sodipodi:arg1="0.47145995"
       sodipodi:arg2="0.99505873"
       inkscape:flatsided="true"
       inkscape:rounded="1"
       inkscape:randomized="0"
       inkscape:transform-center-x="7.1882091"
       inkscape:transform-center-y="-30.436705"
       transform="matrix(0.68134386,-0.13066349,0.12925613,0.7124735,291.56429,272.52051)"
       d="M 145.89881,187.3869 C 86.934524,303.04761 166.65114,251.30408 37.003887,258.06987 -92.643362,264.83566 -7.9738495,308.00051 -78.656818,199.10559 -149.33979,90.210673 -144.38689,185.11905 -85.422605,69.458342 -26.458324,-46.202363 -106.17494,5.5411606 23.472313,-1.2246267 153.11956,-7.990414 68.45005,-51.155263 139.13302,57.739654 209.81599,166.63457 204.86309,71.726199 145.89881,187.3869 Z" />
    <text
       xml:space="preserve"
       id="text9493"
       style="font-style:normal;font-weight:normal;font-size:10.5833px;line-height:1.25;font-family:sans-serif;letter-spacing:0px;word-spacing:0px;white-space:pre;shape-inside:url(#rect9495);fill:#00fbff;fill-opacity:1;stroke:none;"
       transform="matrix(3.0571186,0,0,4.0565389,459.78864,-33.633377)"><tspan
         x="-66.523438"
         y="88.940621"><tspan
           style="fill:#00fbff;fill-opacity:1">Requires
</tspan></tspan><tspan
         x="-66.523438"
         y="102.16975"><tspan
           style="fill:#00fbff;fill-opacity:1">Grown
</tspan></tspan><tspan
         x="-66.523438"
         y="115.39887"><tspan
           style="fill:#00fbff;fill-opacity:1">    </tspan><tspan
           style="fill:#00fbff;fill-opacity:1">Up</tspan></tspan></text>
    <path
       sodipodi:type="star"
       style="fill:#00fbff;fill-opacity:1;stroke:#eb0090;stroke-width:5.41784;stroke-miterlimit:4;stroke-dasharray:none;stroke-opacity:1"
       id="path9490-0"
       sodipodi:sides="6"
       sodipodi:cx="30.2381"
       sodipodi:cy="128.42262"
       sodipodi:r1="129.82367"
       sodipodi:r2="90.431145"
       sodipodi:arg1="0.47145995"
       sodipodi:arg2="0.99505873"
       inkscape:flatsided="true"
       inkscape:rounded="1"
       inkscape:randomized="0"
       inkscape:transform-center-x="12.269126"
       inkscape:transform-center-y="-29.219005"
       transform="matrix(0.71204855,-0.23417689,0.24531557,0.68992504,563.84772,282.82261)"
       d="M 145.89881,187.3869 C 86.934524,303.04761 166.65114,251.30408 37.003887,258.06987 -92.643362,264.83566 -7.9738495,308.00051 -78.656818,199.10559 -149.33979,90.210673 -144.38689,185.11905 -85.422605,69.458342 -26.458324,-46.202363 -106.17494,5.5411606 23.472313,-1.2246267 153.11956,-7.990414 68.45005,-51.155263 139.13302,57.739654 209.81599,166.63457 204.86309,71.726199 145.89881,187.3869 Z" />
    <text
       xml:space="preserve"
       id="text9493-9"
       style="font-style:normal;font-weight:normal;font-size:10.5833px;line-height:1.25;font-family:sans-serif;letter-spacing:0px;word-spacing:0px;white-space:pre;shape-inside:url(#rect9495-6);fill:#eb0090;fill-opacity:1;stroke:none;"
       transform="matrix(3.3365705,0,0,4.1725339,763.71738,-45.110364)"><tspan
         x="-66.523438"
         y="88.940621"><tspan
           style="fill:#eb0090;fill-opacity:1">Requires
</tspan></tspan><tspan
         x="-66.523438"
         y="102.16975"><tspan
           style="fill:#eb0090;fill-opacity:1">  </tspan><tspan
           style="fill:#eb0090;fill-opacity:1">Touch
</tspan></tspan><tspan
         x="-66.523438"
         y="115.39887"><tspan
           style="fill:#eb0090;fill-opacity:1"> </tspan><tspan
           style="fill:#eb0090;fill-opacity:1">Screen</tspan></tspan></text>
  </g>
</svg>
