<?xml version="1.0" encoding="UTF-8" standalone="no"?>
<svg
   xmlns:dc="http://purl.org/dc/elements/1.1/"
   xmlns:cc="http://creativecommons.org/ns#"
   xmlns:rdf="http://www.w3.org/1999/02/22-rdf-syntax-ns#"
   xmlns:svg="http://www.w3.org/2000/svg"
   xmlns="http://www.w3.org/2000/svg"
   xmlns:sodipodi="http://sodipodi.sourceforge.net/DTD/sodipodi-0.dtd"
   xmlns:inkscape="http://www.inkscape.org/namespaces/inkscape"
   width="998.25098mm"
   height="409.04596mm"
   viewBox="0 0 998.25097 409.04596"
   version="1.1"
   id="svg8"
   inkscape:version="1.0.2 (e86c870879, 2021-01-15, custom)"
   sodipodi:docname="validdevices.svg">
  <defs
     id="defs2">
    <rect
       x="65.767868"
       y="371.08334"
       width="210.15475"
       height="92.98214"
       id="rect865" />
    <rect
       x="-66.523796"
       y="79.285713"
       width="179.91667"
       height="192.76785"
       id="rect9495" />
    <rect
       x="-66.523796"
       y="79.285713"
       width="179.91667"
       height="192.76785"
       id="rect923" />
    <rect
       x="-66.523796"
       y="79.285713"
       width="179.91667"
       height="192.76785"
       id="rect9495-6" />
    <rect
       x="-66.523796"
       y="79.285713"
       width="179.91667"
       height="192.76785"
       id="rect1038" />
  </defs>
  <sodipodi:namedview
     id="base"
     pagecolor="#ffffff"
     bordercolor="#666666"
     borderopacity="1.0"
     inkscape:pageopacity="0.0"
     inkscape:pageshadow="2"
     inkscape:zoom="0.24748737"
     inkscape:cx="1920.6123"
     inkscape:cy="701.40208"
     inkscape:document-units="mm"
     inkscape:current-layer="layer1"
     showgrid="false"
     inkscape:window-width="1920"
     inkscape:window-height="1017"
     inkscape:window-x="-8"
     inkscape:window-y="-8"
     inkscape:window-maximized="1"
     inkscape:document-rotation="0" />
  <metadata
     id="metadata5">
    <rdf:RDF>
      <cc:Work
         rdf:about="">
        <dc:format>image/svg+xml</dc:format>
        <dc:type
           rdf:resource="http://purl.org/dc/dcmitype/StillImage" />
        <dc:title></dc:title>
      </cc:Work>
    </rdf:RDF>
  </metadata>
  <g
     inkscape:label="Layer 1"
     inkscape:groupmode="layer"
     id="layer1"
     transform="translate(174.76955,-75.116714)">
    <rect
       style="fill:#41e0fd;fill-opacity:1;stroke:none;stroke-width:4.8062"
       id="rect1214"
       width="744.50897"
       height="408.54697"
       x="-172.64035"
       y="78.672035"
       ry="54.345856" />
    <text
       xml:space="preserve"
       id="text863"
       style="font-style:normal;font-weight:normal;font-size:10.5833px;line-height:1.25;font-family:sans-serif;letter-spacing:0px;word-spacing:0px;white-space:pre;shape-inside:url(#rect865);fill:#000000;fill-opacity:1;stroke:none;" />
    <path
       style="fill:#fb1892;fill-opacity:1;stroke:none;stroke-width:1.56829;stroke-miterlimit:4;stroke-dasharray:none;stroke-opacity:1"
       id="path835-4"
       d="m 722.41386,278.9876 c 2.27771,-0.49822 4.5812,-0.9512 6.75039,-1.61542 1.81192,-0.54692 3.69158,-1.00679 5.58489,-1.43529 2.0316,-0.41681 4.0286,-0.75838 6.28975,-0.6087 1.44749,0.14349 2.68292,0.06 3.83438,-0.41368 1.37047,-0.34707 2.738,-0.69201 4.0143,-1.16858 1.07489,-0.72243 2.45325,-1.11432 3.72359,-1.62308 1.49893,-0.3201 2.80456,-0.86315 4.15472,-1.37302 1.19012,-0.64198 2.57104,-1.06655 4.01792,-1.38132 1.37022,-0.42272 2.83664,-0.69653 4.17625,-1.16337 1.31155,-0.66107 2.5086,-1.43984 3.92315,-1.98932 1.30014,-0.65823 2.54638,-1.35322 4.02785,-1.81084 1.23969,-0.55684 2.5805,-0.98711 3.8408,-1.51806 1.09725,-0.62908 2.77567,-0.51729 3.85391,-1.11996 1.35386,-0.55243 2.38221,-1.4105 3.72883,-1.96897 1.32805,-0.638 2.71572,-1.20572 3.9784,-1.91045 1.56527,-0.70874 2.93551,-1.62541 4.34547,-2.48777 1.48757,-1.07087 2.97206,-2.10427 4.77605,-2.88287 2.04886,-0.50021 3.87233,-1.21459 5.57514,-2.12318 1.52296,-0.94544 2.53301,-2.25262 3.66434,-3.47227 1.1957,-1.29448 2.39461,-2.5959 3.83246,-3.72546 1.44395,-0.93953 3.10351,-1.67916 4.65691,-2.51672 1.21894,-0.50658 2.29895,-1.09261 3.61271,-1.49434 0.21649,-0.09 0.43295,-0.17995 0.64944,-0.26991 0,0 4.05591,10.41848 4.05591,10.41848 v 0 c -0.2432,0.093 -0.4864,0.1861 -0.72962,0.27915 -1.20705,0.42156 -2.24132,1.01551 -3.41309,1.47848 -1.53597,0.75898 -3.13844,1.47884 -4.43643,2.45591 -1.3306,1.16548 -2.53611,2.42221 -3.6919,3.70312 -1.14776,1.3078 -2.35491,2.60197 -4.03189,3.52292 -1.73747,0.89022 -3.65988,1.52743 -5.65012,2.11704 -1.72677,0.81134 -3.10281,1.91045 -4.63146,2.90397 -1.45514,0.83672 -2.81242,1.76814 -4.38508,2.49084 -1.30075,0.69861 -2.71545,1.28059 -4.07091,1.92325 -1.28091,0.62562 -2.35066,1.46266 -3.73365,1.98688 -1.24174,0.45261 -2.72157,0.55096 -3.8948,1.11235 -1.31383,0.50473 -2.6016,1.0354 -3.92281,1.53062 -1.41235,0.49315 -2.60753,1.20076 -3.93765,1.7847 -1.39057,0.61782 -2.58169,1.4424 -4.01598,2.01561 -1.40736,0.4285 -2.87468,0.76442 -4.29921,1.16761 -1.37512,0.33138 -2.64716,0.78981 -3.82524,1.36987 -1.33705,0.52963 -2.7274,0.97154 -4.1574,1.38168 -1.31198,0.47706 -2.57546,0.99773 -3.76129,1.61625 -1.30763,0.43322 -2.65444,0.80841 -4.00028,1.18829 -1.38654,0.43814 -2.81896,0.59556 -4.47872,0.4017 -2.11269,-0.18679 -3.93668,0.1891 -5.82516,0.57066 -1.8645,0.43478 -3.70587,0.90985 -5.50988,1.4333 -2.25616,0.60852 -4.60883,1.06276 -6.8745,1.65586 0,0 -3.79049,-10.43596 -3.79049,-10.43596 z"
       inkscape:connector-curvature="0" />
    <path
       style="fill:#fb1892;fill-opacity:1;stroke:none;stroke-width:1.56829;stroke-miterlimit:4;stroke-dasharray:none;stroke-opacity:1"
       id="path827-3"
       d="m 600.0762,196.96278 c -1.7541,0.94378 -3.56142,1.61116 -5.32286,2.51846 -2.978,2.45144 -7.26321,5.69929 6.88348,-5.54876 0.1526,-0.12141 -0.27868,0.3012 -0.42985,0.426 -8.89659,7.34562 -5.62871,5.92369 -9.43782,7.50776 -2.98221,2.32841 -6.7536,5.29629 7.21858,-5.85248 0.13982,-0.11162 -0.26707,0.25174 -0.402,0.37463 -0.73459,0.66895 -0.17241,0.12492 -0.88223,0.83121 -0.78397,1.23902 -1.79823,2.10942 -2.60939,3.2995 -0.75815,0.99468 -1.36606,2.1163 -1.87731,3.37754 -0.47192,1.37862 -1.27705,2.38473 -1.78488,3.73361 -0.47528,1.22158 -0.96067,2.45697 -1.31131,3.76187 -0.27526,1.50331 -0.61445,2.97634 -0.89797,4.4769 -0.42519,1.69137 -0.63253,3.44871 -0.7496,5.22764 -0.0953,1.8555 -0.0935,3.71719 -0.0961,5.57645 4.7e-4,1.87529 0.004,3.75057 0.005,5.62584 -0.0708,1.72152 0.0243,3.38772 0.26539,5.07107 0.22384,1.43048 0.51492,2.86956 0.87085,4.2489 0.43479,1.40496 0.58896,2.92149 0.92066,4.37239 0.42868,1.13863 0.93702,2.22566 1.47105,3.27412 0.78197,1.12952 1.78585,2.01242 2.727,2.88972 0.97108,0.66263 1.99223,1.15888 2.9745,1.78904 1.1343,0.46177 2.2345,1.05727 3.37088,1.5118 1.21392,0.24048 2.38395,0.53975 3.53555,1.14941 1.34646,0.55052 2.68576,1.15021 4.04936,1.61757 1.27729,0.74921 2.62027,1.12215 3.99005,1.31411 1.27908,0.23484 2.52162,0.69129 3.81511,0.87818 1.56488,0.18031 3.13668,0.18477 4.70576,0.19633 1.73287,0.008 3.46573,-6.5e-4 5.19859,-0.0102 1.41639,-0.007 2.83277,-0.0102 4.24916,-0.0113 1.68867,0.0102 3.4079,-0.18782 5.04695,-0.77251 4.03367,-1.177 10.1253,-6.89992 -4.3655,4.66005 5.55573,-4.76853 18.30145,-14.65892 1.57303,-1.31868 -0.17115,0.1365 0.32818,-0.30602 0.48497,-0.47316 0.27933,-0.29784 0.74638,-0.87638 1.0088,-1.19543 1.02707,-1.17492 1.87141,-2.61064 2.82694,-3.8949 0.89799,-0.92687 1.39651,-2.28976 1.93639,-3.61472 0.66682,-1.28472 1.1194,-2.75431 1.61331,-4.17716 0.63513,-1.86903 1.30515,-3.71416 1.9336,-5.5876 0.75246,-1.83986 1.50215,-3.65796 2.13621,-5.5879 0.60348,-1.90521 1.2572,-3.7776 1.87882,-5.67093 0.59373,-1.94632 0.79947,-4.03596 0.91317,-6.12882 0.0762,-1.89469 0.0656,-3.79345 0.0624,-5.69033 -0.005,-1.87324 -0.009,-3.74645 -0.0106,-5.61968 -0.0286,-1.84908 0.0578,-3.70441 -0.054,-5.54847 -0.25776,-1.84716 -0.35745,-3.72803 -0.5755,-5.58205 -0.42322,-1.80554 -0.82561,-3.64285 -1.45085,-5.33391 -0.68105,-1.57068 -1.17119,-3.27724 -1.79627,-4.88815 -0.76871,-1.70925 -1.21717,-3.66143 -1.97236,-5.3725 -0.63265,-1.32215 -1.31249,-2.59335 -1.92786,-3.93619 -0.66871,-1.27133 -1.66942,-1.98558 -2.60727,-2.78898 -2.10811,-1.87387 -4.47413,-2.93571 -6.87639,-3.77313 -3.51416,-0.85855 -7.04175,-1.59036 -10.53639,-2.60889 -2.94571,-0.7395 -5.90627,-1.34877 -8.86303,-1.99976 -1.78549,-0.37421 -3.58939,-0.48326 -5.39182,-0.52423 -1.27698,-0.13353 -2.32816,0.96203 -3.53252,1.41694 -0.19398,0.11513 -0.38517,0.24005 -0.58196,0.34541 -1.24397,0.66603 -0.0361,-0.11564 -1.14149,0.74441 -0.17375,0.13521 -0.70512,0.51349 -0.53314,0.37386 8.63583,-7.00991 10.55235,-8.83664 7.57572,-6.03258 -1.10171,1.06903 -2.20668,2.14114 -3.23177,3.35337 -1.23953,1.5475 -2.57646,2.92768 -3.8279,4.45386 -1.13203,1.37309 -2.20617,2.83151 -3.26699,4.31139 -0.8717,1.44862 -1.70912,2.94075 -2.53743,4.43902 -0.68437,1.30061 -1.21989,2.7575 -1.69026,4.23155 -0.4704,1.45818 -1.26926,2.6129 -1.86292,3.96127 -0.62765,1.63087 -1.1309,3.34259 -1.75975,4.97723 -0.71469,1.39711 -1.09034,2.93954 -1.27986,4.62049 -0.22179,1.583 -0.51635,3.13092 -0.65765,4.73572 -0.0701,1.1457 -0.0406,0.56834 -0.0881,1.73214 0,0 -8.83633,6.25771 -8.83633,6.25771 v 0 c 0.0307,-1.20504 0.011,-0.60527 0.0586,-1.79941 0.0966,-1.62046 0.25626,-3.2292 0.65034,-4.7678 0.1285,-1.8215 0.34825,-3.62522 1.10708,-5.16453 0.76796,-1.51561 1.25268,-3.24473 1.7486,-4.95803 0.57839,-1.35674 1.17727,-2.61883 1.91087,-3.82243 0.52397,-1.5193 0.98073,-3.06759 1.60404,-4.51621 0.84051,-1.53376 1.73172,-2.99607 2.52796,-4.57677 0.99503,-1.59938 2.14019,-2.97441 3.21301,-4.46498 1.29516,-1.45318 2.55843,-2.96068 3.83253,-4.45487 1.03526,-1.20322 2.05592,-2.38742 3.15401,-3.48139 3.75005,-3.38504 7.47919,-7.07435 11.74003,-9.01636 1.22248,-0.6205 2.37023,-1.31143 3.71002,-1.02882 1.81437,0.0978 3.62644,0.29712 5.41755,0.73292 2.93253,0.73084 5.88076,1.31605 8.80396,2.11808 3.50962,0.99111 7.05469,1.67711 10.56379,2.66192 2.50151,0.91804 4.96178,2.05957 7.17919,3.97523 1.0708,0.89945 2.14401,1.8371 2.86753,3.30818 0.61929,1.35084 1.29577,2.6396 1.91575,3.98684 0.74521,1.74702 1.22126,3.69049 1.98972,5.42588 0.64263,1.61414 1.13892,3.33049 1.81798,4.91849 0.66004,1.81908 1.094,3.77058 1.58634,5.68784 0.27735,1.86843 0.29926,3.79738 0.60752,5.66369 0.19972,1.88337 0.0736,3.79338 0.10831,5.69339 0.002,1.87267 0.004,3.74535 0.01,5.61802 0.004,1.92674 0.0159,3.85458 -0.0385,5.78027 -0.0884,2.21866 -0.25522,4.4406 -0.78596,6.54995 -0.52162,1.95089 -1.25949,3.77431 -1.85811,5.68079 -0.5731,1.96649 -1.20723,3.91211 -2.15477,5.58708 -0.52597,1.93432 -1.26758,3.73952 -1.8994,5.60855 -0.45782,1.49352 -0.96773,2.96529 -1.51624,4.39216 -0.74405,1.21238 -0.99714,2.86521 -1.86228,3.95126 -1.07415,1.1514 -1.89625,2.56376 -2.81692,3.93948 -0.49774,0.51548 -0.92888,1.32829 -1.45039,1.76887 -6.79933,5.74423 -16.14916,13.13535 -1.02385,0.89643 0.18793,-0.15207 -0.36425,0.33082 -0.54638,0.49623 -4.72292,3.79569 -7.79891,7.45361 -12.7105,8.70653 -1.71829,0.37246 -3.45303,0.65599 -5.19469,0.58123 -1.41089,-3.3e-4 -2.82179,-10e-4 -4.23268,-0.003 -1.73024,-0.003 -3.46049,-10e-4 -5.1907,-0.0131 -1.59993,-0.0208 -3.20513,-0.0214 -4.79568,-0.29827 -1.28205,-0.24879 -2.53248,-0.71767 -3.82243,-0.88109 -1.38985,-0.29864 -2.7292,-0.83179 -4.05991,-1.46619 -1.36732,-0.53786 -2.73851,-1.06284 -4.08732,-1.6867 -1.17062,-0.46254 -2.37007,-0.6636 -3.54121,-1.11532 -1.14273,-0.54189 -2.30423,-1.00091 -3.42471,-1.62832 -1.05469,-0.58145 -2.10976,-1.20721 -3.08292,-2.02479 -1.01378,-1.01784 -2.13288,-1.93348 -2.92642,-3.30074 -0.57551,-1.17771 -1.16115,-2.35507 -1.60973,-3.64036 -0.3326,-1.43262 -0.49553,-2.91442 -0.89988,-4.31386 -0.39525,-1.43335 -0.67697,-2.96467 -0.94009,-4.45079 -0.2558,-1.77124 -0.44932,-3.50709 -0.34154,-5.32651 -8.8e-4,-1.87614 -0.004,-3.75227 -0.006,-5.62843 -4.7e-4,-1.89084 -0.005,-3.78295 0.0608,-5.67207 0.0859,-1.8565 0.22176,-3.71831 0.64621,-5.49238 0.35958,-1.45553 0.57684,-3.00228 0.88856,-4.47056 0.25182,-1.46661 0.76531,-2.71219 1.20574,-4.07142 0.31125,-0.63972 0.44951,-1.35729 0.76996,-1.98752 0.55868,-1.09868 0.11479,-0.0694 0.74256,-1.02822 0.12295,-0.1878 0.21041,-0.41605 0.31561,-0.62407 0.44112,-1.42567 0.97196,-2.68439 1.74049,-3.79607 1.373,-1.79451 -0.64921,0.9045 0.75393,-1.17233 0.55873,-0.82701 1.4191,-1.13859 1.84147,-2.18061 0.3762,-0.60088 0.72634,-0.99504 1.21789,-1.39677 2.86051,-2.33788 6.38755,-5.7708 9.80362,-7.85514 3.02722,-2.36749 2.83323,-2.22138 -7.56903,6.22411 -0.15275,0.12404 0.28488,-0.29395 0.43674,-0.42012 3.0204,-2.50951 6.54253,-6.09437 10.11383,-8.09613 1.78376,-0.87443 3.61289,-1.56176 5.39893,-2.42834 0,0 -7.85674,8.44652 -7.85674,8.44652 z"
       inkscape:connector-curvature="0" />
    <path
       style="fill:#fb1892;fill-opacity:1;stroke:none;stroke-width:1.56829;stroke-miterlimit:4;stroke-dasharray:none;stroke-opacity:1"
       id="path829-2"
       d="m 688.72991,178.21965 c -1.82402,0.81141 -3.50619,2.09215 -5.27397,3.10348 -1.66233,1.1198 -3.35183,2.18942 -4.99046,3.38841 0.55537,-0.34033 -1.95411,1.58408 -1.4662,1.18656 2.57391,-2.09729 10.33029,-8.30413 7.73569,-6.25789 -3.06243,2.41522 -6.09408,4.90673 -9.13922,7.36477 -0.22633,0.18269 -0.9015,0.73997 -0.67514,0.55736 2.58815,-2.08791 5.17371,-4.18219 7.76055,-6.27331 -1.13879,0.88499 -2.15441,2.01848 -3.19367,3.10526 -0.9057,0.61684 -1.40985,1.72008 -1.88452,2.91296 -0.39576,1.36988 -0.69686,2.79668 -1.18344,4.11 -0.59399,1.29843 -1.26261,2.47903 -1.71822,3.8901 -0.45674,1.27441 -1.01436,2.43558 -1.38746,3.76678 -0.51483,1.40469 -0.9424,2.86782 -1.44305,4.28097 -0.43567,1.37374 -0.71447,2.81825 -1.26181,4.12027 -0.45954,1.24097 -0.877,2.53837 -1.19405,3.86751 -0.22655,1.50138 -0.60737,2.93559 -0.81722,4.44196 -0.18829,1.78691 -0.17549,3.58843 -0.38036,5.37254 -0.26249,1.82905 -0.39006,3.68331 -0.46107,5.54387 -0.0556,1.86505 -0.0539,3.73221 -0.055,5.59854 7e-4,1.87421 0.003,3.74841 0.004,5.62261 8.8e-4,1.87444 8.8e-4,3.74886 8.8e-4,5.62331 -0.0985,1.871 0.16575,3.69511 0.36718,5.53178 0.0202,1.91656 0.48723,3.50405 1.16108,5.12507 0.65495,1.56947 1.59885,2.8132 2.57337,3.98413 1.11235,1.03838 2.49292,1.26377 3.75836,1.79247 1.47669,0.98929 3.06888,1.49315 4.61356,2.20566 1.33118,0.61608 2.53909,1.54437 3.92564,1.92182 1.39979,0.26479 2.81823,0.24947 4.22809,0.2564 1.39068,-0.002 2.78134,-0.013 4.17201,-0.0184 1.33559,-0.004 2.6712,-0.004 4.00682,-0.006 1.27778,-0.12342 2.70086,-0.27633 3.90319,-0.95071 0.69656,-0.51915 1.5063,-0.46676 2.24368,-0.73854 0.34083,-0.12561 0.65487,-0.36697 0.98816,-0.52768 1.23815,-0.19165 2.31271,-0.78651 3.45043,-1.44633 1.34677,-0.57197 2.5134,-1.64028 3.85003,-2.23709 3.56664,-2.13436 9.45775,-7.22158 -5.34014,4.68113 0.9687,-0.78671 1.78668,-1.83956 2.61146,-2.88849 0.97242,-1.18635 1.74995,-2.53275 2.46164,-4.03028 0.70708,-1.4413 1.33157,-2.95209 1.9895,-4.43587 0.50997,-1.35477 0.90102,-2.80737 1.2507,-4.2597 0.47835,-1.77963 1.15695,-3.42022 1.619,-5.21027 0.43548,-2.08741 0.81599,-4.19652 1.27794,-6.27273 0.4823,-2.01051 0.6108,-4.1249 0.69472,-6.22861 0.12587,-1.72539 0.424,-3.40808 0.56836,-5.1314 0.12439,-1.79305 0.13189,-3.59644 0.14113,-5.39627 0.005,-1.87225 0.003,-3.74451 -10e-5,-5.61675 -0.24459,-2.42204 -0.40066,-4.85047 -0.50329,-7.29406 -0.0311,-2.51423 -0.15102,-4.99707 -0.42846,-7.47979 -0.23275,-1.86574 -0.49237,-3.75451 -0.88086,-5.57078 -0.30243,-1.5051 -0.99771,-2.72252 -1.76893,-3.81457 -0.70549,-0.94212 -1.07977,-2.27398 -1.79654,-3.20147 -0.36113,-0.46728 -0.7899,-0.81935 -1.1801,-1.23789 -1.35713,-1.47554 -2.72339,-2.92362 -4.06957,-4.41624 -1.10687,-1.12469 -2.32017,-1.9837 -3.6458,-2.44474 -1.31995,-0.60069 -2.58103,-1.38734 -3.93694,-1.82397 -1.2713,-0.7114 -2.60689,-1.04186 -3.96197,-1.21499 -1.47958,-0.13654 -2.96364,-0.12506 -4.44568,-0.12342 -1.39512,0.006 -2.79025,0.0128 -4.18538,0.0163 -1.91863,0.0358 -3.84479,-0.1734 -5.7536,0.13633 -1.8385,0.16957 -3.61483,0.72708 -5.21203,2.04295 -7.16532,6.21481 28.20462,-23.33516 -1.80606,1.45926 -2.62888,2.17194 5.27913,-4.29247 7.93138,-6.40752 0.0262,-0.0209 -0.93233,0.89667 -0.9401,0.90411 -0.49645,0.60096 -0.27284,0.27282 -0.67319,0.98124 0,0 -9.05027,5.68146 -9.05027,5.68146 v 0 c 0.29469,-1.02246 0.11566,-0.53776 0.53495,-1.45574 0.48639,-0.67013 0.32306,-0.52482 0.92004,-1.02043 2.98667,-2.47942 6.06684,-4.74629 8.96933,-7.41602 2.53468,-2.33142 -10.50513,8.48594 -7.8645,6.39981 11.28021,-8.9116 5.80307,-5.08052 9.69367,-7.78524 1.7383,-0.97136 3.53286,-1.48252 5.40581,-1.59847 1.9462,-0.12354 3.89526,-0.0451 5.84298,-0.0945 1.39272,-0.002 2.78545,-0.008 4.17818,-10e-4 1.5076,0.0142 3.02059,0.0102 4.52096,0.24042 1.37941,0.27328 2.71586,0.76145 4.0385,1.37542 1.3373,0.54594 2.61914,1.31571 3.9579,1.85842 1.38365,0.6613 2.67777,1.63064 3.82885,2.90466 1.34946,1.48412 2.7016,2.95616 4.07318,4.39964 1.27874,1.40558 2.09496,2.80884 3.07366,4.59957 0.84717,1.28503 1.66043,2.64678 2.00112,4.36926 0.42313,1.86979 0.66543,3.84618 0.9286,5.76834 0.27217,2.53825 0.44812,5.06007 0.42262,7.63354 0.0963,2.45734 0.26006,4.89814 0.59209,7.31703 0.003,1.8746 0.004,3.74919 0.004,5.62377 -0.004,1.8371 -0.004,3.67618 -0.0916,5.51007 -0.10371,1.71904 -0.30168,3.41117 -0.61071,5.08254 -0.0689,2.19529 -0.15543,4.41921 -0.58318,6.54394 -0.46483,2.08313 -0.91855,4.1715 -1.28343,6.29453 -0.38571,1.8537 -0.96242,3.54787 -1.56427,5.26142 -0.46169,1.44429 -0.72532,3.00074 -1.17779,4.45692 -0.61476,1.55651 -1.31642,3.02506 -1.98665,4.53343 -0.73658,1.49744 -1.28746,3.15722 -2.3841,4.22859 -0.70887,1.21479 -1.59565,2.28649 -2.51372,3.16848 -3.91595,3.19967 -7.4951,6.7291 -11.67676,8.9584 -1.27631,0.76443 -2.51623,1.65057 -3.83621,2.2718 -1.14487,0.63223 -2.34508,0.863 -3.51293,1.39004 -1.07098,0.45551 -2.19103,0.66916 -3.24571,1.21921 -1.34057,0.34224 -2.68688,0.71603 -4.05702,0.63236 -1.33478,9.9e-4 -2.66955,0.002 -4.00433,0.007 -1.39027,0.004 -2.7806,0.015 -4.17083,-0.003 -1.46113,-0.0335 -2.94137,-0.0374 -4.37311,-0.49552 -1.35096,-0.5361 -2.57899,-1.47973 -3.92431,-2.03896 -1.56398,-0.65638 -3.11821,-1.33002 -4.6425,-2.15708 -1.37995,-0.58767 -2.86133,-0.90712 -3.98576,-2.28416 -1.0444,-1.28512 -2.02146,-2.70075 -2.74336,-4.37967 -0.71844,-1.75685 -1.33025,-3.51177 -1.33696,-5.58713 -0.19559,-1.90048 -0.53592,-3.77965 -0.43584,-5.71407 -5e-5,-1.87416 -8e-5,-3.74833 -7e-4,-5.62248 -8.8e-4,-1.87458 -0.003,-3.74917 -0.004,-5.62375 -4.7e-4,-1.88527 -0.004,-3.77099 0.0348,-5.65565 0.0528,-1.91087 0.14108,-3.82356 0.40512,-5.70369 0.24173,-1.77673 0.291,-3.54309 0.37239,-5.34804 0.14991,-1.57806 0.50229,-3.0427 0.76587,-4.57094 0.23365,-1.48214 0.71762,-2.77715 1.0779,-4.19524 0.53682,-1.29657 1.08895,-2.51617 1.3033,-4.02789 0.48163,-1.42456 0.95057,-2.84185 1.43798,-4.26438 0.2695,-0.66013 0.35406,-1.35386 0.59641,-2.03072 0.53306,-1.48876 -0.0317,0.233 0.55756,-1.10529 0.0935,-0.2124 0.14797,-0.45425 0.22196,-0.68138 0.29632,-0.69107 0.42092,-1.43958 0.71205,-2.1336 0.51481,-1.22722 0.0999,-0.0879 0.6831,-1.18281 0.11343,-0.21292 0.19292,-0.45772 0.28938,-0.68657 0.64044,-1.1297 0.94941,-2.54318 1.24076,-3.91104 0.31373,-1.26786 0.91069,-2.85862 1.65749,-3.69785 1.18504,-0.80819 2.03569,-2.30849 3.2382,-3.10173 3.03685,-2.49256 6.07058,-4.99264 9.11053,-7.47768 7.46957,-6.10609 -28.44938,23.08439 2.08269,-1.64142 0.66028,-0.5347 0.80213,-0.62954 1.48469,-1.13867 1.66751,-1.12117 3.31518,-2.30703 5.02049,-3.31144 1.77113,-1.09615 3.52458,-2.27533 5.40398,-2.97232 0,0 -7.85676,8.44651 -7.85676,8.44651 z"
       inkscape:connector-curvature="0" />
    <path
       style="fill:#fb1892;fill-opacity:1;stroke:none;stroke-width:1.56829;stroke-miterlimit:4;stroke-dasharray:none;stroke-opacity:1"
       id="path831-5"
       d="m 610.48495,279.13472 c 0.44924,2.86698 0.80586,5.75693 1.03842,8.67406 0.27992,1.79111 0.44303,3.63854 0.92355,5.35039 0.45297,1.92211 1.43732,3.3554 2.35507,4.85198 0.86059,1.38011 1.46268,2.97959 2.13671,4.53541 0.67712,1.50565 0.95474,3.26839 1.605,4.79083 0.5132,1.30902 1.0733,2.56547 1.42375,3.98315 0.29792,1.51712 0.66888,2.98372 0.86655,4.53802 0.0326,1.71867 0.70269,3.04478 1.34361,4.43392 0.55523,1.41352 1.32496,2.71015 2.34563,3.4829 0.78449,0.87197 1.6766,1.50757 2.4875,2.31353 0.94085,0.75143 1.93432,1.31859 2.99216,1.64732 1.19082,0.57159 2.40576,1.16292 3.50079,2.04401 1.33809,0.55124 2.5567,1.4947 3.85013,2.20626 1.08515,0.9875 2.10973,1.9137 3.37819,2.34427 1.13384,0.68184 2.15642,1.53286 3.37739,1.89981 1.16663,0.0916 2.25357,0.67596 3.39991,0.94684 1.3654,0.4453 2.77869,0.68296 4.1384,1.18024 1.3735,0.55257 2.78886,0.77979 4.2099,0.89643 1.33061,0.0804 2.66288,0.0705 3.9944,0.0684 1.58658,-0.006 3.17318,0.003 4.75977,0.0114 1.95284,0.002 3.90567,-0.004 5.85852,0.002 2.04497,-0.0114 4.08992,0.006 6.13488,0.003 1.89028,0.092 3.75248,-0.0285 5.59356,-0.65339 2.29793,-0.58334 4.57621,-1.27171 6.84717,-2.03528 2.07524,-0.79217 4.09944,-1.81138 5.99199,-3.25153 1.32584,-0.75142 2.58619,-1.64075 3.84769,-2.56842 -19.79401,15.9651 -0.76461,0.64746 0.98058,-0.89481 2.59251,-2.29108 -5.29743,4.32077 -7.96057,6.44567 -0.18251,0.14557 0.3496,-0.32717 0.51641,-0.50612 0.44019,-0.47226 0.51332,-0.61425 0.90342,-1.16724 0.82179,-1.12559 1.78661,-2.01079 2.62987,-3.1002 1.09392,-1.24851 2.11271,-2.61958 3.01876,-4.1365 0.76188,-1.44576 1.28421,-3.05714 1.76465,-4.70993 0.62326,-1.84952 1.30766,-3.64782 2.02564,-5.42747 0.74612,-1.83464 1.57213,-3.60682 2.39987,-5.37143 0.60451,-1.58171 1.13688,-3.21775 1.71196,-4.82554 0.71844,-1.87463 1.19969,-3.88958 1.66377,-5.90741 0.39106,-1.63371 0.99746,-3.12331 1.42131,-4.73912 0.44977,-1.77311 0.86596,-3.55799 1.37235,-5.30232 0.5449,-2.23787 1.42487,-4.25465 2.11624,-6.39829 0.64894,-1.77756 1.00442,-3.67776 1.32543,-5.60794 0.27697,-1.43781 0.73833,-2.80611 1.26771,-4.09325 0,0 9.05411,-5.69165 9.05411,-5.69165 v 0 c -0.47933,1.25826 -1.05143,2.46415 -1.37984,3.82024 -0.47784,1.8964 -0.5302,4.00433 -1.3034,5.77064 -0.6107,2.20155 -1.57605,4.1247 -2.11072,6.36832 -0.48755,1.74662 -1.01521,3.46491 -1.35974,5.28304 -0.22909,0.77317 -0.36362,1.58488 -0.61639,2.34355 -0.18377,0.55164 -0.36471,0.92906 -0.59227,1.44632 -0.1016,0.29901 -0.16345,0.6217 -0.24517,0.93254 -0.57854,1.99787 -0.87163,4.15245 -1.60616,6.07223 -0.61848,1.60512 -1.19039,3.23492 -1.66701,4.92793 -0.78721,1.80112 -1.69257,3.49959 -2.43012,5.33497 -0.74597,1.72952 -1.43903,3.49351 -2.03588,5.3332 -0.3488,0.7949 -0.4392,1.57416 -0.71149,2.41698 -0.38563,1.19365 -0.19467,0.41739 -0.6597,1.56758 -0.12541,0.31012 -0.22514,0.63941 -0.33773,0.95913 -0.79305,1.67545 -1.81851,3.10437 -2.90695,4.40303 -0.89005,1.00179 -1.68247,2.17421 -2.65944,3.02534 -1.58712,2.08441 0.7399,-1.02434 -0.86628,1.30833 -2.55331,3.70828 -6.30933,5.27938 -9.43827,7.97865 -1.18374,1.02116 24.2062,-19.91995 -1.00034,0.8576 -1.24465,0.93201 -2.58062,1.58972 -3.83101,2.508 -1.95701,1.25685 -3.9924,2.24685 -6.08649,2.95153 -2.28844,0.75063 -4.59346,1.38087 -6.89723,2.03028 -1.89048,0.43176 -3.78264,0.51348 -5.69643,0.4195 -2.04743,-0.002 -4.09487,0.0147 -6.14232,0.003 -1.95536,0.007 -3.91072,1.1e-4 -5.86609,0.006 -1.59986,0.0102 -3.19969,0.0275 -4.79957,0.0272 -1.34585,-0.006 -2.6935,-0.008 -4.03612,-0.15634 -1.44784,-0.19407 -2.87589,-0.54654 -4.28194,-1.0768 -1.38131,-0.38102 -2.76381,-0.75217 -4.14731,-1.11613 -1.14407,-0.35424 -2.27701,-0.75665 -3.43324,-1.02682 -1.17738,-0.51571 -2.21714,-1.42214 -3.3913,-1.9382 -1.23304,-0.60562 -2.28068,-1.61283 -3.4234,-2.47471 -1.30027,-0.79827 -2.60707,-1.5434 -3.92112,-2.28875 -1.08944,-0.7147 -2.19521,-1.38978 -3.36667,-1.79475 -1.11769,-0.47622 -2.20483,-1.11815 -3.19065,-2.00713 -0.84469,-0.72209 -1.6489,-1.51953 -2.46834,-2.29712 -1.05237,-1.05077 -1.93097,-2.40531 -2.54613,-4.0087 -0.71141,-1.51645 -1.51329,-3.04009 -1.55979,-4.92542 -0.16136,-1.49697 -0.52029,-2.88885 -0.80028,-4.34111 -0.29842,-1.33984 -0.85905,-2.4927 -1.31934,-3.72947 -0.62891,-1.53366 -0.93481,-3.25595 -1.57743,-4.77821 -0.65726,-1.48109 -1.22706,-3.02597 -2.04559,-4.35619 -0.98262,-1.6084 -2.01681,-3.18381 -2.52361,-5.22715 -0.55668,-1.8287 -0.74099,-3.79221 -1.02472,-5.73297 -0.17979,-2.85428 -0.4618,-5.70214 -1.00896,-8.46843 0,0 8.69983,-6.61451 8.69983,-6.61451 z"
       inkscape:connector-curvature="0" />
    <path
       style="fill:#fb1892;fill-opacity:1;stroke:none;stroke-width:2.03131;stroke-miterlimit:4;stroke-dasharray:none;stroke-opacity:1"
       id="path833-1"
       d="m 576.41815,291.54514 c -2.03702,-0.39029 -4.08433,-0.96195 -6.15375,-0.91776 -1.26309,-0.43973 -2.57353,0.13573 -3.8647,0.21787 -1.00253,-0.15228 -2.02643,0.13028 -3.04303,0.22623 0.3196,-0.35289 -1.31659,0.0156 -0.98321,-0.0765 2.82484,-0.77398 5.6492,-1.52876 8.47242,-2.24386 0.1724,-0.0436 -0.34635,0.17975 -0.51892,0.22944 -3.16927,0.91275 -6.34004,1.87517 -9.50574,2.65774 -0.17971,0.0444 -0.34569,-0.11976 -0.51854,-0.17974 -0.70688,0.58571 -1.30437,-0.14508 -1.95213,-0.31065 -0.30571,-0.0781 -0.62665,0.0505 -0.9353,0.008 -0.94734,-0.18188 -1.92451,-0.046 -2.88381,-0.22438 -1.11522,-0.72747 -2.25372,-1.24351 -3.36812,-1.98493 -1.1476,-0.84808 -2.20548,-2.22021 -3.25262,-3.61363 -1.02918,-1.39235 -2.24581,-1.72656 -3.39132,-2.38678 -1.23608,-0.67549 -2.50344,-0.85315 -3.70178,-1.86934 -0.75232,-0.48512 -1.36366,-1.8053 -2.08202,-2.45814 -0.30736,-0.27972 -0.64858,-0.32077 -0.97193,-0.48907 -1.0419,-0.60866 -1.99177,-1.79735 -2.9305,-2.99899 -0.69501,-0.75317 -1.28133,-2.12905 -2.05552,-2.42445 -0.39884,-0.15209 -0.81521,-0.11411 -1.22017,-0.20267 -1.33572,-0.29552 -2.51268,-1.69953 -3.67795,-3.10741 -1.1382,-1.42402 -2.24523,-2.99742 -3.3534,-4.56285 -1.03025,-1.19905 -1.91817,-3.26922 -3.0473,-3.88582 -1.03818,-0.439 -1.98634,-1.48683 -2.91579,-2.60254 -1.12738,-1.41768 -2.22124,-2.99617 -3.32194,-4.53971 -1.08304,-1.52233 -2.16548,-3.04747 -3.24798,-4.57223 -1.13546,-1.45958 -2.16989,-3.435 -3.39398,-4.41939 -1.21829,-0.84423 -2.37952,-2.03359 -3.51041,-3.38741 -0.17683,-0.22417 -0.35377,-0.44785 -0.5306,-0.67204 0,0 9.09529,-5.31485 9.09529,-5.31485 v 0 c 0.17628,0.20761 0.35263,0.41487 0.529,0.62195 1.14117,1.24779 2.32372,2.23595 3.49566,3.30408 1.16549,1.42148 2.27569,3.10822 3.41104,4.67428 1.07863,1.52275 2.15579,3.05234 3.23518,4.57171 1.0965,1.53006 2.19296,3.069 3.34118,4.34733 0.94737,0.98876 1.93485,1.68563 2.91804,2.44859 1.03312,1.31328 2.02234,2.8333 3.03753,4.23134 1.09651,1.54125 2.1935,3.08717 3.33716,4.40122 1.16509,1.26153 2.36815,2.24831 3.67793,2.46227 1.2172,0.46756 2.24082,1.87327 3.29833,3.3081 0.94108,1.08916 1.90729,2.03052 2.93489,2.58535 1.04617,0.81819 1.96861,2.34825 3.04222,3.01139 1.21022,0.7258 2.48077,0.90112 3.6778,1.74046 1.19377,0.60415 2.3773,1.37115 3.4183,2.91316 1.03652,1.29091 2.0943,2.50135 3.24345,3.12551 1.11371,0.60242 2.20652,1.44638 3.37117,1.56704 0.96998,0.0243 1.94002,0.0296 2.89587,0.23725 0.95905,0.1149 1.8952,0.48766 2.87854,0.27575 3.28365,-0.54963 1.36393,-0.24898 -7.9591,2.35377 -0.17228,0.048 0.34577,-0.16884 0.51812,-0.21916 3.89867,-1.13649 6.99734,-2.65746 10.49812,-2.73279 1.01392,-0.19531 2.01571,-0.0775 3.02747,-0.20852 1.28704,-0.26836 2.54725,-0.16767 3.80972,-0.006 2.07163,0.29842 4.14737,0.54751 6.20679,0.99599 0,0 -9.07953,6.09519 -9.07953,6.09519 z"
       inkscape:connector-curvature="0" />
    <path
       style="fill:#fb1892;fill-opacity:1;stroke:none;stroke-width:1.56829;stroke-miterlimit:4;stroke-dasharray:none;stroke-opacity:1"
       id="path837-1"
       d="m 634.98495,358.19082 c -0.19934,3.43145 -0.62679,6.79012 -1.29117,10.10143 -0.55808,2.74478 -1.07967,5.49916 -1.74754,8.19646 -0.40627,1.78057 -0.70359,3.60053 -1.33669,5.2572 -0.52852,1.40979 -0.91478,2.92926 -1.20613,4.46744 -0.30677,1.9491 -0.59007,3.90177 -0.87263,5.85782 -0.31911,1.82756 -0.87423,3.53597 -1.18473,5.36767 -0.26296,1.91057 -0.22828,3.85094 -0.52009,5.75401 -0.4183,2.23076 -1.17619,4.28572 -1.96709,6.2923 -0.97676,2.24263 -1.37317,4.8084 -1.83651,7.32041 -0.418,2.42579 -1.07363,4.74343 -1.6959,7.07414 -0.63087,2.25193 -1.3684,4.43818 -2.20976,6.54868 -0.872,1.88931 -1.87152,3.65466 -2.60935,5.65927 -0.71364,2.15646 -1.29985,4.38914 -1.94705,6.58526 -0.67011,2.31988 -1.40108,4.59548 -1.84053,7.02778 -0.40942,2.51037 -1.05554,4.92031 -1.80098,7.26656 -0.77054,2.20995 -1.48642,4.45876 -2.26899,6.6604 -0.59549,1.53733 -0.78981,3.22794 -0.89081,4.94702 -0.14967,1.61222 -0.43768,3.183 -0.57457,4.79993 -0.0347,0.31113 -0.0694,0.62225 -0.1041,0.93339 0,0 -8.90239,6.07171 -8.90239,6.07171 v 0 c 0.0473,-0.27031 0.0946,-0.54065 0.14194,-0.81097 0.0946,-1.61216 0.2562,-3.20846 0.59477,-4.7601 0.0646,-1.85948 0.17249,-3.73536 0.73236,-5.45265 0.78007,-2.20484 1.55255,-4.41041 2.31512,-6.62985 0.7353,-2.2775 1.4636,-4.55563 1.86209,-7.00664 0.37849,-2.53624 1.09131,-4.87848 1.80422,-7.25854 0.64819,-2.19129 1.19997,-4.44175 1.91056,-6.59052 0.57323,-2.18434 1.60654,-3.98446 2.55775,-5.86961 1.00081,-1.89455 1.54197,-4.17359 2.29928,-6.26846 0.58568,-2.31309 1.28834,-4.56546 1.74678,-6.9395 0.42898,-2.60428 0.84529,-5.27493 1.73023,-7.65888 0.76482,-1.9246 1.56448,-3.86901 2.02889,-5.98104 0.4795,-1.82785 0.32812,-3.74965 0.54136,-5.65617 0.24127,-1.88714 0.71587,-3.63018 1.1779,-5.42172 0.40094,-1.89551 0.51653,-3.9134 0.86693,-5.82932 0.2344,-1.66 0.63534,-3.2367 1.07453,-4.80662 0.17128,-0.42581 0.39621,-0.80776 0.55473,-1.24323 0.44013,-1.20916 0.59299,-2.5657 0.90133,-3.83996 0.68598,-2.6891 1.29901,-5.39833 1.81542,-8.1628 0.71012,-3.2055 1.25026,-6.458 1.29871,-9.83351 0,0 8.85211,-6.16879 8.85211,-6.16879 z"
       inkscape:connector-curvature="0" />
    <path
       style="fill:#fb1892;fill-opacity:1;stroke:none;stroke-width:1.56829;stroke-miterlimit:4;stroke-dasharray:none;stroke-opacity:1"
       id="path839-6"
       d="m 680.56911,362.26226 c 1.03017,2.84311 2.02531,5.80034 3.41155,8.34543 1.12781,1.93503 2.35312,3.73479 3.427,5.73546 0.87408,1.73188 1.40423,3.71905 1.94556,5.68198 0.50338,1.83811 0.77046,3.77343 1.24613,5.62518 0.65768,1.94537 1.31033,3.89446 1.94136,5.85749 0.69094,1.94265 1.4625,3.81757 2.29735,5.64517 0.78199,1.79576 1.59116,3.56795 2.13302,5.53655 0.8411,1.95457 1.40607,4.06859 1.76193,6.28843 0.29248,2.17103 0.91253,4.19504 1.22347,6.37076 0.53038,2.25313 0.98081,4.56707 1.77134,6.67467 0.79999,1.97827 0.81538,4.27999 1.61859,6.23856 1.12599,2.28774 2.29879,4.53708 3.54823,6.69618 1.23991,1.79551 2.23731,3.86356 3.33785,5.8157 0.93309,1.93464 1.79368,3.84861 3.04705,5.4121 1.52732,1.43446 3.29654,2.23432 4.78172,3.73812 1.31821,1.72376 2.9421,2.64062 4.53133,3.73328 1.36378,0.99006 2.49875,2.29836 3.4512,3.97894 0.83162,1.17293 1.31919,2.74703 1.74387,4.27276 0.45985,1.96795 0.85104,3.92747 1.90542,5.43426 0.55652,0.7999 0.9992,1.6895 1.64509,2.35353 0,0 -8.39574,7.39832 -8.39574,7.39832 v 0 c -0.62398,-0.77911 -1.13148,-1.68174 -1.69546,-2.54349 -1.06259,-1.71609 -1.62346,-3.72681 -2.11164,-5.8752 -0.37186,-1.41207 -0.83756,-2.80413 -1.59252,-3.89129 -0.87288,-1.5038 -1.9148,-2.65128 -3.16366,-3.50318 -1.64145,-1.08672 -3.23541,-2.20849 -4.61356,-3.90478 -1.57694,-1.40622 -3.38895,-2.25822 -4.86898,-3.90256 -1.24444,-1.66821 -2.19273,-3.58424 -3.12933,-5.59759 -1.09315,-1.95268 -2.09193,-4.00967 -3.31767,-5.8145 -1.2711,-2.22536 -2.45292,-4.54914 -3.63215,-6.87066 -0.16868,-0.40315 -0.36386,-0.78659 -0.50606,-1.20945 -0.54214,-1.61245 -0.4417,-3.54209 -1.16325,-5.07076 -0.80768,-2.24461 -1.27641,-4.67803 -1.88375,-7.03695 -0.29225,-2.17994 -0.93509,-4.18229 -1.23643,-6.33899 -0.29779,-2.17624 -0.84329,-4.21233 -1.68322,-6.09927 -0.50371,-1.88944 -1.30908,-3.56138 -2.03553,-5.29293 -0.84665,-1.89457 -1.6621,-3.80796 -2.35445,-5.8246 -0.64067,-1.99033 -1.32629,-3.95199 -1.99448,-5.92412 -0.49965,-1.83558 -0.77005,-3.75536 -1.2378,-5.604 -0.51934,-1.83925 -0.97391,-3.73407 -1.79767,-5.36534 -1.07253,-1.99914 -2.30598,-3.79413 -3.39134,-5.77516 -1.36608,-2.64551 -2.36228,-5.62335 -3.53405,-8.43901 0,0 8.56968,-6.94904 8.56968,-6.94904 z"
       inkscape:connector-curvature="0" />
    <path
       style="fill:#fb1892;fill-opacity:1;stroke:none;stroke-width:1.56829;stroke-miterlimit:4;stroke-dasharray:none;stroke-opacity:1"
       id="path841-6"
       d="m 559.57404,254.75401 c -0.0654,-3.34563 -0.73714,-6.59358 -1.23925,-9.84657 -0.47772,-3.12844 -0.61225,-6.32073 -0.70498,-9.50825 -0.20522,-2.82612 -0.43101,-5.64635 -0.57156,-8.48148 -0.11952,-2.36941 -0.12846,-4.74472 -0.14038,-7.11871 -0.021,-2.46759 -0.0306,-4.91823 0.17416,-7.37086 0.23256,-2.39213 0.29875,-4.80482 0.59657,-7.18345 0.37833,-2.30287 0.40552,-4.66855 0.58068,-7.00734 0.2744,-2.70126 0.71311,-5.35534 0.97682,-8.05966 0.22271,-3.34237 0.42794,-6.68813 0.80068,-10.00604 0.4343,-2.7615 1.06772,-5.44855 1.59309,-8.17589 0.39585,-2.49457 0.6232,-5.03897 0.89264,-7.56683 0.14861,-3.16051 0.77483,-6.19067 1.3346,-9.23822 0.64063,-3.78345 1.11967,-7.61223 1.65616,-11.42578 0.32229,-2.6422 0.58336,-5.29032 0.95331,-7.92078 0.20675,-2.06931 0.55403,-4.1009 0.7955,-6.16149 0.11751,-1.83151 0.51704,-3.58599 0.74448,-5.39001 0.84922,-6.02036 1.96088,-4.07195 9.40508,-7.59603 0.0732,-0.0348 0.13605,1.18275 0.21379,2.45509 0.24457,3.17859 0.48103,6.35455 0.6003,9.54806 0.0813,3.14031 0.17766,6.28913 0.0623,9.42924 -0.15355,2.6638 -0.47148,5.31395 -0.44695,7.99088 0.13224,2.19227 0.34484,4.37048 0.43432,6.56795 0.0826,2.50952 0.0749,5.02279 0.0854,7.53438 -0.16764,3.08914 -0.41124,6.16679 -0.54802,9.25995 -0.0255,2.74092 -0.15114,5.45723 -0.40015,8.17483 -0.20966,2.24714 -0.30019,4.50983 -0.34792,6.77361 0.24478,4.80414 0.19168,1.91996 -8.76076,5.48731 -0.38129,0.15196 0.12571,-1.10027 0.19167,-1.64968 0.26443,-2.20276 0.49895,-4.40968 0.74171,-6.61755 0.64428,-5.23519 0.86143,-10.53607 0.98806,-15.83715 0.14423,-4.76417 0.0106,-9.53549 0.14207,-14.29862 0.0613,-3.34753 0.53422,-6.62756 0.8627,-9.93216 0.39822,-3.4911 1.31396,-6.81963 2.01493,-10.20803 0.71792,-3.20392 1.61066,-6.31796 2.56378,-9.39512 0.69574,-2.05943 1.48884,-4.04506 2.18668,-6.10474 0.79886,-2.39055 1.78711,-4.63369 2.61806,-7.00205 0.84936,-2.4928 1.62486,-5.04328 2.57532,-7.46433 0.84845,-1.784796 1.50996,-3.695126 1.9481,-5.748876 1.24317,-5.93449 1.67146,-4.17147 9.64499,-7.35708 0.35619,-0.1423 0.1849,1.00899 0.25403,1.52044 0.0793,0.58703 0.1273,1.18158 0.19096,1.77235 0.52273,5.22455 1.11036,10.438526 1.75146,15.637256 0.57951,5.43018 1.04145,10.88595 1.50827,16.33795 0.25997,4.62201 0.52905,9.23269 1.0381,13.81552 0.55425,3.71742 0.96536,7.46995 1.45772,11.20322 0.39832,2.71581 0.58578,5.4692 0.66346,8.23556 0.0222,3.46942 0.0191,6.93887 0.035,10.40836 0.003,0.47071 -0.0105,0.94203 0.007,1.41214 0.0105,0.28755 0.0377,0.57427 0.0758,0.85717 0.0165,0.1224 0.0544,0.46835 0.0873,0.35273 0.98936,-3.48624 -11.32709,9.68673 -8.09449,5.18128 1.0318,-3.18536 1.27207,-6.76949 1.62055,-10.1994 0.45198,-5.93219 0.92051,-11.86497 1.2599,-17.81276 0.39845,-5.14654 0.70669,-10.30241 0.86936,-15.47429 0.0322,-4.91255 0.52847,-9.77877 0.91106,-14.65194 0.33429,-4.54856 0.38365,-9.12031 0.68059,-13.67249 0.18764,-3.489496 0.40488,-6.965746 0.72654,-10.435966 0.16375,-2.46113 0.44024,-4.89731 0.82391,-7.30889 1.15119,-6.37608 0.69995,-3.89268 9.40791,-8.67272 0.17864,-0.0981 0.30755,1.26789 0.475,2.694 0.27294,4.85127 0.78028,9.67263 1.34188,14.47264 0.42954,4.04685 1.02029,8.054536 1.41284,12.109196 0.29788,3.51433 0.34567,7.05758 0.37972,10.59261 0.0206,2.80809 0.0248,5.61644 0.0321,8.42466 0.004,1.97992 -0.0545,3.95125 0.15857,5.91282 0.28762,2.22905 0.38004,4.48783 0.60568,6.7296 0.45207,2.73285 0.77062,5.50101 1.20186,8.23942 0.0814,0.3539 0.14233,0.7184 0.24414,1.06169 0.0581,0.19598 0.10571,0.43169 0.23276,0.54646 0.058,0.0524 0.131,-0.31659 0.0693,-0.27361 -2.81831,1.96174 -5.53042,4.22631 -8.3902,6.06561 -0.27068,0.17412 0.3925,-0.63923 0.53014,-1.01028 0.2076,-0.55965 0.33157,-1.17312 0.49736,-1.75966 1.32049,-6.19867 2.04008,-12.63493 2.66733,-19.03586 0.5466,-6.47423 1.33727,-12.8743 2.46092,-19.19615 0.78711,-4.50049 2.04762,-8.80385 3.33574,-13.058936 1.01005,-2.73896 1.54096,-5.71976 2.18453,-8.646 0.38634,-1.85488 0.64496,-3.75482 0.96052,-5.63564 0.96235,-7.35153 3.12631,-5.37722 9.98599,-9.92391 1.64279,5.57399 2.75072,11.44231 3.92879,17.23781 1.49078,7.900276 2.97661,15.802136 4.4193,23.720186 1.26902,6.55844 2.38881,13.17091 3.50018,19.78494 0.79632,4.46799 1.04367,9.06267 1.48231,13.61224 0.23392,3.21364 0.47304,6.41346 0.81349,9.6088 0.78673,5.43243 2.26911,0.99224 -8.45371,6.77024 -0.23841,0.12847 0.14206,-0.68973 0.20411,-1.03791 0.19669,-1.10402 0.3727,-2.21517 0.56548,-3.32054 0.91604,-4.92191 1.13196,-10.00801 1.29818,-15.06696 0.15909,-6.14982 0.14338,-12.30509 0.13991,-18.45794 -0.009,-5.23483 -0.0921,-10.4644 0.12906,-15.6921 0.36359,-4.36439 1.23256,-8.55925 2.49223,-12.566156 1.10776,-3.67668 2.81814,-6.88666 4.35014,-10.21978 2.33015,-4.49494 8.19617,-12.19905 10.40881,-6.15363 0.95452,2.60799 1.19249,5.83668 1.59096,8.66364 1.11163,8.185396 2.39752,16.314006 3.97992,24.344706 1.02189,5.3985 2.05901,10.79059 3.01665,16.21249 0.75452,4.18779 1.07405,8.49156 1.59576,12.74027 0.55739,3.36261 0.71479,6.81131 1.06646,10.217 0.003,0.0226 0.15036,1.707 0.34744,1.92585 0.0716,0.0795 0.18805,-0.41117 0.10624,-0.35449 -2.80926,1.94641 -5.52808,4.14564 -8.34704,6.06417 -0.21302,0.14497 0.37412,-0.4308 0.49277,-0.71872 0.18881,-0.45815 0.27519,-0.98578 0.41279,-1.47866 0.91178,-5.3512 1.61968,-10.75964 2.30434,-16.17498 0.91334,-6.96238 1.16247,-14.0386 1.31452,-21.09988 0.13124,-5.96993 0.36801,-11.90355 1.04301,-17.80146 0.40195,-3.64018 0.65465,-7.286166 1.31249,-10.857286 0.48034,-2.42733 1.33678,-4.64717 1.84976,-7.05908 0.28629,-1.50553 0.7256,-2.93634 1.10934,-4.39193 3.05201,-1.76925 5.98358,-4.02387 9.15603,-5.30774 0.35105,-0.14207 0.19478,0.99101 0.26558,1.49486 0.1019,0.72518 0.14477,1.46545 0.25208,2.18909 0.4505,3.03753 1.13049,6.03194 1.72787,9.01542 1.40266,6.79333 2.6671,13.613146 3.41927,20.610966 0.6028,4.5858 0.97086,9.1986 1.11832,13.85412 0.0788,4.85052 0.0402,9.69555 0.29431,14.53636 0.0831,2.67122 0.40799,5.22964 1.35606,7.55188 0.71802,1.36732 1.17885,2.95529 1.91195,4.30517 3.30596,0.45802 1.12565,0.10294 -8.18018,5.96834 -0.29797,0.18783 0.47448,-0.64964 0.63328,-1.05078 0.84978,-2.14668 1.16955,-4.92212 1.61618,-7.26045 1.00959,-5.90358 1.63122,-11.92242 2.27632,-17.92144 0.63933,-5.4094 1.2677,-10.82612 2.18144,-16.15902 0.58285,-3.59215 1.54906,-7.00493 2.40487,-10.47322 0.89391,-3.27226 2.17675,-6.309336 3.42696,-9.333446 3.04416,-7.99067 2.10807,-7.52658 11.14097,-13.04716 0.39262,-0.23992 0.55593,0.91549 0.83388,1.37323 0.18837,0.61487 0.40958,1.21182 0.5651,1.8446 0.29694,1.20822 0.68032,3.6699 0.87604,4.86516 0.49756,3.03874 0.95804,6.08141 1.38645,9.14092 0.83598,7.774116 1.95972,15.476286 2.65565,23.279336 0.37519,5.51637 0.63224,11.04177 1.01979,16.5568 0.32352,3.5542 0.30285,7.10414 0.10828,10.66613 -0.52598,8.7362 1.29185,3.64828 -8.87699,10.36379 0.16015,-0.20906 0.34349,-0.38783 0.48052,-0.62717 1.68605,-2.94516 2.92372,-7.58788 4.05741,-10.9927 2.75752,-8.34779 5.73398,-16.5531 8.71524,-24.7471 3.06273,-8.03368 6.15023,-16.045 9.02392,-24.21757 1.44068,-4.098616 2.98264,-8.124096 4.44226,-12.208796 1.63234,-4.69679 7.33406,-12.29583 9.6342,-7.18563 0.54063,1.2011 0.53185,2.82297 0.61925,4.1739 0.19596,4.97355 0.0887,9.95607 0.21659,14.93197 0.28358,5.929896 0.62996,11.860966 1.04138,17.777316 0.34683,5.44644 0.89666,10.87344 1.64035,16.2406 0.71474,3.92239 1.61124,7.75932 2.18796,11.73185 0.583,3.63669 1.42137,7.18469 2.15,10.76987 0.56515,2.97224 0.81173,6.03733 0.9266,9.10225 0.15715,2.662 0.002,5.30148 -0.21964,7.94366 -0.0808,2.10098 -0.45666,4.26037 -0.29443,6.3702 -1.23359,-5.22975 0.14565,-0.48086 -8.45318,5.36446 -0.26579,0.18069 0.30329,-0.7127 0.44107,-1.07981 0.73097,-1.94772 1.40373,-3.94764 2.08225,-5.93178 1.97052,-6.06116 3.72475,-12.24026 5.41896,-18.46151 1.56781,-5.55173 3.28084,-11.0199 5.01892,-16.47 1.37637,-4.33586 2.73457,-8.68313 4.11489,-13.01633 1.62611,-4.99971 0.0381,-1.71161 9.24891,-6.35602 0.25262,-0.12735 -0.20788,0.69575 -0.31369,1.04251 -0.50034,1.63995 -0.35943,1.17845 -0.9292,2.90028 -0.98366,3.7121 -2.28101,7.19919 -3.60783,10.68353 -1.2432,3.53838 -2.48253,7.0799 -3.71076,10.62884 -1.30633,3.23253 -1.98475,6.79396 -2.74254,10.32073 -0.62782,3.38798 -1.42603,6.68573 -2.43349,9.88589 -0.98358,3.00863 -2.04483,5.96665 -3.12487,8.90883 -1.07111,2.72566 -1.84131,5.63713 -2.65471,8.52203 -0.80325,2.93279 -1.96038,5.6309 -3.01992,8.38636 -0.93096,2.26012 -1.59267,4.70981 -2.16765,7.18587 -0.42622,2.47198 -1.22921,4.76218 -1.81318,7.16038 -0.405,2.60266 -0.90719,5.1599 -1.42634,7.72182 -0.44888,2.95859 -0.99888,5.88441 -1.43683,8.84596 -0.44703,2.87843 -0.43923,5.83077 -0.63308,8.74872 -0.33373,2.11087 -0.27207,4.21293 -0.16462,6.34572 0.007,1.78557 0.18433,3.46251 0.70671,5.08663 0.43408,1.44744 1.15178,2.62521 1.59418,4.07787 0.45904,1.7649 0.5277,3.64817 0.57712,5.50682 0,0 -8.7984,6.35069 -8.7984,6.35069 v 0 c -0.0286,-1.69511 -0.0479,-3.42068 -0.4168,-5.05136 -0.41873,-1.45239 -1.19408,-2.57199 -1.5871,-4.03747 -0.56902,-1.77054 -0.85842,-3.57317 -0.84398,-5.53138 -0.13266,-2.21571 -0.26834,-4.41268 0.1008,-6.60787 0.31496,-2.93755 0.20808,-5.94846 0.63488,-8.87275 0.42039,-2.98215 0.9838,-5.91718 1.38396,-8.90368 0.46303,-2.59953 1.13677,-5.11317 1.41422,-7.77929 0.49735,-2.43673 1.34769,-4.68785 1.78996,-7.13857 0.53327,-2.56001 1.20476,-5.11085 2.12635,-7.44314 1.01631,-2.76385 2.24442,-5.38228 3.07064,-8.27775 0.88553,-2.86715 1.52217,-5.88665 2.60783,-8.63572 1.12694,-2.90215 2.15579,-5.88236 3.17811,-8.85929 1.06803,-3.11088 1.86812,-6.36635 2.48937,-9.70895 0.76343,-3.58412 1.37685,-7.24329 2.70022,-10.53218 1.21931,-3.57532 2.48587,-7.11639 3.71044,-10.68835 1.30442,-3.45681 2.69697,-6.8492 3.5787,-10.58178 0.17088,-0.51904 0.72464,-2.17769 0.89429,-2.77552 0.0928,-0.32694 0.0251,-0.82964 0.24489,-0.99826 10.83331,-8.31164 10.9032,-10.00087 8.70794,-5.22687 -1.5948,4.22818 -2.8033,8.73648 -4.25603,13.06241 -1.76646,5.42814 -3.47526,10.89282 -5.0726,16.42309 -1.73824,6.19845 -3.46645,12.39774 -5.35151,18.51072 -1.49157,4.73306 -6.38971,22.03825 -11.66079,13.82246 -0.27692,-2.20848 0.23013,-4.54353 0.25271,-6.76485 0.23405,-2.5745 0.44369,-5.1348 0.29702,-7.7366 -0.0867,-2.97681 -0.24515,-5.96284 -0.78433,-8.85665 -0.70289,-3.63509 -1.51887,-7.22351 -2.19612,-10.86681 -0.50007,-4.00893 -1.38687,-7.85745 -2.10415,-11.79281 -0.72356,-5.42295 -1.27715,-10.89347 -1.62905,-16.38955 -0.41336,-5.93532 -0.74722,-11.88682 -1.0865,-17.8299 -0.16535,-4.92507 -0.0569,-9.861156 -0.30712,-14.782246 -0.51591,-7.10232 -1.90206,-1.93898 7.79551,-9.75466 0.18583,-0.14976 -0.25642,0.4824 -0.38462,0.7236 -1.62763,4.06117 -3.11681,8.2334 -4.69776,12.33117 -2.93798,8.186186 -6.07975,16.219516 -9.14795,24.308836 -2.9463,8.13989 -5.93752,16.2604 -8.58351,24.60381 -0.86726,2.6947 -1.65071,5.46864 -2.55431,8.13807 -1.4637,4.32412 0.10576,-0.62133 -1.17736,2.86978 -0.12086,0.32882 -0.19333,0.68856 -0.29002,1.03286 -9.58139,6.53939 -9.79259,10.40908 -9.14731,0.97299 0.234,-3.50188 0.33725,-6.98458 0.0248,-10.4908 -0.32392,-5.54408 -0.5173,-11.09523 -0.8463,-16.63806 -0.64404,-7.77489 -1.66678,-15.46345 -2.65685,-23.16349 -0.43052,-3.03277 -0.91561,-6.03567 -1.43802,-9.039726 -0.18521,-1.06514 -0.58987,-3.46503 -0.87776,-4.57314 -0.12056,-0.46401 -0.30094,-0.89284 -0.45139,-1.33928 -3.18896,-0.92125 -0.86472,-0.18106 7.6165,-6.81066 0.28619,-0.2237 -0.42052,0.70977 -0.59354,1.10067 -0.63599,1.43697 -1.0078,3.08044 -1.62465,4.53265 -1.27918,2.92203 -2.47988,5.93159 -3.48976,9.05418 -0.82912,3.486356 -1.9189,6.838076 -2.52583,10.431046 -0.99542,5.29112 -1.64899,10.68797 -2.28944,16.08447 -0.64509,6.03584 -1.29183,12.08242 -2.22714,18.04497 -0.81818,4.59955 -3.49161,25.33565 -11.31006,15.29705 -0.72327,-1.42912 -1.22958,-3.03631 -1.95127,-4.46833 -0.99707,-2.54105 -1.39843,-5.2699 -1.44063,-8.17971 -0.24176,-4.85638 -0.18092,-9.71449 -0.29253,-14.57902 -0.14935,-4.62329 -0.46883,-9.22262 -1.00235,-13.79235 -0.65181,-6.96575 -1.82356,-13.77107 -3.30055,-20.483086 -0.63664,-3.00021 -1.36778,-5.99462 -1.9153,-9.03038 -0.12198,-0.67633 -0.18999,-1.36979 -0.29813,-2.05073 -0.066,-0.41622 -0.47209,-0.9937 -0.2244,-1.23985 2.70802,-2.69106 5.72319,-4.71215 8.58478,-7.06825 -0.79706,0.73129 -0.8629,2.83966 -1.32734,3.96121 -0.43506,2.47956 -1.25817,4.71088 -1.90259,7.08433 -0.18923,0.98438 -0.41976,1.95374 -0.58213,2.94754 -0.42204,2.58325 -0.44441,5.27166 -0.86225,7.85868 -0.73096,5.868266 -1.13364,11.769016 -1.23743,17.731106 -0.15228,7.10097 -0.31884,14.22547 -1.19938,21.23844 -0.68107,5.40762 -1.36576,10.81428 -2.09463,16.20693 -0.0742,0.4797 -0.40487,2.83017 -0.54679,2.95252 -3.0088,2.5943 -7.72848,10.37061 -9.62997,6.18992 -0.24909,-0.54766 -0.32513,-1.65375 -0.3929,-2.22511 -0.36117,-3.40516 -0.41728,-6.87455 -0.97595,-10.24353 -0.52716,-4.22092 -0.85623,-8.49123 -1.54547,-12.66966 -0.95039,-5.43322 -1.87302,-10.87558 -2.86272,-16.29527 -1.52202,-8.07368 -2.74521,-16.24329 -4.03449,-24.394986 -0.25703,-1.6624 -0.64612,-4.42687 -1.0405,-6.11017 -0.14651,-0.62528 -0.32321,-1.24142 -0.54996,-1.81742 -0.0763,-0.19368 -0.47525,-0.33134 -0.34441,-0.45445 2.58749,-2.43416 5.32054,-4.54847 8.00893,-6.75596 0.23519,-0.19311 -0.42897,0.47205 -0.64345,0.70807 -1.49507,3.35136 -3.31157,6.44232 -4.45805,10.08042 -1.30191,3.86215 -2.20757,7.888696 -2.65798,12.127956 -0.27704,5.21544 -0.24559,10.43346 -0.22968,15.6619 -0.006,6.16966 -0.0141,12.34008 -0.12274,18.50822 -0.13341,5.0972 -0.26017,10.2354 -1.09934,15.22084 -0.22121,1.35789 -0.32672,1.92335 -0.4954,3.23978 -0.0484,0.37765 0.10219,0.93013 -0.12763,1.13707 -7.83705,7.05674 -8.56986,11.75038 -9.20797,5.6206 -0.3148,-3.2164 -0.57709,-6.42892 -0.7685,-9.66519 -0.39296,-4.53668 -0.61101,-9.11073 -1.32171,-13.58177 -1.04829,-6.63589 -2.16874,-13.25033 -3.40422,-19.8224 -1.41326,-7.91594 -2.84894,-15.82206 -4.39565,-23.688896 -1.1302,-5.46425 -2.20723,-10.99844 -3.94369,-16.15856 2.84772,-2.19829 5.71977,-4.3354 8.54317,-6.59487 0.0938,-0.0751 -0.2273,-0.0513 -0.32368,0.0171 -0.70495,0.50048 -0.77943,2.04739 -0.90837,2.96276 -0.29057,1.93134 -0.63255,3.8426 -0.94997,5.76411 -0.68962,2.96546 -1.20305,6.01607 -2.20023,8.82395 -1.37887,4.18487 -2.66412,8.477136 -3.53068,12.929496 -0.3476,1.91598 -0.74453,3.81533 -1.04733,5.74625 -0.6909,4.40577 -1.0425,8.91638 -1.54337,13.36706 -0.594,6.41858 -1.30718,12.84818 -2.40097,19.13668 -0.0803,0.41868 -0.57152,3.14653 -0.70941,3.26931 -6.1704,5.49527 -8.4305,11.44938 -9.98831,4.4878 -0.42329,-2.77192 -0.74126,-5.57016 -1.23237,-8.32197 -0.24615,-2.22495 -0.38609,-4.45842 -0.64047,-6.68088 -0.25158,-2.03812 -0.26438,-4.06364 -0.21057,-6.13155 0.0158,-2.81546 0.0335,-5.63092 0.0262,-8.44651 -0.0199,-3.48927 -0.0439,-6.98528 -0.3134,-10.45808 -0.35392,-4.05963 -0.9316,-8.06811 -1.32997,-12.11903 -0.55211,-4.777836 -1.03589,-9.576666 -1.44651,-14.382256 -0.0548,-0.42979 -0.10445,-0.86095 -0.16438,-1.28938 -0.0242,-0.17311 -0.19507,-0.42272 -0.088,-0.51464 12.78861,-10.97626 9.02835,-10.34058 7.95194,-4.68937 -0.47811,2.34459 -0.71229,4.77483 -0.90696,7.19283 -0.35531,3.46558 -0.64143,6.92949 -0.80038,10.42582 -0.33025,4.568546 -0.44396,9.153346 -0.73761,13.727336 -0.35459,4.84716 -0.87587,9.67839 -0.91465,14.56087 -0.16826,5.19697 -0.47376,10.37863 -0.89825,15.54728 -0.33435,5.96506 -0.88281,11.89958 -1.23565,17.86234 -0.26423,3.55503 -0.53394,7.11655 -1.25715,10.55833 -1.53656,6.72816 -10.80138,12.84874 -9.86014,4.12824 0.0208,-3.44734 0.0358,-6.89608 -0.0441,-10.34224 -0.0677,-2.71081 -0.20038,-5.41854 -0.55946,-8.08902 -0.47965,-3.7588 -0.85511,-7.54085 -1.42241,-11.27766 -0.47554,-4.60653 -0.82641,-9.22727 -1.03599,-13.87363 -0.4123,-5.4446 -0.83463,-10.89409 -1.42731,-16.30542 -0.64959,-5.18529 -1.22995,-10.38761 -1.87831,-15.573166 -0.0618,-0.5504 -0.10996,-1.10418 -0.1854,-1.65122 -0.0583,-0.42285 -0.46669,-1.00947 -0.21555,-1.25614 2.71967,-2.67124 5.75318,-4.64757 8.61892,-6.99761 0.076,-0.0622 -0.18432,0.0447 -0.2466,0.13191 -0.2148,0.30112 -0.39655,1.0899 -0.49024,1.42102 -0.36986,2.17696 -0.93686,4.27214 -1.8462,6.12665 -1.10973,2.26589 -1.77598,4.907586 -2.64355,7.363476 -0.82061,2.34602 -1.68398,4.63876 -2.57986,6.92999 -0.64914,2.1062 -1.42923,4.1088 -2.22555,6.1089 -0.95444,3.04906 -1.94751,6.07586 -2.66461,9.25955 -0.67629,3.33908 -1.55031,6.61551 -2.05551,10.00641 -0.28843,3.29957 -0.83811,6.54374 -0.94638,9.87461 -0.2425,4.76233 -0.0538,9.54848 -0.21047,14.31804 -0.14567,5.33597 -0.29171,10.68916 -0.92197,15.96471 -0.23003,2.18865 -0.40525,4.38607 -0.64645,6.57213 -0.0561,0.50831 0.11996,1.22783 -0.18004,1.52225 -2.83349,2.78076 -5.90834,5.04482 -8.92526,7.41368 -0.0925,0.0726 0.0308,-0.29469 0.0462,-0.44205 0.0438,-2.31055 0.13048,-4.62011 0.33616,-6.91495 0.2339,-2.70047 0.47433,-5.37914 0.45348,-8.10883 0.11641,-3.06332 0.33559,-6.11286 0.54655,-9.1656 0.002,-2.48519 -0.004,-4.97132 -0.0793,-7.4547 -0.0877,-2.2086 -0.25534,-4.40498 -0.42683,-6.60344 -0.11484,-2.73152 0.23111,-5.43073 0.42296,-8.14425 0.20916,-3.08503 0.0415,-6.19445 0.008,-9.28815 -0.11086,-3.17207 -0.29263,-6.33802 -0.62923,-9.48043 -0.021,-0.39291 -0.0353,-0.78665 -0.0632,-1.17867 -0.0225,-0.31623 -0.2773,-0.7718 -0.088,-0.94536 12.16579,-11.15197 9.52318,-10.65741 8.16383,-5.25113 -0.17494,1.83696 -0.59535,3.57843 -0.77037,5.40632 -0.2129,2.08852 -0.57241,4.12579 -0.77532,6.21399 -0.3747,2.65344 -0.74995,5.29455 -1.02978,7.97331 -0.54245,3.83203 -1.06646,7.66646 -1.64464,11.48858 -0.50392,3.00504 -1.18429,5.97384 -1.33818,9.0713 -0.21137,2.57978 -0.51255,5.15178 -0.81802,7.70989 -0.49652,2.71977 -1.13407,5.3835 -1.65518,8.09444 -0.4689,3.27562 -0.64623,6.62223 -0.82362,9.94991 -0.24052,2.69771 -0.58625,5.36174 -0.93803,8.0338 -0.26746,2.34185 -0.1672,4.74337 -0.54196,7.06833 -0.3425,2.35304 -0.45795,4.72908 -0.65415,7.11474 -0.20311,2.39928 -0.27455,4.78735 -0.20884,7.20661 0.002,2.35519 0.0149,4.71125 0.0903,7.06443 0.1113,2.85283 0.32661,5.68822 0.57917,8.52275 0.0518,3.12048 0.16214,6.24724 0.59222,9.31781 0.4862,3.34193 1.15248,6.63907 1.42209,10.03668 0,0 -8.81534,6.31495 -8.81534,6.31495 z"
       inkscape:connector-curvature="0" />
    <rect
       style="fill:none;fill-opacity:1;stroke:#fcf5f9;stroke-width:8;stroke-miterlimit:4;stroke-dasharray:none;stroke-opacity:1"
       id="rect1332"
       width="218.26801"
       height="125.79835"
       x="-159.78418"
       y="154.60783" />
    <path
       id="rect1334"
       style="fill:none;fill-opacity:1;stroke:#fcf5f9;stroke-width:8;stroke-miterlimit:4;stroke-dasharray:none;stroke-opacity:1"
       d="M -148.98215,305.25011 H 43.234102 c 1.018991,0 1.514175,0.94476 1.839333,1.98914 l 12.968221,41.65246 c 0,0 -16.382211,-0.82077 -17.401191,-0.81575 l -189.622615,0.93496 c -1.01898,0.005 -15.13267,0.92515 -14.80752,-0.11922 l 12.96819,-41.65245 c 0.32516,-1.04438 0.82034,-1.98914 1.83933,-1.98914 z"
       sodipodi:nodetypes="ssscsssss" />
    <rect
       style="fill:#fcf5f9;fill-opacity:1;stroke:#fcf5f9;stroke-width:0.622261;stroke-miterlimit:4;stroke-dasharray:none;stroke-opacity:1"
       id="rect1337"
       width="26.800919"
       height="17.02788"
       x="-66.641602"
       y="282.53528"
       ry="0" />
    <rect
       style="fill:none;fill-opacity:1;stroke:#fcf5f9;stroke-width:6.66784;stroke-miterlimit:4;stroke-dasharray:none;stroke-opacity:1"
       id="rect1339"
       width="141.38895"
       height="236.52795"
       x="-333.07281"
       y="117.65137"
       ry="36.136215"
       transform="matrix(6.0554644e-4,-0.99999982,0.99999989,4.7562999e-4,0,0)" />
    <rect
       style="fill:none;fill-opacity:1;stroke:#fcf5f9;stroke-width:7.47299;stroke-miterlimit:4;stroke-dasharray:none;stroke-opacity:1"
       id="rect1341"
       width="118.2105"
       height="181.77725"
       x="-320.87701"
       y="132.76556"
       ry="11.103717"
       transform="matrix(6.0554644e-4,-0.99999982,0.99999989,4.7562999e-4,0,0)" />
    <ellipse
       style="fill:none;fill-opacity:1;stroke:#fcf5f9;stroke-width:6.12294;stroke-miterlimit:4;stroke-dasharray:none;stroke-opacity:1"
       id="path1343"
       cx="-262.3783"
       cy="335.16357"
       rx="10.513177"
       ry="10.762508"
       transform="matrix(6.0554644e-4,-0.99999982,0.99999989,4.7562999e-4,0,0)" />
    <rect
       style="fill:none;fill-opacity:1;stroke:#fcf5f9;stroke-width:3.85359;stroke-miterlimit:4;stroke-dasharray:none;stroke-opacity:1"
       id="rect1339-2"
       width="68.33902"
       height="163.45216"
       x="403.4567"
       y="187.79367"
       ry="24.971859"
       transform="matrix(0.99989912,-0.01420392,0.01473697,0.9998914,0,0)" />
    <rect
       style="fill:none;fill-opacity:1;stroke:#fcf5f9;stroke-width:4.31892;stroke-miterlimit:4;stroke-dasharray:none;stroke-opacity:1"
       id="rect1341-0"
       width="57.135933"
       height="125.61681"
       x="409.35144"
       y="198.23834"
       ry="7.6732016"
       transform="matrix(0.99989912,-0.01420392,0.01473697,0.9998914,0,0)" />
    <ellipse
       style="fill:none;fill-opacity:1;stroke:#fcf5f9;stroke-width:3.53868;stroke-miterlimit:4;stroke-dasharray:none;stroke-opacity:1"
       id="path1343-9"
       cx="437.62622"
       cy="338.10504"
       rx="5.0814452"
       ry="7.4374094"
       transform="matrix(0.99989912,-0.01420392,0.01473697,0.9998914,0,0)" />
    <path
       style="fill:#57fd41;fill-opacity:1;stroke:#57fd41;stroke-width:10.3457;stroke-miterlimit:4;stroke-dasharray:none;stroke-opacity:1"
       id="path1373"
       d="m -115.95444,403.61761 c 4.79772,2.94071 9.14396,6.62062 13.50883,10.26147 7.74621,6.03928 14.771167,13.04418 21.044889,20.8688 5.136601,6.24004 9.714598,12.96817 14.246047,19.73727 0.729756,0.93695 4.945594,7.36706 6.409482,6.39811 6.024288,-3.98738 11.718314,-8.55039 17.57749,-12.82559 3.592123,-9.62036 5.998561,-19.73365 8.631214,-29.71047 3.47125,-13.13952 7.831272,-25.93759 13.155871,-38.29411 7.172453,-15.23169 15.6330618,-29.68072 23.6643098,-44.3777 4.7931717,-8.47501 9.3705642,-17.09407 13.9230172,-25.72735 0,0 -17.3504127,8.51543 -17.3504127,8.51543 v 0 c -4.3572009,8.56 -8.7403126,17.1029 -13.4381013,25.44466 -7.948719,14.7463 -16.291953,29.25929 -23.471694,44.48326 -1.137492,2.57283 -2.345114,5.1095 -3.412509,7.71841 -4.09471,10.00814 -6.896889,20.59388 -9.920175,31.02588 -2.729538,9.98254 -5.071245,20.29629 -9.524488,29.54861 5.177102,-3.05954 10.239504,-6.36692 15.531289,-9.17864 0.328173,-0.17437 -0.101813,0.86932 -0.380104,1.12831 -0.197303,0.18359 -0.553913,0.0953 -0.773428,-0.0547 -1.697483,-1.15945 -2.521669,-3.58127 -4.072462,-4.91925 -4.741699,-6.68037 -9.525184,-13.32726 -14.695401,-19.61811 -6.31322,-7.91757 -13.315125,-15.07806 -21.014446,-21.35469 -4.282199,-3.73415 -8.52109,-7.50153 -13.174725,-10.67426 0,0 -16.464493,11.6047 -16.464493,11.6047 z" />
    <path
       style="fill:#57fd41;fill-opacity:1;stroke:#57fd41;stroke-width:10.3457;stroke-miterlimit:4;stroke-dasharray:none;stroke-opacity:1"
       id="path1373-2"
       d="m 152.36959,408.98116 c 4.79772,2.94071 9.14396,6.62062 13.50883,10.26147 7.74621,6.03928 14.77117,13.04418 21.04489,20.8688 5.1366,6.24004 9.7146,12.96817 14.24605,19.73727 0.72975,0.93695 4.94559,7.36706 6.40948,6.39811 6.02429,-3.98738 11.71831,-8.55039 17.57749,-12.82559 3.59212,-9.62036 5.99856,-19.73365 8.63121,-29.71047 3.47125,-13.13952 7.83127,-25.93759 13.15587,-38.29411 7.17246,-15.23169 15.63306,-29.68072 23.66431,-44.3777 4.79317,-8.47501 9.37057,-17.09407 13.92302,-25.72735 0,0 -17.35041,8.51543 -17.35041,8.51543 v 0 c -4.3572,8.56 -8.74032,17.1029 -13.4381,25.44466 -7.94872,14.7463 -16.29196,29.25929 -23.4717,44.48326 -1.13749,2.57283 -2.34511,5.1095 -3.41251,7.71841 -4.09471,10.00814 -6.89689,20.59388 -9.92017,31.02588 -2.72954,9.98254 -5.07125,20.29629 -9.52449,29.54861 5.1771,-3.05954 10.2395,-6.36692 15.53129,-9.17864 0.32817,-0.17437 -0.10181,0.86932 -0.38011,1.12831 -0.1973,0.18359 -0.55391,0.0953 -0.77342,-0.0547 -1.69749,-1.15945 -2.52167,-3.58127 -4.07247,-4.91925 -4.74169,-6.68037 -9.52518,-13.32726 -14.6954,-19.61811 -6.31321,-7.91757 -13.31512,-15.07806 -21.01444,-21.35469 -4.2822,-3.73415 -8.52109,-7.50153 -13.17472,-10.67426 0,0 -16.4645,11.6047 -16.4645,11.6047 z" />
    <g
       id="g1421"
       transform="matrix(1.0106954,0,0,1.1041462,7.9955727,-285.71862)">
      <path
         style="fill:#fd4941;fill-opacity:1;stroke:#fd4941;stroke-width:7.99999;stroke-miterlimit:4;stroke-dasharray:none;stroke-opacity:1"
         id="path1406"
         d="m 359.57228,565.28115 c 6.93039,3.35653 13.73516,6.97407 20.62469,10.41852 6.75326,3.2127 13.27285,6.89546 19.55933,10.94121 4.98004,3.31134 9.89393,6.73026 14.75322,10.2171 6.48268,4.47092 12.19099,9.90954 18.17375,14.99711 7.13449,5.75823 14.02506,11.8346 20.64671,18.17563 5.51629,5.14289 9.93473,11.20256 13.85538,17.6031 3.0625,4.96943 5.67502,10.19154 8.42544,15.33422 2.41917,4.13816 3.97233,8.65751 5.5661,13.15137 0.20095,0.60812 0.4019,1.21624 0.60285,1.82436 0,0 13.71899,-7.57211 13.71899,-7.57211 v 0 c -0.21725,-0.60891 -0.43447,-1.21785 -0.6517,-1.82676 -1.67859,-4.54136 -3.30356,-9.11633 -5.7441,-13.32273 -2.84676,-5.12061 -5.50831,-10.34653 -8.58123,-15.33993 -4.03569,-6.49848 -8.68937,-12.54831 -14.26348,-17.82196 -6.70031,-6.2824 -13.53568,-12.44304 -20.6221,-18.28641 -5.99443,-5.10657 -11.74705,-10.51031 -18.09692,-15.18957 -4.85775,-3.53433 -9.755,-7.03832 -14.81399,-10.27626 -6.35672,-4.09686 -13.01141,-7.73375 -19.85515,-10.95153 -6.85433,-3.38323 -13.69116,-6.83961 -20.16647,-10.91401 0,0 -13.13132,8.83865 -13.13132,8.83865 z" />
      <path
         style="fill:#fd4941;fill-opacity:1;stroke:#fd4941;stroke-width:7.99999;stroke-miterlimit:4;stroke-dasharray:none;stroke-opacity:1"
         id="path1408"
         d="m 384.12077,672.61199 c 0.5184,-3.30975 1.59242,-6.4852 2.31423,-9.75055 0.7797,-2.34202 1.36636,-4.81862 2.48682,-7.0257 0.84984,-1.80382 1.18425,-3.78036 1.70495,-5.69365 0.47887,-2.1328 1.29024,-4.19571 2.25899,-6.15299 1.17369,-2.10272 2.28933,-4.23584 3.40645,-6.37135 0.85254,-2.12931 1.49749,-4.36168 2.02253,-6.59728 0.89583,-2.33061 1.69188,-4.73874 2.98355,-6.88464 1.26177,-2.13487 2.62512,-4.201 3.91869,-6.32164 1.36125,-2.37844 3.05673,-4.52943 4.5707,-6.80434 2.17842,-2.4334 4.06821,-5.10101 6.10032,-7.654 1.84861,-2.98974 4.43663,-5.37101 6.93592,-7.80299 0.43063,-0.35335 0.83724,-0.73818 1.29188,-1.06002 0.79576,-0.56333 5.95796,-3.4675 3.17441,-1.8302 -21.3433,12.55395 -12.8221,7.41677 -7.95633,4.79295 3.8931,-2.05179 7.79724,-4.08316 11.68847,-6.13878 8.22735,-4.51745 16.52362,-8.97372 24.29507,-14.24803 2.87973,-2.10187 5.7949,-4.15385 8.64912,-6.2884 4.71649,-2.67409 12.62137,-7.69118 -8.65809,5.03523 -0.54742,0.32737 1.13739,-0.57846 1.71754,-0.84354 1.14369,-0.52261 2.15572,-0.88766 3.33018,-1.33644 4.38685,-1.72704 8.90424,-3.04152 13.43975,-4.30472 4.57674,-1.40957 9.24586,-2.49055 13.88052,-3.68985 3.5537,-0.96229 7.15811,-1.71852 10.67289,-2.8198 0,0 12.4292,-9.68851 12.4292,-9.68851 v 0 c -3.46546,1.35408 -7.13245,2.01239 -10.70327,3.02784 -4.65725,1.12202 -9.30007,2.36363 -13.91356,3.64217 -4.49419,1.35126 -9.06182,2.4611 -13.44808,4.16134 -8.34697,3.04731 -15.96356,7.6749 -23.35014,12.60576 -2.87804,2.07086 -5.7013,4.21767 -8.63717,6.20776 -4.62182,3.02368 -12.98368,7.60264 8.31713,-4.53366 0.63177,-0.35997 -1.2477,0.74734 -1.88045,1.10558 -1.31935,0.74698 -2.67481,1.42899 -3.9883,2.18665 -3.84723,2.10773 -7.7841,4.05667 -11.65638,6.11227 -7.93189,4.26546 -16.37332,7.98346 -23.19607,13.89825 -2.4969,2.48901 -4.9248,5.03161 -6.86973,7.99002 -2.02864,2.6062 -4.08908,5.18589 -6.13373,7.77833 -1.59459,2.23948 -3.10168,4.52884 -4.52511,6.88186 -1.29911,2.14487 -2.8026,4.16295 -3.91205,6.41853 -1.09847,2.34603 -2.11947,4.74826 -2.84268,7.23818 -0.57897,2.12124 -1.12991,4.28479 -2.16639,6.23657 -1.17654,2.12876 -2.22432,4.32165 -3.37269,6.46541 -0.88398,2.07561 -1.67844,4.18849 -2.17662,6.39461 -0.52274,1.85838 -0.90469,3.75994 -1.79197,5.4946 -0.86723,2.38265 -1.72085,4.77698 -2.28058,7.25437 -0.75279,3.3137 -1.73567,6.57151 -2.36617,9.91389 0,0 14.23625,-7.00109 14.23625,-7.00109 z" />
    </g>
  </g>
</svg>
