<?xml version="1.0" encoding="UTF-8" standalone="no"?>
<svg
   xmlns:dc="http://purl.org/dc/elements/1.1/"
   xmlns:cc="http://creativecommons.org/ns#"
   xmlns:rdf="http://www.w3.org/1999/02/22-rdf-syntax-ns#"
   xmlns:svg="http://www.w3.org/2000/svg"
   xmlns="http://www.w3.org/2000/svg"
   xmlns:sodipodi="http://sodipodi.sourceforge.net/DTD/sodipodi-0.dtd"
   xmlns:inkscape="http://www.inkscape.org/namespaces/inkscape"
   width="400mm"
   height="400mm"
   viewBox="0 0 400 400"
   version="1.1"
   id="svg8"
   inkscape:version="1.0.2 (e86c870879, 2021-01-15, custom)"
   sodipodi:docname="darthvader.svg">
  <defs
     id="defs2">
    <rect
       x="-92.982132"
       y="117.08333"
       width="45.357143"
       height="148.92262"
       id="rect1772" />
    <rect
       x="-120.19642"
       y="115.57143"
       width="12.85119"
       height="35.529762"
       id="rect1766" />
    <rect
       x="-92.982132"
       y="117.08333"
       width="45.357143"
       height="148.92262"
       id="rect1772-5" />
    <rect
       x="-92.982132"
       y="117.08333"
       width="45.357143"
       height="148.92262"
       id="rect1785" />
  </defs>
  <sodipodi:namedview
     id="base"
     pagecolor="#ffffff"
     bordercolor="#666666"
     borderopacity="1.0"
     inkscape:pageopacity="0.0"
     inkscape:pageshadow="2"
     inkscape:zoom="0.35"
     inkscape:cx="584.28568"
     inkscape:cy="888.95388"
     inkscape:document-units="mm"
     inkscape:current-layer="layer1"
     showgrid="false"
     inkscape:window-width="1920"
     inkscape:window-height="1017"
     inkscape:window-x="-8"
     inkscape:window-y="-8"
     inkscape:window-maximized="1"
     inkscape:document-rotation="0" />
  <metadata
     id="metadata5">
    <rdf:RDF>
      <cc:Work
         rdf:about="">
        <dc:format>image/svg+xml</dc:format>
        <dc:type
           rdf:resource="http://purl.org/dc/dcmitype/StillImage" />
        <dc:title></dc:title>
      </cc:Work>
    </rdf:RDF>
  </metadata>
  <g
     inkscape:label="Layer 1"
     inkscape:groupmode="layer"
     id="layer1"
     transform="translate(171.60118,15.964286)">
    <rect
       style="fill:#fc0d0d;fill-opacity:1;stroke:#ff0202;stroke-width:19.4729;stroke-miterlimit:4;stroke-dasharray:none;stroke-opacity:0"
       id="rect2224"
       width="120.19597"
       height="9.8273287"
       x="-244.29773"
       y="58.461998"
       ry="0.57502121"
       transform="matrix(0.53161438,-0.84698651,0.8469807,0.53162364,0,0)" />
    <rect
       style="fill:none;fill-opacity:0.87437188;stroke:none;stroke-width:0.96499997;stroke-miterlimit:4;stroke-dasharray:none;stroke-opacity:1"
       id="rect815"
       width="400"
       height="400"
       x="-171.60118"
       y="-15.964286"
       ry="1.8463206" />
    <text
       xml:space="preserve"
       id="text1770"
       style="font-style:normal;font-weight:normal;font-size:10.5833px;line-height:1.25;font-family:sans-serif;letter-spacing:0px;word-spacing:0px;white-space:pre;shape-inside:url(#rect1772);fill:#000000;fill-opacity:1;stroke:none;"
       transform="matrix(5.7215163,0,0,2.2842072,463.77035,-149.85444)"><tspan
         x="-92.982422"
         y="126.73945"><tspan>D
</tspan></tspan><tspan
         x="-92.982422"
         y="139.96858"><tspan>A
</tspan></tspan><tspan
         x="-92.982422"
         y="153.1977"><tspan>R
</tspan></tspan><tspan
         x="-92.982422"
         y="166.42683"><tspan>T
</tspan></tspan><tspan
         x="-92.982422"
         y="179.65595"><tspan>H</tspan></tspan></text>
    <text
       xml:space="preserve"
       id="text1770-9"
       style="font-style:normal;font-weight:normal;font-size:10.5833px;line-height:1.25;font-family:sans-serif;letter-spacing:0px;word-spacing:0px;white-space:pre;shape-inside:url(#rect1772-5);fill:#000000;fill-opacity:1;stroke:none;"
       transform="matrix(6.2947727,0,0,2.9973867,688.94427,-268.34481)"><tspan
         x="-92.982422"
         y="126.73945"><tspan>V
</tspan></tspan><tspan
         x="-92.982422"
         y="139.96858"><tspan>A
</tspan></tspan><tspan
         x="-92.982422"
         y="153.1977"><tspan>D
</tspan></tspan><tspan
         x="-92.982422"
         y="166.42683"><tspan>E
</tspan></tspan><tspan
         x="-92.982422"
         y="179.65595"><tspan>R</tspan></tspan></text>
    <rect
       style="fill:#0e0906;fill-opacity:1;stroke:#0b0b0b;stroke-width:0;stroke-miterlimit:0;stroke-dasharray:none;stroke-opacity:1"
       id="rect2054"
       width="103.56547"
       height="162.52977"
       x="-17.3869"
       y="113.30357"
       ry="26.538303"
       rx="18.898813" />
    <rect
       style="fill:#0e0906;fill-opacity:1;stroke:#0b0b0b;stroke-width:0;stroke-miterlimit:0;stroke-dasharray:none;stroke-opacity:1"
       id="rect2056"
       width="108.85714"
       height="108.1012"
       x="-20.410702"
       y="44.511902"
       ry="54.050598" />
    <rect
       style="fill:#0e0906;fill-opacity:1;stroke:#0b0b0b;stroke-width:0;stroke-miterlimit:0;stroke-dasharray:none;stroke-opacity:1"
       id="rect2058"
       width="122.46428"
       height="31.749998"
       x="-27.441076"
       y="85.257744"
       rx="0"
       ry="31.749998" />
    <path
       style="fill:none;stroke:#ff0202;stroke-width:0.808292;stroke-linecap:butt;stroke-linejoin:miter;stroke-miterlimit:4;stroke-dasharray:none;stroke-opacity:1"
       d="m 33.652173,153.52504 -2.435431,9.92544"
       id="path2062" />
    <path
       sodipodi:type="spiral"
       style="fill:none;fill-rule:evenodd;stroke:#ff0202;stroke-width:0.264583;stroke-opacity:1"
       id="path2064"
       sodipodi:cx="-440.62262"
       sodipodi:cy="40.732143"
       sodipodi:expansion="1"
       sodipodi:revolution="1"
       sodipodi:radius="17.40333"
       sodipodi:argument="-21.938776"
       sodipodi:t0="0.72349578"
       d="m -439.18834,53.241423 c -7.92587,2.720917 -16.09176,-2.908756 -18.26607,-10.579399 -0.26334,-0.929024 -0.44604,-1.880701 -0.54768,-2.840921"
       transform="matrix(1.9831219,0.48660404,-0.28204883,1.149471,917.27919,315.36118)" />
    <path
       sodipodi:type="spiral"
       style="fill:none;fill-rule:evenodd;stroke:#ff0202;stroke-width:0.264583;stroke-opacity:1"
       id="path2064-0"
       sodipodi:cx="-440.62262"
       sodipodi:cy="40.732143"
       sodipodi:expansion="1"
       sodipodi:revolution="1"
       sodipodi:radius="17.40333"
       sodipodi:argument="-21.938776"
       sodipodi:t0="0.72349578"
       transform="matrix(1.9862359,0.48736811,-0.11122872,0.45330514,911.90313,343.43321)"
       d="m -439.18834,53.241423 c -7.92587,2.720917 -16.09176,-2.908756 -18.26607,-10.579399 -0.26334,-0.929024 -0.44604,-1.880701 -0.54768,-2.840921" />
    <path
       style="fill:#ff0202;fill-opacity:1;stroke:#ff0202;stroke-width:2.21043;stroke-miterlimit:4;stroke-dasharray:none;stroke-opacity:1"
       d="m 18.035757,159.95457 c -5.262969,-2.02136 -9.858104,-5.07119 -13.3691242,-8.87326 -3.2472914,-3.51644 -5.23362624,-7.23485 -5.63074734,-10.54071 l -0.10352086,-0.8618 0.78762398,0.84359 c 1.32663142,1.42089 3.56515172,2.94032 6.95283942,4.71936 5.194962,2.72811 9.864605,4.47013 17.405983,6.49328 l 6.65888,1.78658 -0.981971,4.36834 -0.981969,4.36833 -1.506871,-0.12467 c -2.381146,-0.19701 -6.765431,-1.23185 -9.23116,-2.17888 z"
       id="path2086" />
    <path
       style="fill:none;stroke:#ff0202;stroke-width:0.808292;stroke-linecap:butt;stroke-linejoin:miter;stroke-miterlimit:4;stroke-dasharray:none;stroke-opacity:1"
       d="m 33.652173,153.52504 2.43543,9.92545"
       id="path2062-2" />
    <path
       sodipodi:type="spiral"
       style="fill:none;fill-rule:evenodd;stroke:#ff0202;stroke-width:0.264583;stroke-opacity:1"
       id="path2064-08"
       sodipodi:cx="-440.62262"
       sodipodi:cy="40.732143"
       sodipodi:expansion="1"
       sodipodi:revolution="1"
       sodipodi:radius="17.40333"
       sodipodi:argument="-21.938776"
       sodipodi:t0="0.72349578"
       transform="matrix(-1.9831219,0.48660404,0.28204883,1.149471,-849.97489,315.36118)"
       d="m -439.18834,53.241423 c -7.92587,2.720917 -16.09176,-2.908756 -18.26607,-10.579399 -0.26334,-0.929024 -0.44604,-1.880701 -0.54768,-2.840921" />
    <path
       sodipodi:type="spiral"
       style="fill:none;fill-rule:evenodd;stroke:#ff0202;stroke-width:0.264583;stroke-opacity:1"
       id="path2064-0-3"
       sodipodi:cx="-440.62262"
       sodipodi:cy="40.732143"
       sodipodi:expansion="1"
       sodipodi:revolution="1"
       sodipodi:radius="17.40333"
       sodipodi:argument="-21.938776"
       sodipodi:t0="0.72349578"
       transform="matrix(-1.9862359,0.48736811,0.11122872,0.45330514,-844.59879,343.43321)"
       d="m -439.18834,53.241423 c -7.92587,2.720917 -16.09176,-2.908756 -18.26607,-10.579399 -0.26334,-0.929024 -0.44604,-1.880701 -0.54768,-2.840921" />
    <path
       style="fill:#ff0202;fill-opacity:1;stroke:#ff0202;stroke-width:2.18938;stroke-miterlimit:4;stroke-dasharray:none;stroke-opacity:1"
       d="m 49.630688,159.95439 c 5.163206,-2.02135 9.671233,-5.07119 13.115691,-8.87325 3.185742,-3.51644 5.134419,-7.23485 5.524014,-10.54071 l 0.10156,-0.86181 -0.772701,0.8436 c -1.301479,1.42088 -3.497567,2.94031 -6.821035,4.71936 -5.096481,2.72811 -9.677604,4.47013 -17.076021,6.49328 l -6.532648,1.78657 0.963355,4.36834 0.963356,4.36833 1.478301,-0.12466 c 2.336007,-0.19702 6.637184,-1.23185 9.056164,-2.17888 z"
       id="path2086-4" />
    <rect
       style="fill:#867e7e;fill-opacity:1;stroke:#ff0202;stroke-width:2.10974;stroke-miterlimit:4;stroke-dasharray:none;stroke-opacity:0"
       id="rect2120"
       width="32.917164"
       height="50.30407"
       x="18.315237"
       y="178.48782"
       ry="0.48367625" />
    <g
       id="g2222"
       transform="matrix(0.82005798,0,0,0.73649006,4.8573683,17.999818)">
      <rect
         style="fill:#867e7e;fill-opacity:1;stroke:#ff0202;stroke-width:1.92446;stroke-miterlimit:4;stroke-dasharray:none;stroke-opacity:0"
         id="rect2122"
         width="7.5595236"
         height="29.657757"
         x="-0.75593698"
         y="320.18317"
         ry="0.57502306" />
      <rect
         style="fill:#867e7e;fill-opacity:1;stroke:#ff0202;stroke-width:2.12829;stroke-miterlimit:4;stroke-dasharray:none;stroke-opacity:0"
         id="rect2122-8"
         width="7.5595236"
         height="36.272793"
         x="15.667141"
         y="313.56815"
         ry="0.7032795" />
      <rect
         style="fill:#867e7e;fill-opacity:1;stroke:#ff0202;stroke-width:2.29419;stroke-miterlimit:4;stroke-dasharray:none;stroke-opacity:0"
         id="rect2122-5"
         width="7.5595236"
         height="42.148296"
         x="32.090218"
         y="307.69263"
         ry="0.81719744" />
      <rect
         style="fill:#867e7e;fill-opacity:1;stroke:#ff0202;stroke-width:2.12829;stroke-miterlimit:4;stroke-dasharray:none;stroke-opacity:0"
         id="rect2122-1"
         width="7.5595236"
         height="36.272793"
         x="48.513294"
         y="313.56815"
         ry="0.7032795" />
      <rect
         style="fill:#867e7e;fill-opacity:1;stroke:#ff0202;stroke-width:2.12829;stroke-miterlimit:4;stroke-dasharray:none;stroke-opacity:0"
         id="rect2122-51"
         width="7.5595236"
         height="36.272793"
         x="64.936371"
         y="313.56815"
         ry="0.7032795" />
      <path
         style="fill:none;stroke:#000000;stroke-width:19.473;stroke-linecap:butt;stroke-linejoin:miter;stroke-miterlimit:4;stroke-dasharray:none;stroke-opacity:1"
         d="m 31.080992,303.07193 -40.2015234,31.3362"
         id="path2173" />
      <path
         style="fill:none;stroke:#000000;stroke-width:19.473;stroke-linecap:butt;stroke-linejoin:miter;stroke-miterlimit:4;stroke-dasharray:none;stroke-opacity:1"
         d="m 41.282581,302.5742 40.20152,31.3362"
         id="path2173-0" />
    </g>
    <ellipse
       style="fill:#867e7e;fill-opacity:1;stroke:#ff0202;stroke-width:8.0884;stroke-miterlimit:4;stroke-dasharray:none;stroke-opacity:0"
       id="path2226"
       cx="-7.5595179"
       cy="272.05356"
       rx="5.6922998"
       ry="4.936347" />
    <ellipse
       style="fill:#867e7e;fill-opacity:1;stroke:#ff0202;stroke-width:8.0884;stroke-miterlimit:4;stroke-dasharray:none;stroke-opacity:0"
       id="path2226-7"
       cx="76.955963"
       cy="272.05356"
       rx="5.6922998"
       ry="4.936347" />
  </g>
</svg>
