<?xml version="1.0" encoding="UTF-8" standalone="no"?>
<svg
   xmlns:dc="http://purl.org/dc/elements/1.1/"
   xmlns:cc="http://creativecommons.org/ns#"
   xmlns:rdf="http://www.w3.org/1999/02/22-rdf-syntax-ns#"
   xmlns:svg="http://www.w3.org/2000/svg"
   xmlns="http://www.w3.org/2000/svg"
   xmlns:sodipodi="http://sodipodi.sourceforge.net/DTD/sodipodi-0.dtd"
   xmlns:inkscape="http://www.inkscape.org/namespaces/inkscape"
   width="400mm"
   height="400mm"
   viewBox="0 0 400 400"
   version="1.1"
   id="svg8"
   inkscape:version="1.0.2 (e86c870879, 2021-01-15, custom)"
   sodipodi:docname="emperor.svg">
  <defs
     id="defs2">
    <rect
       x="-92.982132"
       y="117.08333"
       width="45.357143"
       height="148.92262"
       id="rect1772" />
    <rect
       x="-120.19642"
       y="115.57143"
       width="12.85119"
       height="35.529762"
       id="rect1766" />
    <rect
       x="-92.982132"
       y="117.08333"
       width="45.357143"
       height="148.92262"
       id="rect1772-5" />
    <rect
       x="-92.982132"
       y="117.08333"
       width="45.357143"
       height="148.92262"
       id="rect1785" />
    <rect
       x="-92.982132"
       y="117.08333"
       width="45.357143"
       height="148.92262"
       id="rect1772-4" />
    <rect
       x="-92.982132"
       y="117.08333"
       width="45.357143"
       height="148.92262"
       id="rect8331" />
  </defs>
  <sodipodi:namedview
     id="base"
     pagecolor="#ffffff"
     bordercolor="#666666"
     borderopacity="1.0"
     inkscape:pageopacity="0.0"
     inkscape:pageshadow="2"
     inkscape:zoom="0.35"
     inkscape:cx="635.20423"
     inkscape:cy="546.09674"
     inkscape:document-units="mm"
     inkscape:current-layer="layer1"
     showgrid="false"
     inkscape:window-width="1920"
     inkscape:window-height="1017"
     inkscape:window-x="-8"
     inkscape:window-y="-8"
     inkscape:window-maximized="1"
     inkscape:document-rotation="0" />
  <metadata
     id="metadata5">
    <rdf:RDF>
      <cc:Work
         rdf:about="">
        <dc:format>image/svg+xml</dc:format>
        <dc:type
           rdf:resource="http://purl.org/dc/dcmitype/StillImage" />
        <dc:title></dc:title>
      </cc:Work>
    </rdf:RDF>
  </metadata>
  <g
     inkscape:label="Layer 1"
     inkscape:groupmode="layer"
     id="layer1"
     transform="translate(171.60118,15.964286)">
    <rect
       style="fill:#0f0c0a;fill-opacity:1;stroke:none;stroke-width:6.81817;stroke-miterlimit:4;stroke-dasharray:none;stroke-opacity:1"
       id="rect9029"
       width="110.36905"
       height="55.940475"
       x="-21.16666"
       y="123.88691"
       ry="0.4034718" />
    <rect
       style="fill:none;fill-opacity:0.87437188;stroke:none;stroke-width:0.96499997;stroke-miterlimit:4;stroke-dasharray:none;stroke-opacity:1"
       id="rect815"
       width="400"
       height="400"
       x="-171.60118"
       y="-15.964286"
       ry="1.8463206" />
    <text
       xml:space="preserve"
       id="text1770-3"
       style="font-style:normal;font-weight:normal;font-size:10.5833px;line-height:1.25;font-family:sans-serif;letter-spacing:0px;word-spacing:0px;white-space:pre;shape-inside:url(#rect1772-4);fill:#000000;fill-opacity:1;stroke:none;"
       transform="matrix(6.080376,0,0,2.1512316,477.34841,-203.44594)"><tspan
         x="-92.982422"
         y="126.73945"><tspan>E
</tspan></tspan><tspan
         x="-92.982422"
         y="139.96858"><tspan>M
</tspan></tspan><tspan
         x="-92.982422"
         y="153.1977"><tspan>P
</tspan></tspan><tspan
         x="-92.982422"
         y="166.42683"><tspan>E
</tspan></tspan><tspan
         x="-92.982422"
         y="179.65595"><tspan>R
</tspan></tspan><tspan
         x="-92.982422"
         y="192.88508"><tspan>O
</tspan></tspan><tspan
         x="-92.982422"
         y="206.11421"><tspan>R</tspan></tspan></text>
    <path
       id="rect9006"
       style="fill:#6e6c6b;fill-opacity:1;stroke:none;stroke-width:5.45009;stroke-miterlimit:4;stroke-dasharray:none;stroke-opacity:1"
       d="m 16.234361,174.83796 h 42.997462 c 7.814246,0 31.003993,-3.92955 29.985998,3.90044 L 73.336958,300.8878 c -1.017996,7.82999 -6.290889,14.25504 -14.105135,14.25504 H 16.234361 c -7.8142488,0 -12.5659194,-6.51246 -14.1051443,-14.25504 L -21.948223,179.77386 c -1.539225,-7.74257 30.3683352,-4.9359 38.182584,-4.9359 z"
       sodipodi:nodetypes="sssssssss" />
    <path
       id="rect9006-0"
       style="fill:#6e6c6b;fill-opacity:1;stroke:none;stroke-width:5.74096;stroke-miterlimit:4;stroke-dasharray:none;stroke-opacity:1"
       d="m 54.673306,159.05012 -45.9782328,0.51979 c -8.35596876,0.0944 -31.9831412,-11.20537 -31.3049512,-19.37154 l 6.567349,-79.077393 C -15.364339,52.9548 -1.4090068,14.096213 6.9469621,14.001741 L 52.925184,13.481963 c 8.35598,-0.09442 26.019403,40.264295 27.386787,48.346916 l 13.51258,79.873141 c 1.367374,8.08262 -30.795276,17.25364 -39.151245,17.3481 z"
       sodipodi:nodetypes="sssssssss" />
    <path
       id="rect9031"
       style="fill:#133bbb;fill-opacity:1;stroke:none;stroke-width:6.44098;stroke-miterlimit:4;stroke-dasharray:none;stroke-opacity:1"
       d="m -13.455949,198.7262 c 8.1665544,0 20.4778804,27.06464 20.0327395,40.00773 l -1.5119048,43.96072 c -0.4451406,12.94308 -10.3542803,26.40059 -18.5208347,26.40059 -8.166554,0 -14.741072,-10.42605 -14.741072,-23.37678 v -63.61548 c 0,-12.95074 6.574518,-23.37678 14.741072,-23.37678 z"
       sodipodi:nodetypes="sssssss" />
    <path
       id="rect9031-5"
       style="fill:#133bbb;fill-opacity:1;stroke:none;stroke-width:6.44098;stroke-miterlimit:4;stroke-dasharray:none;stroke-opacity:1"
       d="m 84.294571,199.48214 c -8.16656,0 -20.47788,27.06464 -20.03274,40.00773 l 1.5119,43.96072 c 0.44514,12.94308 10.35428,26.40059 18.52084,26.40059 8.16655,0 14.74107,-10.42605 14.74107,-23.37678 v -63.61548 c 0,-12.95074 -6.57452,-23.37678 -14.74107,-23.37678 z"
       sodipodi:nodetypes="sssssss" />
  </g>
</svg>
