<?xml version="1.0" encoding="UTF-8" standalone="no"?>
<svg
   xmlns:dc="http://purl.org/dc/elements/1.1/"
   xmlns:cc="http://creativecommons.org/ns#"
   xmlns:rdf="http://www.w3.org/1999/02/22-rdf-syntax-ns#"
   xmlns:svg="http://www.w3.org/2000/svg"
   xmlns="http://www.w3.org/2000/svg"
   xmlns:sodipodi="http://sodipodi.sourceforge.net/DTD/sodipodi-0.dtd"
   xmlns:inkscape="http://www.inkscape.org/namespaces/inkscape"
   width="400mm"
   height="400mm"
   viewBox="0 0 400 400"
   version="1.1"
   id="svg8"
   inkscape:version="1.0.2 (e86c870879, 2021-01-15, custom)"
   sodipodi:docname="jettrooper.svg">
  <defs
     id="defs2">
    <rect
       x="-92.982132"
       y="117.08333"
       width="45.357143"
       height="148.92262"
       id="rect1772" />
    <rect
       x="-120.19642"
       y="115.57143"
       width="12.85119"
       height="35.529762"
       id="rect1766" />
    <rect
       x="-92.982132"
       y="117.08333"
       width="45.357143"
       height="148.92262"
       id="rect1772-5" />
    <rect
       x="-92.982132"
       y="117.08333"
       width="45.357143"
       height="148.92262"
       id="rect1785" />
  </defs>
  <sodipodi:namedview
     id="base"
     pagecolor="#ffffff"
     bordercolor="#666666"
     borderopacity="1.0"
     inkscape:pageopacity="0.0"
     inkscape:pageshadow="2"
     inkscape:zoom="0.35"
     inkscape:cx="584.28568"
     inkscape:cy="888.95388"
     inkscape:document-units="mm"
     inkscape:current-layer="layer1"
     showgrid="false"
     inkscape:window-width="1920"
     inkscape:window-height="1017"
     inkscape:window-x="-8"
     inkscape:window-y="-8"
     inkscape:window-maximized="1"
     inkscape:document-rotation="0" />
  <metadata
     id="metadata5">
    <rdf:RDF>
      <cc:Work
         rdf:about="">
        <dc:format>image/svg+xml</dc:format>
        <dc:type
           rdf:resource="http://purl.org/dc/dcmitype/StillImage" />
        <dc:title></dc:title>
      </cc:Work>
    </rdf:RDF>
  </metadata>
  <g
     inkscape:label="Layer 1"
     inkscape:groupmode="layer"
     id="layer1"
     transform="translate(171.60118,15.964286)">
    <rect
       style="fill:none;fill-opacity:0.87437188;stroke:none;stroke-width:0.96499997;stroke-miterlimit:4;stroke-dasharray:none;stroke-opacity:1"
       id="rect815"
       width="400"
       height="400"
       x="-171.60118"
       y="-15.964286"
       ry="1.8463206" />
    <text
       xml:space="preserve"
       id="text1770"
       style="font-style:normal;font-weight:normal;font-size:10.5833px;line-height:1.25;font-family:sans-serif;letter-spacing:0px;word-spacing:0px;white-space:pre;shape-inside:url(#rect1772);fill:#000000;fill-opacity:1;stroke:none;"
       transform="matrix(5.2005542,0,0,3.423358,415.33003,-313.24213)"><tspan
         x="-92.982422"
         y="126.73945"><tspan>J
</tspan></tspan><tspan
         x="-92.982422"
         y="139.96858"><tspan>E
</tspan></tspan><tspan
         x="-92.982422"
         y="153.1977"><tspan>T</tspan></tspan></text>
    <text
       xml:space="preserve"
       id="text1770-9"
       style="font-style:normal;font-weight:normal;font-size:10.5833px;line-height:1.25;font-family:sans-serif;letter-spacing:0px;word-spacing:0px;white-space:pre;shape-inside:url(#rect1772-5);fill:#000000;fill-opacity:1;stroke:none;"
       transform="matrix(3.7429746,0,0,2.0594678,441.18755,-165.1008)"><tspan
         x="-92.982422"
         y="126.73945"><tspan>T
</tspan></tspan><tspan
         x="-92.982422"
         y="139.96858"><tspan>R
</tspan></tspan><tspan
         x="-92.982422"
         y="153.1977"><tspan>O
</tspan></tspan><tspan
         x="-92.982422"
         y="166.42683"><tspan>O
</tspan></tspan><tspan
         x="-92.982422"
         y="179.65595"><tspan>P
</tspan></tspan><tspan
         x="-92.982422"
         y="192.88508"><tspan>E
</tspan></tspan><tspan
         x="-92.982422"
         y="206.11421"><tspan>R</tspan></tspan></text>
    <g
       id="g2305"
       transform="matrix(1.0350952,0,0,1.2387675,113.03156,-137.79713)"
       style="stroke-width:0.402651;stroke-miterlimit:4;stroke-dasharray:none">
      <path
         sodipodi:type="spiral"
         style="fill:none;fill-rule:evenodd;stroke:#000000;stroke-width:0.242234;stroke-miterlimit:4;stroke-dasharray:none"
         id="path2286"
         sodipodi:cx="-125.48808"
         sodipodi:cy="319.67856"
         sodipodi:expansion="1"
         sodipodi:revolution="1"
         sodipodi:radius="37.661304"
         sodipodi:argument="-5.3839951"
         sodipodi:t0="0.72349602"
         d="m -107.26339,299.42261 c 15.772091,8.94961 18.349923,30.25801 9.03058,44.77808 -1.128694,1.75858 -2.40971,3.41888 -3.82075,4.96002"
         transform="matrix(-0.14698416,1.6668816,-1.6444773,-0.14898666,436.88867,557.83236)"
         inkscape:transform-center-x="59.918068"
         inkscape:transform-center-y="-30.410591" />
      <path
         style="fill:none;stroke:#000000;stroke-width:0.402651;stroke-linecap:butt;stroke-linejoin:miter;stroke-miterlimit:4;stroke-dasharray:none;stroke-opacity:1"
         d="m -122.29793,335.70085 82.558927,-1.27383 v 0"
         id="path2290" />
    </g>
    <g
       id="g2301"
       transform="matrix(0.94733216,0,0,0.87778017,-3.5935317,8.3754777)">
      <rect
         style="fill:#ffffff;fill-opacity:1;stroke:#0b0b0b;stroke-width:2.68235;stroke-miterlimit:0;stroke-dasharray:none;stroke-opacity:1"
         id="rect2054"
         width="103.38312"
         height="231.89505"
         x="-17.295727"
         y="74.841171"
         ry="15.198021"
         rx="18.86554" />
      <path
         style="fill:none;stroke:#000000;stroke-width:2;stroke-linecap:butt;stroke-linejoin:miter;stroke-miterlimit:4;stroke-dasharray:none;stroke-opacity:1"
         d="M -18.142849,119.35119 -6.8035638,131.44643 10.583342,89.869046 h 47.624999 l 14.363094,41.577384 13.607143,-11.33929 h 1.511905"
         id="path2256" />
      <rect
         style="fill:#130b0b;fill-opacity:1;stroke:#130b0b;stroke-width:1.93421;stroke-miterlimit:4;stroke-dasharray:none;stroke-opacity:0"
         id="rect2258"
         width="84.137512"
         height="105.83333"
         x="-8.3910789"
         y="111.8673"
         rx="32.523739"
         ry="52.916664" />
      <rect
         style="fill:#ffffff;fill-opacity:1;stroke:#130b0b;stroke-width:1.91582;stroke-miterlimit:4;stroke-dasharray:none;stroke-opacity:0"
         id="rect2258-3"
         width="75.790901"
         height="115.26465"
         x="-4.2778044"
         y="93.515671"
         rx="29.297319"
         ry="57.632324" />
      <rect
         style="fill:#030101;fill-opacity:1;stroke:#130b0b;stroke-width:0.937194;stroke-miterlimit:4;stroke-dasharray:none;stroke-opacity:0"
         id="rect2280"
         width="32.615292"
         height="8.4834442"
         x="20.76334"
         y="230.01422"
         rx="0"
         ry="0" />
      <path
         style="fill:none;stroke:#000000;stroke-width:1.77342;stroke-linecap:butt;stroke-linejoin:miter;stroke-miterlimit:4;stroke-dasharray:none;stroke-opacity:1"
         d="m -10.45868,170.91068 35.52705,157.99019 21.920945,-0.76325 29.479894,-156.4637 v 0"
         id="path2282" />
      <path
         style="fill:none;stroke:#fcfffe;stroke-width:7.95306;stroke-linecap:butt;stroke-linejoin:miter;stroke-miterlimit:4;stroke-dasharray:none;stroke-opacity:1"
         d="m 21.528731,304.6361 c 23.835831,1.20029 24.560719,1.08535 24.560719,1.08535 l 0.810294,-5.10619"
         id="path2284" />
    </g>
    <path
       style="fill:#030101;fill-opacity:1;stroke:#fcfffe;stroke-width:1.30271;stroke-miterlimit:4;stroke-dasharray:none;stroke-opacity:1"
       d="m 19.129176,299.67874 c -10.46979,-2.54181 -22.0474279,-9.82043 -29.512471,-18.55381 l -2.166737,-2.53487 13.42997406,0.35169 c 7.38648754,0.19344 13.51009894,0.41143 13.60802694,0.48444 0.09793,0.073 1.205809,4.33597 2.461953,9.4732 l 2.283902,9.34045 11.144668,-0.35996 c 6.129569,-0.19799 11.240669,-0.43372 11.358,-0.52385 0.117333,-0.0901 1.044755,-4.23046 2.060935,-9.20075 l 1.847607,-9.03688 h 8.746352 c 5.613326,0 9.993656,-0.34781 12.228409,-0.971 1.91513,-0.53405 3.606528,-0.85566 3.758671,-0.71469 0.573306,0.53122 -5.562946,8.1274 -9.297189,11.50918 -4.48285,4.05973 -6.520917,5.41728 -12.210347,8.1333 -8.394974,4.00759 -19.83398,5.00895 -29.741754,2.60355 z"
       id="path2309" />
    <rect
       style="fill:#030101;fill-opacity:1;stroke:#fcfffe;stroke-width:0.391553;stroke-miterlimit:4;stroke-dasharray:none;stroke-opacity:1"
       id="rect2311"
       width="47.331997"
       height="14.660302"
       x="5.2531385"
       y="68.716431"
       rx="0"
       ry="0" />
  </g>
</svg>
