<?xml version="1.0" encoding="UTF-8" standalone="no"?>
<svg
   xmlns:dc="http://purl.org/dc/elements/1.1/"
   xmlns:cc="http://creativecommons.org/ns#"
   xmlns:rdf="http://www.w3.org/1999/02/22-rdf-syntax-ns#"
   xmlns:svg="http://www.w3.org/2000/svg"
   xmlns="http://www.w3.org/2000/svg"
   xmlns:sodipodi="http://sodipodi.sourceforge.net/DTD/sodipodi-0.dtd"
   xmlns:inkscape="http://www.inkscape.org/namespaces/inkscape"
   width="400mm"
   height="400mm"
   viewBox="0 0 400 400"
   version="1.1"
   id="svg8"
   inkscape:version="1.0.2 (e86c870879, 2021-01-15, custom)"
   sodipodi:docname="kyloren.svg">
  <defs
     id="defs2">
    <rect
       x="-92.982132"
       y="117.08333"
       width="45.357143"
       height="148.92262"
       id="rect1772" />
    <rect
       x="-120.19642"
       y="115.57143"
       width="12.85119"
       height="35.529762"
       id="rect1766" />
    <rect
       x="-92.982132"
       y="117.08333"
       width="45.357143"
       height="148.92262"
       id="rect1772-5" />
    <rect
       x="-92.982132"
       y="117.08333"
       width="45.357143"
       height="148.92262"
       id="rect1785" />
    <rect
       x="-92.982132"
       y="117.08333"
       width="45.357143"
       height="148.92262"
       id="rect1772-51" />
    <rect
       x="-92.982132"
       y="117.08333"
       width="45.357143"
       height="148.92262"
       id="rect2776" />
  </defs>
  <sodipodi:namedview
     id="base"
     pagecolor="#ffffff"
     bordercolor="#666666"
     borderopacity="1.0"
     inkscape:pageopacity="0.0"
     inkscape:pageshadow="2"
     inkscape:zoom="0.49497475"
     inkscape:cx="383.68423"
     inkscape:cy="688.94475"
     inkscape:document-units="mm"
     inkscape:current-layer="layer1"
     showgrid="false"
     inkscape:window-width="1920"
     inkscape:window-height="1017"
     inkscape:window-x="-8"
     inkscape:window-y="-8"
     inkscape:window-maximized="1"
     inkscape:document-rotation="0" />
  <metadata
     id="metadata5">
    <rdf:RDF>
      <cc:Work
         rdf:about="">
        <dc:format>image/svg+xml</dc:format>
        <dc:type
           rdf:resource="http://purl.org/dc/dcmitype/StillImage" />
        <dc:title></dc:title>
      </cc:Work>
    </rdf:RDF>
  </metadata>
  <g
     inkscape:label="Layer 1"
     inkscape:groupmode="layer"
     id="layer1"
     transform="translate(171.60118,15.964286)">
    <path
       id="rect815"
       style="fill:none;fill-opacity:0.874372;stroke:none;stroke-width:3.64724;stroke-miterlimit:4;stroke-dasharray:none;stroke-opacity:1"
       transform="matrix(0.26458333,0,0,0.26458333,-171.60118,-15.964286)"
       d="M 6.9785156,0 C 3.1125826,0 0,3.1125826 0,6.9785156 V 1504.832 c 0,3.866 3.1125826,6.9785 6.9785156,6.9785 H 1504.832 c 3.866,0 6.9785,-3.1125 6.9785,-6.9785 V 6.9785156 C 1511.8105,3.1125826 1508.698,0 1504.832,0 Z M 340.69141,249.26367 c 1.5719,-0.0314 3.14188,0.19789 4.70898,0.28516 3.00263,0.0804 6.00319,-0.0754 9.00586,-0.0527 0.49927,0.011 0.271,0.004 0.68359,0.0234 4.89423,0.23416 2.44676,2.61473 -0.14453,5.00391 1.4337,0.0692 2.85226,0.27558 4.28321,0.8125 0.69749,0.26171 1.24572,0.84092 1.9414,1.10742 0.22587,0.0865 -0.67124,-0.40333 -0.47656,-0.54688 0.35345,-0.26063 0.87595,-0.0465 1.31445,-0.0703 2.54595,-0.34983 5.08919,-0.29607 7.64844,-0.25586 5.99202,0.0117 11.98458,0.0435 17.97656,-0.006 3.67508,-0.03 6.00442,1.31678 6.99219,3.03516 h 6.78516 10.43945 7.2793 11.8164 9.89258 7.19336 0.40234 c 4.48695,0 6.95366,2.03494 7.41407,4.27734 1.06074,-1.10282 2.82855,-1.85591 5.25586,-1.83789 0.55184,0.004 1.13714,0.0483 1.75586,0.13672 1.17848,0.16836 2.35469,0.34982 3.53515,0.50391 0.89526,0.11686 1.9354,0.15982 2.89649,0.27734 0.0117,-0.0342 0.019,-0.0694 0.0312,-0.10351 0.16208,-0.45065 0.57221,-0.14101 1.05859,0.29101 0.78271,0.1899 1.41847,0.49696 1.71875,1.05469 0.0443,-0.006 0.0886,-0.0106 0.13086,-0.0273 -0.0417,0.0148 -0.0833,0.0301 -0.125,0.0449 0.0806,0.15421 0.13935,0.32561 0.16601,0.51953 0.0391,-0.009 0.0781,-0.0182 0.11719,-0.0274 3.09041,-0.72599 2.12406,-0.32352 -0.10351,0.39844 -0.0467,1.13743 -0.9386,2.89219 -3.16211,5.59375 0.0127,0.77035 -0.0175,1.53584 -0.16016,2.28321 -0.098,0.51336 -1.04709,0.008 -1.56836,-0.0313 -0.0728,-0.006 -0.17287,-0.0187 -0.25,-0.0254 -0.64952,0.5581 -1.28742,0.37757 -1.87109,-0.21093 -1.39436,-0.1805 -2.88938,-0.40468 -3.84375,-0.54102 -4.06671,-0.58096 -6.22101,-2.61076 -6.66211,-4.70312 -1.19299,1.29543 -3.30006,2.22851 -6.33399,2.22851 h -0.40234 -7.19336 -9.89258 -11.8164 -7.2793 -10.43945 -13.00586 c -3.62253,0 -5.92585,-1.32678 -6.92383,-3.01758 -3.99757,0.004 -7.9953,-0.004 -11.99219,-0.0137 -2.50624,-0.0433 -4.97004,-0.0715 -7.46875,0.25781 -3.96614,-0.0884 -2.37564,0.19038 -6.39062,-1.08203 0.10327,0.0282 0.23182,0.0563 0.29687,0.0371 0.0878,-0.026 0.22191,-0.23236 0.13086,-0.24219 -1.28833,-0.1391 -2.59324,0.0241 -3.89062,0.0508 -0.8837,7.10845 -0.22557,6.84769 -4.2754,6.05859 -0.26203,-0.0511 -0.51057,-0.11158 -0.75585,-0.17383 -0.93138,-0.13354 -1.86222,-0.27474 -2.79493,-0.39844 -2.61175,-0.3464 -5.22775,-0.65766 -7.84179,-0.98632 -3.10991,-0.39103 -5.16463,-1.64919 -6.22071,-3.15235 -1.15131,0.13329 -2.40425,0.26285 -4.09961,0.39844 -0.54793,0.0438 -1.10072,-0.007 -1.65039,-0.01 -0.12355,-1.08216 0.0892,0.12046 -1.93945,1.11915 -2.39649,1.17969 -2.54691,0.76626 -4.92383,1.09374 -0.99925,0.1377 -1.98659,0.34531 -2.98047,0.51758 -1.39587,0.17353 -2.79163,0.34602 -4.1875,0.51953 -0.9867,-0.014 -1.97609,-0.0342 -2.96484,-0.043 0.0172,0.36212 0.0471,0.72366 0.0605,1.08593 0.003,0.0841 -0.16779,0 -0.25196,0 h -0.3789 c -0.19183,3.06919 -0.31873,2.17534 -0.39258,0 h -0.99805 -9.5957 c -2.91693,0 -4.97617,-0.86251 -6.19141,-2.08008 -5.51456,0.0745 -11.03119,0.21948 -16.53711,0.0605 -4.25055,-0.12258 -6.68811,-1.96852 -7.32421,-4.04883 -3.28808,0.008 -6.57551,0.0269 -9.86329,0.0684 -1.22344,-0.0428 -2.44663,-0.0886 -3.66992,-0.13281 -0.0256,0.35991 -0.043,0.72023 -0.0723,1.08008 v 0.002 0.002 c 0.13665,1.68144 0.24373,3.36338 0.22265,5.04882 -0.003,0.21949 -0.36967,0.0715 -0.63476,0.0254 -0.1907,3.03069 -0.3151,2.1421 -0.38868,-0.0254 h -8.57421 c -4.9832,0 -7.4813,-2.50851 -7.49805,-5.02539 -0.51495,-0.0114 -1.03032,-0.0254 -1.54492,-0.0254 h -9.86524 c -0.9663,0 -2.48433,0.81232 -3.00781,0.16016 -0.25065,0.24787 -1.09534,-0.16016 -1.57031,-0.16016 h -5.55469 -8.83984 -6.70117 c -0.27397,1.16236 -1.42647,1.45512 -3.83594,2.65625 -1.16768,0.0631 -1.95568,0.67987 -3.08008,0.91602 -0.15257,0.032 0.44626,-0.42775 0.3125,-0.34766 -0.37514,0.22457 -0.67085,0.56404 -1.04688,0.78711 -0.20029,0.11881 0.34205,-0.31329 0.51368,-0.4707 0.16133,-0.29288 0.76353,-1.06297 0.48437,-0.87891 -4.49637,2.96475 -3.19675,4.04207 -7.90234,3.36328 -0.45333,-0.0654 -0.89574,-0.18995 -1.34375,-0.28515 -0.0702,-0.0363 -0.28441,-0.0803 -0.21094,-0.10938 0.33442,-0.13274 1.41321,-0.2568 1.05469,-0.22656 -0.93591,0.0787 -1.85377,0.36775 -2.79297,0.37305 -4.38459,0.0239 -8.82346,-2.07096 -13.04102,-2.89844 v 0.002 c -9.81291,-1.92527 -7.19893,-12.43007 2.44922,-9.80078 0.24702,0.0673 0.4935,0.13667 0.74024,0.20508 1.55166,-1.91343 4.60377,-3.48042 6.97851,-3.3418 -0.48625,0.091 0.98727,-0.0726 1.47852,-0.13086 0.52186,-0.0618 1.03923,-0.10894 1.55078,-0.13281 0.38366,-0.0179 0.76398,-0.0212 1.14258,-0.008 1.13578,0.0445 2.25112,0.25916 3.35547,0.77539 0.63115,0.32506 0.9443,0.46169 1.03125,0.52734 0.70108,-0.0489 1.3923,-0.20234 2.09179,-0.28711 1.53579,-0.053 2.94853,-0.01 4.34766,0.29492 1.20593,-0.66388 2.81706,-1.08398 4.84766,-1.08398 h 7.57617 8.83984 5.55469 c 0.47495,0 1.3196,-0.40795 1.57031,-0.16016 0.52348,-0.65216 2.04151,0.16016 3.00781,0.16016 h 9.86524 c 1.69411,0 3.39106,0.1031 5.08203,0 0.62915,-0.0384 1.22739,-0.28113 1.8418,-0.42188 1.13719,-1.1074 5.17385,-0.83455 5.76171,-0.83984 3.2675,-0.0292 6.55931,0.20418 9.82618,0.31836 5.28963,-0.0888 10.5808,-0.0939 15.87109,-0.0742 1.94714,-0.10118 3.9391,0.20262 5.87891,0.01 1.66247,-0.16646 3.27888,-0.64283 4.92382,-0.93555 3.6064,-0.66836 7.21408,-0.21354 10.82227,-0.0527 1.43691,0.0638 5.847,0.0393 6.76367,0.0391 3.98826,-0.05 7.97647,-0.0822 11.96485,-0.0625 2.07886,-0.24914 4.26964,0.29351 6.34375,0.002 1.9012,-0.26753 3.63422,-1.24178 5.47851,-1.77539 1.75371,-0.5074 3.53785,-0.90346 5.30664,-1.35547 3.63106,-0.40155 7.26373,-1.08319 10.92774,-1.15625 z m 131.41406,13.95313 c -0.003,-0.005 -0.003,-0.0122 -0.006,-0.0176 -0.52474,0.0709 -1.17052,-0.56773 -1.71875,-1.05469 -0.33954,-0.0824 -0.70851,-0.14087 -1.08984,-0.1875 -0.26636,0.78016 -0.38468,1.5861 -0.41797,2.4082 1.07749,-0.3828 2.15493,-0.76563 3.23242,-1.14843 z m -122.66406,7.68945 c -0.003,0.0202 -0.007,0.0403 -0.01,0.0605 -0.006,0.0439 0.16877,-0.0381 0.125,-0.0449 -0.0383,-0.006 -0.0769,-0.01 -0.11523,-0.0156 z" />
    <text
       xml:space="preserve"
       id="text1770"
       style="font-style:normal;font-weight:normal;font-size:10.5833px;line-height:1.25;font-family:sans-serif;letter-spacing:0px;word-spacing:0px;white-space:pre;shape-inside:url(#rect1772);fill:#000000;fill-opacity:1;stroke:none;"
       transform="matrix(4.8430415,0,0,2.9321061,383.48388,-282.77107)"><tspan
         x="-92.982422"
         y="126.73945"><tspan>K
</tspan></tspan><tspan
         x="-92.982422"
         y="139.96858"><tspan>Y
</tspan></tspan><tspan
         x="-92.982422"
         y="153.1977"><tspan>L
</tspan></tspan><tspan
         x="-92.982422"
         y="166.42683"><tspan>O</tspan></tspan></text>
    <text
       xml:space="preserve"
       id="text1770-7"
       style="font-style:normal;font-weight:normal;font-size:10.5833px;line-height:1.25;font-family:sans-serif;letter-spacing:0px;word-spacing:0px;white-space:pre;shape-inside:url(#rect1772-51);fill:#000000;fill-opacity:1;stroke:none;"
       transform="matrix(4.6189049,0,0,3.5546713,513.9094,-356.88425)"><tspan
         x="-92.982422"
         y="126.73945"><tspan>R
</tspan></tspan><tspan
         x="-92.982422"
         y="139.96858"><tspan>E
</tspan></tspan><tspan
         x="-92.982422"
         y="153.1977"><tspan>N</tspan></tspan></text>
    <path
       style="fill:#fffff9;fill-opacity:1;stroke:#2c1b1b;stroke-width:15.2716;stroke-miterlimit:4;stroke-dasharray:none;stroke-opacity:1"
       d=""
       id="path2887"
       transform="matrix(0.26458333,0,0,0.26458333,-171.60118,-15.964286)" />
    <path
       style="fill:#fffff9;fill-opacity:1;stroke:#2c1b1b;stroke-width:10.7987;stroke-miterlimit:4;stroke-dasharray:none;stroke-opacity:1"
       d=""
       id="path2889"
       transform="matrix(0.26458333,0,0,0.26458333,-171.60118,-15.964286)" />
    <rect
       style="fill:#080104;fill-opacity:1;stroke:none;stroke-width:2;stroke-miterlimit:4;stroke-dasharray:none;stroke-opacity:1"
       id="rect3285"
       width="103.16604"
       height="216.48831"
       x="-22.999329"
       y="66.889267"
       ry="23.584644" />
    <rect
       style="fill:#c9c9c9;fill-opacity:1;stroke:none;stroke-width:2.22646;stroke-miterlimit:4;stroke-dasharray:none;stroke-opacity:1"
       id="rect3287"
       width="63.594906"
       height="80.180862"
       x="-2.6716018"
       y="156.15729"
       ry="5.9448519" />
    <rect
       style="fill:#cacaca;fill-opacity:1;stroke:#000000;stroke-width:4;stroke-miterlimit:4;stroke-dasharray:none;stroke-opacity:1"
       id="rect3289-7"
       width="54.522984"
       height="101.02789"
       x="1.5894686"
       y="123.28313"
       ry="27.261492" />
    <rect
       style="fill:#0a0507;fill-opacity:1;stroke:none;stroke-width:1.68853;stroke-miterlimit:4;stroke-dasharray:none;stroke-opacity:1"
       id="rect3289"
       width="48.643055"
       height="80.715408"
       x="4.7967048"
       y="124.61948"
       ry="21.780346" />
    <rect
       style="fill:#cacaca;fill-opacity:1;stroke:none;stroke-width:4;stroke-miterlimit:4;stroke-dasharray:none;stroke-opacity:1"
       id="rect3311"
       width="13.898015"
       height="61.471989"
       x="9.0300388"
       y="67.504387"
       ry="0" />
    <rect
       style="fill:#cacaca;fill-opacity:1;stroke:none;stroke-width:4;stroke-miterlimit:4;stroke-dasharray:none;stroke-opacity:1"
       id="rect3311-5"
       width="13.898015"
       height="61.471989"
       x="33.511398"
       y="67.504379"
       ry="0" />
    <path
       style="fill:none;stroke:#ff0000;stroke-width:2;stroke-linecap:butt;stroke-linejoin:miter;stroke-miterlimit:4;stroke-dasharray:none;stroke-opacity:1"
       d="m -9.10131,70.0965 c 2.2278737,3.737012 2.005531,7.752836 3.7417745,11.22532 0.3798808,0.759759 0.2582624,3.723758 1.069078,5.345388 0.5146808,1.02936 0,11.40966 0,13.363482 0,3.03693 0.760648,8.02851 0,10.69078 -0.1764903,0.61772 -0.7817723,1.029 -1.069078,1.60362 -0.4439444,0.88788 -0.2832629,2.73666 -0.5345404,3.74177 -0.6453134,2.58126 -0.2540238,-0.0265 -1.069078,1.60362 -0.2390537,0.4781 0.1296458,1.08504 0,1.60361 -0.3972507,1.589 -1.52586,2.74558 -2.1381561,4.27632 -0.2258801,0.5647 -0.3086576,2.10799 -0.5345377,2.67269 -0.5128393,1.2821 -1.6075073,2.41515 -2.1381563,3.74178 -0.448339,1.12084 -1.278112,4.48534 -2.138156,5.34539 -0.125992,0.12599 -0.408548,-0.126 -0.53454,0 -0.217623,0.21762 -0.897988,1.79597 -1.069078,2.13815 -0.159369,0.31874 0.112691,0.73101 0,1.06908 -0.463082,1.38924 -1.004941,2.54442 -1.603616,3.74177 -0.33696,0.67392 -0.176056,1.95573 -0.53454,2.6727 -0.336878,0.67375 -2.335742,5.34539 -2.138156,5.34539 0.178181,0 0,-0.71272 0,-0.53454 0,3.18947 -1.112102,1.43152 -0.534538,3.74177 0.06111,0.24446 0.356359,0.71272 0.534538,0.53454 0.178181,-0.17818 -0.534538,-0.78652 -0.534538,-0.53454 0,1.2928 1.713754,0.8488 1.069078,2.13816 -0.388879,0.77775 -2.857069,2.67269 -3.207234,2.67269"
       id="path3333" />
    <path
       style="fill:none;stroke:#000000;stroke-width:0.264583px;stroke-linecap:butt;stroke-linejoin:miter;stroke-opacity:1"
       d="M 1.5894652,123.28313 -24.602943,102.70338"
       id="path3337" />
    <path
       style="fill:none;stroke:#ff0602;stroke-width:2;stroke-linecap:butt;stroke-linejoin:miter;stroke-miterlimit:4;stroke-dasharray:none;stroke-opacity:1"
       d="M -24.602946,102.70338 -5.3595355,113.9287"
       id="path3339" />
    <path
       style="fill:none;stroke:#ff0602;stroke-width:3.47837;stroke-linecap:butt;stroke-linejoin:miter;stroke-miterlimit:4;stroke-dasharray:none;stroke-opacity:1"
       d="M -17.659094,147.9345 C -7.5781256,143.11892 2.1496843,137.90118 4.7967049,124.61948"
       id="path3339-8"
       sodipodi:nodetypes="cc"
       inkscape:transform-center-x="-2.7292399"
       inkscape:transform-center-y="4.7306929" />
    <path
       style="fill:none;stroke:#ff0602;stroke-width:3.3731;stroke-linecap:butt;stroke-linejoin:miter;stroke-miterlimit:4;stroke-dasharray:none;stroke-opacity:1"
       d="m 19.67152,166.98374 c 10.359007,5.36358 23.736441,12.22615 25.842428,28.59375"
       id="path3339-9"
       sodipodi:nodetypes="cc" />
    <path
       style="fill:none;stroke:#ff0602;stroke-width:4.66398;stroke-linecap:butt;stroke-linejoin:miter;stroke-miterlimit:4;stroke-dasharray:none;stroke-opacity:1"
       d="M 10.298664,195.03704 C 18.882411,180.80675 29.885978,162.4175 51.086023,162.52009"
       id="path3339-9-7"
       sodipodi:nodetypes="cc" />
    <path
       style="fill:none;stroke:#ff0602;stroke-width:5.46369;stroke-linecap:butt;stroke-linejoin:miter;stroke-miterlimit:4;stroke-dasharray:none;stroke-opacity:1"
       d="m 71.104962,72.858796 c 0.646336,22.489602 1.556413,51.471174 -16.35496,70.652344"
       id="path3339-9-2"
       sodipodi:nodetypes="cc" />
    <path
       style="fill:none;stroke:#ff0602;stroke-width:5.01495;stroke-linecap:butt;stroke-linejoin:miter;stroke-miterlimit:4;stroke-dasharray:none;stroke-opacity:1"
       d="m 22.143457,278.45669 c 15.544992,-7.90055 35.61953,-18.0091 38.779848,-42.11853"
       id="path3339-9-6"
       sodipodi:nodetypes="cc" />
    <path
       style="fill:none;stroke:#ff0602;stroke-width:5.48461;stroke-linecap:butt;stroke-linejoin:miter;stroke-miterlimit:4;stroke-dasharray:none;stroke-opacity:1"
       d="m -18.228121,230.06596 c 16.1830593,9.07707 37.081557,20.69097 40.371578,48.39073"
       id="path3339-9-0"
       sodipodi:nodetypes="cc" />
  </g>
  <g
     inkscape:groupmode="layer"
     id="layer2"
     inkscape:label="Layer 2" />
</svg>
