<?xml version="1.0" encoding="UTF-8" standalone="no"?>
<svg
   xmlns:dc="http://purl.org/dc/elements/1.1/"
   xmlns:cc="http://creativecommons.org/ns#"
   xmlns:rdf="http://www.w3.org/1999/02/22-rdf-syntax-ns#"
   xmlns:svg="http://www.w3.org/2000/svg"
   xmlns="http://www.w3.org/2000/svg"
   xmlns:sodipodi="http://sodipodi.sourceforge.net/DTD/sodipodi-0.dtd"
   xmlns:inkscape="http://www.inkscape.org/namespaces/inkscape"
   width="400mm"
   height="400mm"
   viewBox="0 0 400 400"
   version="1.1"
   id="svg8"
   inkscape:version="1.0.2 (e86c870879, 2021-01-15, custom)"
   sodipodi:docname="stormtrooper2.svg">
  <defs
     id="defs2">
    <rect
       x="-92.982132"
       y="117.08333"
       width="45.357143"
       height="148.92262"
       id="rect1772" />
    <rect
       x="-120.19642"
       y="115.57143"
       width="12.85119"
       height="35.529762"
       id="rect1766" />
    <rect
       x="-92.982132"
       y="117.08333"
       width="45.357143"
       height="148.92262"
       id="rect1772-5" />
    <rect
       x="-92.982132"
       y="117.08333"
       width="45.357143"
       height="148.92262"
       id="rect1785" />
    <rect
       x="-92.982132"
       y="117.08333"
       width="45.357143"
       height="148.92262"
       id="rect1772-4" />
    <rect
       x="-92.982132"
       y="117.08333"
       width="45.357143"
       height="148.92262"
       id="rect8331" />
  </defs>
  <sodipodi:namedview
     id="base"
     pagecolor="#ffffff"
     bordercolor="#666666"
     borderopacity="1.0"
     inkscape:pageopacity="0.0"
     inkscape:pageshadow="2"
     inkscape:zoom="0.35"
     inkscape:cx="584.28568"
     inkscape:cy="546.09674"
     inkscape:document-units="mm"
     inkscape:current-layer="layer1"
     showgrid="false"
     inkscape:window-width="1920"
     inkscape:window-height="1017"
     inkscape:window-x="-8"
     inkscape:window-y="-8"
     inkscape:window-maximized="1"
     inkscape:document-rotation="0" />
  <metadata
     id="metadata5">
    <rdf:RDF>
      <cc:Work
         rdf:about="">
        <dc:format>image/svg+xml</dc:format>
        <dc:type
           rdf:resource="http://purl.org/dc/dcmitype/StillImage" />
        <dc:title></dc:title>
      </cc:Work>
    </rdf:RDF>
  </metadata>
  <g
     inkscape:label="Layer 1"
     inkscape:groupmode="layer"
     id="layer1"
     transform="translate(171.60118,15.964286)">
    <rect
       style="fill:none;fill-opacity:0.87437188;stroke:none;stroke-width:0.96499997;stroke-miterlimit:4;stroke-dasharray:none;stroke-opacity:1"
       id="rect815"
       width="400"
       height="400"
       x="-171.60118"
       y="-15.964286"
       ry="1.8463206" />
    <text
       xml:space="preserve"
       id="text1770"
       style="font-style:normal;font-weight:normal;font-size:10.5833px;line-height:1.25;font-family:sans-serif;letter-spacing:0px;word-spacing:0px;white-space:pre;shape-inside:url(#rect1772);fill:#000000;fill-opacity:1;stroke:none;"
       transform="matrix(5.7215163,0,0,2.2842072,428.24059,-185.3842)"><tspan
         x="-92.982422"
         y="126.73945"><tspan>2
</tspan></tspan><tspan
         x="-92.982422"
         y="139.96858"><tspan>
</tspan></tspan><tspan
         x="-92.982422"
         y="153.1977"><tspan>S
</tspan></tspan><tspan
         x="-92.982422"
         y="166.42683"><tspan>T
</tspan></tspan><tspan
         x="-92.982422"
         y="179.65595"><tspan>O
</tspan></tspan><tspan
         x="-92.982422"
         y="192.88508"><tspan>R
</tspan></tspan><tspan
         x="-92.982422"
         y="206.11421"><tspan>M</tspan></tspan></text>
    <text
       xml:space="preserve"
       id="text1770-3"
       style="font-style:normal;font-weight:normal;font-size:10.5833px;line-height:1.25;font-family:sans-serif;letter-spacing:0px;word-spacing:0px;white-space:pre;shape-inside:url(#rect1772-4);fill:#000000;fill-opacity:1;stroke:none;"
       transform="matrix(5.7215163,0,0,2.2842072,637.06199,-193.09993)"><tspan
         x="-92.982422"
         y="126.73945"><tspan>T
</tspan></tspan><tspan
         x="-92.982422"
         y="139.96858"><tspan>R
</tspan></tspan><tspan
         x="-92.982422"
         y="153.1977"><tspan>O
</tspan></tspan><tspan
         x="-92.982422"
         y="166.42683"><tspan>O
</tspan></tspan><tspan
         x="-92.982422"
         y="179.65595"><tspan>P
</tspan></tspan><tspan
         x="-92.982422"
         y="192.88508"><tspan>E
</tspan></tspan><tspan
         x="-92.982422"
         y="206.11421"><tspan>R</tspan></tspan></text>
    <rect
       style="fill:#ffffff;fill-opacity:1;stroke:#0a0a0a;stroke-width:1.87941;stroke-miterlimit:4;stroke-dasharray:none;stroke-opacity:1"
       id="rect9262"
       width="122.58489"
       height="251.09677"
       x="-39.369816"
       y="67.886131"
       ry="33.472328" />
    <path
       id="rect9264"
       style="fill:#110a06;fill-opacity:1;stroke:#0a0a0a;stroke-width:1.89589;stroke-miterlimit:4;stroke-dasharray:none;stroke-opacity:1"
       d="M 5.8551641,101.14127 H 38.020515 c 17.084643,0 30.838702,11.74235 30.838702,26.32817 v 83.07925 c 0,14.5858 -16.8563,1.82955 -33.940942,1.82955 H 8.1818471 c -17.0846425,0 -33.1653841,12.75625 -33.1653841,-1.82955 v -83.07925 c 0,-14.58582 13.754059,-26.32817 30.8387011,-26.32817 z"
       sodipodi:nodetypes="sssssssss" />
    <circle
       style="fill:#110a06;fill-opacity:1;stroke:#0a0a0a;stroke-width:1.21916;stroke-miterlimit:4;stroke-dasharray:none;stroke-opacity:1"
       id="path9267"
       sodipodi:type="arc"
       sodipodi:cx="23.43577"
       sodipodi:cy="297.00034"
       sodipodi:rx="19.287857"
       sodipodi:ry="10.219469"
       sodipodi:start="0.2734547"
       sodipodi:end="0.12544624"
       sodipodi:open="true"
       sodipodi:arc-type="arc"
       d="M 42.006961,299.7602 A 19.287857,10.219469 0 0 1 18.917485,306.93545 19.287857,10.219469 0 0 1 4.5302831,294.97554 19.287857,10.219469 0 0 1 26.555288,286.91541 19.287857,10.219469 0 0 1 42.572062,298.27897" />
    <circle
       style="fill:#110a06;fill-opacity:1;stroke:#0a0a0a;stroke-width:1.01953;stroke-miterlimit:4;stroke-dasharray:none;stroke-opacity:1"
       id="path9267-0"
       sodipodi:type="arc"
       sodipodi:cx="-20.413166"
       sodipodi:cy="313.63058"
       sodipodi:rx="17.119417"
       sodipodi:ry="8.0519428"
       sodipodi:start="0.2734547"
       sodipodi:end="0.12544624"
       sodipodi:open="true"
       sodipodi:arc-type="arc"
       d="m -3.9298436,315.80509 a 17.119417,8.0519428 0 0 1 -20.4936384,5.65339 17.119417,8.0519428 0 0 1 -12.769719,-9.42323 17.119417,8.0519428 0 0 1 19.548841,-6.3506 17.119417,8.0519428 0 0 1 14.2160856,8.95337" />
    <circle
       style="fill:#110a06;fill-opacity:1;stroke:#0a0a0a;stroke-width:1.01953;stroke-miterlimit:4;stroke-dasharray:none;stroke-opacity:1"
       id="path9267-0-5"
       sodipodi:type="arc"
       sodipodi:cx="66.73175"
       sodipodi:cy="313.63058"
       sodipodi:rx="17.119417"
       sodipodi:ry="8.0519428"
       sodipodi:start="0.2734547"
       sodipodi:end="0.12544624"
       sodipodi:open="true"
       sodipodi:arc-type="arc"
       d="m 83.215073,315.80509 a 17.119417,8.0519428 0 0 1 -20.493638,5.65339 17.119417,8.0519428 0 0 1 -12.76972,-9.42323 17.119417,8.0519428 0 0 1 19.548841,-6.3506 17.119417,8.0519428 0 0 1 14.216086,8.95337" />
    <rect
       style="fill:#ffffff;fill-opacity:1;stroke:#0a0a0a;stroke-width:1.79981;stroke-miterlimit:4;stroke-dasharray:none;stroke-opacity:1"
       id="rect9311"
       width="73.327377"
       height="93.053429"
       x="-14.363091"
       y="108.69656"
       ry="27.107019" />
    <path
       id="rect9353"
       style="fill:#0e0000;fill-opacity:1;stroke:#0a0a0a;stroke-width:1.74628;stroke-miterlimit:4;stroke-dasharray:none;stroke-opacity:1"
       d="m -28.835194,271.36776 c 26.229667,-43.39412 53.265291,-82.89495 102.272073,0 v 0 c -43.991884,-61.40472 -74.22516305,-37.48201 -102.272073,0 z"
       sodipodi:nodetypes="ccccc" />
    <rect
       style="fill:#ffffff;fill-opacity:1;stroke:#0b0000;stroke-width:2;stroke-miterlimit:4;stroke-dasharray:none;stroke-opacity:1"
       id="rect9356"
       width="136.82739"
       height="47.625"
       x="-47.836491"
       y="20.261129"
       ry="21.166666" />
    <circle
       style="fill:#110a06;fill-opacity:1;stroke:#0a0a0a;stroke-width:0.723818;stroke-miterlimit:4;stroke-dasharray:none;stroke-opacity:1"
       id="path9267-0-8"
       sodipodi:type="arc"
       sodipodi:cx="-232.19487"
       sodipodi:cy="64.820679"
       sodipodi:rx="11.765543"
       sodipodi:ry="5.9052215"
       sodipodi:start="0.2734547"
       sodipodi:end="0.12544624"
       sodipodi:open="true"
       sodipodi:arc-type="arc"
       d="m -220.86649,66.415439 a 11.765543,5.9052215 0 0 1 -14.08452,4.146149 11.765543,5.9052215 0 0 1 -8.77616,-6.910915 11.765543,5.9052215 0 0 1 13.4352,-4.657469 11.765543,5.9052215 0 0 1 9.77019,6.566321"
       transform="matrix(-0.05980962,-0.9982098,0.99862087,-0.05250096,0,0)" />
    <circle
       style="fill:#110a06;fill-opacity:1;stroke:#0a0a0a;stroke-width:0.723818;stroke-miterlimit:4;stroke-dasharray:none;stroke-opacity:1"
       id="path9267-0-8-1"
       sodipodi:type="arc"
       sodipodi:cx="-227.66324"
       sodipodi:cy="-46.943356"
       sodipodi:rx="11.765543"
       sodipodi:ry="5.9052215"
       sodipodi:start="0.2734547"
       sodipodi:end="0.12544624"
       sodipodi:open="true"
       sodipodi:arc-type="arc"
       transform="matrix(-0.05980962,-0.9982098,0.99862087,-0.05250096,0,0)"
       d="m -216.33486,-45.348595 a 11.765543,5.9052215 0 0 1 -14.08452,4.146149 11.765543,5.9052215 0 0 1 -8.77616,-6.910915 11.765543,5.9052215 0 0 1 13.4352,-4.657469 11.765543,5.9052215 0 0 1 9.77019,6.566321" />
  </g>
</svg>
